<?xml version="1.0" encoding="UTF-8" standalone="no"?>
<svg
   xmlns:dc="http://purl.org/dc/elements/1.1/"
   xmlns:cc="http://creativecommons.org/ns#"
   xmlns:rdf="http://www.w3.org/1999/02/22-rdf-syntax-ns#"
   xmlns:svg="http://www.w3.org/2000/svg"
   xmlns="http://www.w3.org/2000/svg"
   viewBox="0 0 221.5 180.66667"
   height="180.66667"
   width="221.5"
   xml:space="preserve"
   id="svg2"
   version="1.1"><metadata
     id="metadata8"><rdf:RDF><cc:Work
         rdf:about=""><dc:format>image/svg+xml</dc:format><dc:type
           rdf:resource="http://purl.org/dc/dcmitype/StillImage" /></cc:Work></rdf:RDF></metadata><defs
     id="defs6"><clipPath
       id="clipPath18"
       clipPathUnits="userSpaceOnUse"><path
         id="path16"
         d="M 0,135.5 H 166.125 V 0 H 0 Z" /></clipPath></defs><g
     transform="matrix(1.3333333,0,0,-1.3333333,0,180.66667)"
     id="g10"><g
       id="g12"><g
         clip-path="url(#clipPath18)"
         id="g14"><g
           transform="translate(162.125)"
           id="g20"><path
             id="path22"
             style="fill:#fff;fill-opacity:1;fill-rule:nonzero;stroke:none"
             d="m 0,0 h -154 c -2.209,0 -4,1.791 -4,4 0,2.209 1.791,4 4,4 H 0 C 2.209,8 4,6.209 4,4 4,1.791 2.209,0 0,0" /></g><g
           transform="translate(116.75,27.5)"
           id="g24"><path
             id="path26"
             style="fill:#fff;fill-opacity:1;fill-rule:nonzero;stroke:none"
             d="m 0,0 c -1.104,0 -2,0.896 -2,2 v 7.5 c 0,1.104 0.896,2 2,2 1.104,0 2,-0.896 2,-2 V 2 C 2,0.896 1.104,0 0,0" /></g><g
           transform="translate(90.915,61.5186)"
           id="g28"><path
             id="path30"
             style="fill:#fff;fill-opacity:1;fill-rule:nonzero;stroke:none"
             d="m 0,0 h -59.33 c -0.452,0 -0.835,-0.382 -0.835,-0.834 v -33.369 c 0,-0.111 0.024,-0.217 0.066,-0.316 H 0.769 c 0.042,0.099 0.066,0.205 0.066,0.316 V -0.834 C 0.835,-0.382 0.452,0 0,0" /></g><g
           transform="translate(98.25,21.5)"
           id="g32"><path
             id="path34"
             style="fill:#fff;fill-opacity:1;fill-rule:nonzero;stroke:none"
             d="m 0,0 h -72.5 c -1.657,0 -3,1.343 -3,3 0,1.657 1.343,3 3,3 h 1.032 C -71.475,6.106 -71.5,6.208 -71.5,6.316 v 33.368 c 0,2.666 2.169,4.835 4.835,4.835 h 59.33 c 2.666,0 4.835,-2.169 4.835,-4.835 V 6.316 C -2.5,6.208 -2.525,6.106 -2.532,6 H 0 C 1.657,6 3,4.657 3,3 3,1.343 1.657,0 0,0 m 31.833,60 c -3.577,0 -6.542,2.593 -7.135,6 H 14.802 C 14.209,62.593 11.244,60 7.667,60 4.09,60 1.125,62.593 0.532,66 h -9.897 c -0.594,-3.407 -3.559,-6 -7.135,-6 -3.576,0 -6.541,2.593 -7.135,6 h -9.897 c -0.593,-3.407 -3.558,-6 -7.135,-6 -3.577,0 -6.542,2.593 -7.135,6 h -9.896 c -0.593,-3.407 -3.558,-6 -7.135,-6 -3.577,0 -6.542,2.593 -7.135,6 h -9.897 c -0.057,-0.328 -0.131,-0.649 -0.231,-0.96 V -15.5 h 94.931 c -1.56,0 -2.835,1.275 -2.835,2.834 v 50.332 c 0,1.559 1.275,2.834 2.835,2.834 h 23.33 C 37.725,40.5 39,39.225 39,37.666 V -12.666 C 39,-14.225 37.725,-15.5 36.165,-15.5 H 47.904 V 66 H 38.968 C 38.375,62.593 35.41,60 31.833,60" /></g><g
           transform="translate(154.25,81.5)"
           id="g36"><path
             id="path38"
             style="fill:#fff;fill-opacity:1;fill-rule:nonzero;stroke:none"
             d="M 0,0 C -4.004,0 -7.25,3.246 -7.25,7.25 H 7.25 C 7.25,3.246 4.004,0 0,0 m -19.144,50 h 5.713 c 0.752,0 1.768,-0.684 2.051,-1.379 L 4.527,9.5 h -9.24 z M -24.167,0 c -4.004,0 -7.25,3.246 -7.25,7.25 h 14.5 c 0,-4.004 -3.246,-7.25 -7.25,-7.25 m -13.161,50 h 8.575 L -18.747,9.5 H -30.345 Z M -48.333,0 c -4.004,0 -7.25,3.246 -7.25,7.25 h 14.5 c 0,-4.004 -3.246,-7.25 -7.25,-7.25 m -9.109,50 h 11.524 L -42.582,9.5 H -55.115 Z M -72.5,0 c -4.004,0 -7.25,3.246 -7.25,7.25 h 14.5 C -65.25,3.246 -68.496,0 -72.5,0 m -5.512,50 h 11.024 L -66.512,9.5 H -78.488 Z M -89.885,9.5 h -12.533 l 3.336,40.5 h 11.524 z M -96.667,0 c -4.004,0 -7.25,3.246 -7.25,7.25 h 14.5 c 0,-4.004 -3.246,-7.25 -7.25,-7.25 m -17.988,9.5 h -11.598 l 10.006,40.5 h 8.575 z M -120.833,0 c -4.004,0 -7.25,3.246 -7.25,7.25 h 14.5 c 0,-4.004 -3.246,-7.25 -7.25,-7.25 m -19.454,9.5 h -9.24 l 15.907,39.12 c 0.283,0.696 1.299,1.38 2.051,1.38 h 5.713 z M -145,0 c -4.004,0 -7.25,3.246 -7.25,7.25 h 14.5 C -137.75,3.246 -140.996,0 -145,0 M 8.589,8.727 c 0.086,0.692 -0.01,1.428 -0.305,2.152 L -7.675,50.128 C -8.573,52.335 -11.048,54 -13.431,54 h -118.138 c -2.383,0 -4.858,-1.665 -5.756,-3.873 L -153.284,10.88 c -0.295,-0.725 -0.391,-1.461 -0.305,-2.153 -0.403,-0.367 -0.661,-0.89 -0.661,-1.477 0,-5.101 4.149,-9.25 9.25,-9.25 4.502,0 8.258,3.234 9.079,7.5 h 6.009 c 0.821,-4.266 4.577,-7.5 9.079,-7.5 4.502,0 8.258,3.234 9.079,7.5 h 6.008 c 0.821,-4.266 4.577,-7.5 9.079,-7.5 4.502,0 8.258,3.234 9.079,7.5 h 6.009 c 0.821,-4.266 4.577,-7.5 9.079,-7.5 4.502,0 8.258,3.234 9.079,7.5 h 6.009 c 0.821,-4.266 4.577,-7.5 9.079,-7.5 4.502,0 8.258,3.234 9.079,7.5 h 6.008 c 0.821,-4.266 4.577,-7.5 9.079,-7.5 4.502,0 8.258,3.234 9.079,7.5 h 6.009 C -8.258,1.234 -4.502,-2 0,-2 c 5.101,0 9.25,4.149 9.25,9.25 0,0.587 -0.258,1.11 -0.661,1.477" /></g></g></g></g></svg>