<?xml version="1.0" encoding="UTF-8" standalone="no"?>
<svg
   xmlns:dc="http://purl.org/dc/elements/1.1/"
   xmlns:cc="http://creativecommons.org/ns#"
   xmlns:rdf="http://www.w3.org/1999/02/22-rdf-syntax-ns#"
   xmlns:svg="http://www.w3.org/2000/svg"
   xmlns="http://www.w3.org/2000/svg"
   viewBox="0 0 48.2864 34.807335"
   height="34.807335"
   width="48.2864"
   xml:space="preserve"
   id="svg2"
   version="1.1"><metadata
     id="metadata8"><rdf:RDF><cc:Work
         rdf:about=""><dc:format>image/svg+xml</dc:format><dc:type
           rdf:resource="http://purl.org/dc/dcmitype/StillImage" /></cc:Work></rdf:RDF></metadata><defs
     id="defs6"><clipPath
       id="clipPath18"
       clipPathUnits="userSpaceOnUse"><path
         id="path16"
         d="M 0,26.105 H 36.215 V 0 H 0 Z" /></clipPath></defs><g
     transform="matrix(1.3333333,0,0,-1.3333333,0,34.807333)"
     id="g10"><g
       id="g12"><g
         clip-path="url(#clipPath18)"
         id="g14"><g
           transform="translate(7.9854,5.3379)"
           id="g20"><path
             id="path22"
             style="fill:#92278f;fill-opacity:1;fill-rule:nonzero;stroke:none"
             d="m 0,0 c -1.475,0 -2.67,-1.195 -2.67,-2.669 0,-1.474 1.195,-2.669 2.67,-2.669 1.476,0 2.671,1.195 2.671,2.669 C 2.671,-1.195 1.476,0 0,0 m 14.61,0 c -1.474,0 -2.67,-1.195 -2.67,-2.669 0,-1.474 1.196,-2.669 2.67,-2.669 1.476,0 2.668,1.195 2.668,2.669 C 17.278,-1.195 16.086,0 14.61,0 M 27.131,20.768 H 24.659 C 24.012,20.762 23.439,20.534 22.961,20.2 22.483,19.86 22.082,19.4 21.86,18.791 L 21.216,16.974 H 21.213 -6.885 c -0.605,0 -1.1,-0.492 -1.1,-1.099 0,-0.607 0.495,-1.101 1.1,-1.101 H 20.436 L 19.84,13.103 H -5.338 c -0.608,0 -1.101,-0.493 -1.101,-1.101 0,-0.607 0.493,-1.1 1.101,-1.1 h 24.4 L 18.475,9.248 h -22.27 c -0.605,0 -1.098,-0.493 -1.098,-1.099 0,-0.609 0.493,-1.101 1.098,-1.101 H 17.694 L 16.562,3.859 C 16.539,3.783 16.428,3.623 16.265,3.512 16.104,3.396 15.916,3.343 15.838,3.348 H -2.231 c -0.605,0 -1.097,-0.492 -1.097,-1.101 0,-0.606 0.492,-1.1 1.097,-1.1 h 18.069 c 0.645,0.005 1.216,0.233 1.694,0.567 0.478,0.34 0.881,0.801 1.104,1.411 l 5.298,14.93 c 0.021,0.076 0.134,0.237 0.296,0.349 0.159,0.116 0.348,0.169 0.429,0.163 h 2.472 c 0.608,0 1.098,0.494 1.098,1.101 0,0.606 -0.49,1.1 -1.098,1.1" /></g></g></g></g></svg>