<?xml version="1.0" encoding="UTF-8" standalone="no"?>
<svg
   xmlns:dc="http://purl.org/dc/elements/1.1/"
   xmlns:cc="http://creativecommons.org/ns#"
   xmlns:rdf="http://www.w3.org/1999/02/22-rdf-syntax-ns#"
   xmlns:svg="http://www.w3.org/2000/svg"
   xmlns="http://www.w3.org/2000/svg"
   viewBox="0 0 131.20708 75.265602"
   height="75.265602"
   width="131.20708"
   xml:space="preserve"
   id="svg2"
   version="1.1"><metadata
     id="metadata8"><rdf:RDF><cc:Work
         rdf:about=""><dc:format>image/svg+xml</dc:format><dc:type
           rdf:resource="http://purl.org/dc/dcmitype/StillImage" /></cc:Work></rdf:RDF></metadata><defs
     id="defs6"><clipPath
       id="clipPath18"
       clipPathUnits="userSpaceOnUse"><path
         id="path16"
         d="M 0,56.449 H 98.405 V 0 H 0 Z" /></clipPath></defs><g
     transform="matrix(1.3333333,0,0,-1.3333333,0,75.2656)"
     id="g10"><g
       id="g12"><g
         clip-path="url(#clipPath18)"
         id="g14"><g
           transform="translate(30.7939,46.3594)"
           id="g20"><path
             id="path22"
             style="fill:#fff;fill-opacity:1;fill-rule:nonzero;stroke:none"
             d="m 0,0 c 0,-5.571 -4.514,-10.088 -10.089,-10.088 -5.572,0 -10.089,4.517 -10.089,10.088 0,5.573 4.517,10.09 10.089,10.09 C -4.514,10.09 0,5.573 0,0" /></g><g
           transform="translate(87.791,46.3594)"
           id="g24"><path
             id="path26"
             style="fill:#fff;fill-opacity:1;fill-rule:nonzero;stroke:none"
             d="m 0,0 c 0,-5.571 -4.514,-10.088 -10.089,-10.088 -5.572,0 -10.089,4.517 -10.089,10.088 0,5.573 4.517,10.09 10.089,10.09 C -4.514,10.09 0,5.573 0,0" /></g><g
           transform="translate(34.0205,27.8818)"
           id="g28"><path
             id="path30"
             style="fill:#fff;fill-opacity:1;fill-rule:nonzero;stroke:none"
             d="m 0,0 c -3.412,2.865 -7.76,4.655 -12.522,4.837 l 2.84,-12.864 c 0.203,-0.91 -0.172,-2.193 -0.83,-2.851 l -1.623,-1.62 c -0.657,-0.657 -1.736,-0.657 -2.394,0 l -1.592,1.594 c -0.656,0.658 -1.029,1.941 -0.825,2.848 l 2.888,12.895 C -25.09,4.449 -33.926,-4.55 -34.021,-15.658 h 0.132 c -0.185,-1.871 1.142,-3.225 3.474,-3.225 h 17.481 C -11.426,-10.922 -6.641,-4.145 0,0" /></g><g
           transform="translate(78.4951,32.7188)"
           id="g32"><path
             id="path34"
             style="fill:#fff;fill-opacity:1;fill-rule:nonzero;stroke:none"
             d="m 0,0 2.841,-12.864 c 0.202,-0.909 -0.173,-2.193 -0.83,-2.851 l -1.623,-1.62 c -0.658,-0.657 -1.737,-0.657 -2.395,0 l -1.592,1.594 c -0.656,0.658 -1.029,1.941 -0.825,2.848 l 2.889,12.895 c -4.786,-0.169 -9.155,-1.962 -12.58,-4.841 6.642,-4.147 11.43,-10.926 12.937,-18.881 h 17.48 c 2.336,0 3.662,1.354 3.475,3.225 H 19.91 C 19.82,-9.407 11.009,-0.42 0,0" /></g><g
           transform="translate(61.2061,44.4453)"
           id="g36"><path
             id="path38"
             style="fill:#fff;fill-opacity:1;fill-rule:nonzero;stroke:none"
             d="m 0,0 c 0,-6.627 -5.371,-12 -12.002,-12 -6.629,0 -12.002,5.373 -12.002,12 0,6.631 5.373,12.004 12.002,12.004 C -5.371,12.004 0,6.631 0,0" /></g><g
           transform="translate(50.1475,28.2188)"
           id="g40"><path
             id="path42"
             style="fill:#fff;fill-opacity:1;fill-rule:nonzero;stroke:none"
             d="m 0,0 3.379,-15.305 c 0.24,-1.081 -0.205,-2.608 -0.988,-3.39 l -1.93,-1.928 c -0.781,-0.782 -2.066,-0.782 -2.848,0 l -1.894,1.896 c -0.782,0.783 -1.225,2.309 -0.983,3.389 l 3.438,15.34 c -13.125,-0.464 -23.637,-11.17 -23.75,-24.385 h 0.158 c -0.221,-2.225 1.357,-3.836 4.131,-3.836 h 40.68 c 2.779,0 4.357,1.611 4.134,3.836 h 0.159 C 23.578,-11.191 13.096,-0.5 0,0" /></g></g></g></g></svg>