<?xml version="1.0" encoding="UTF-8" standalone="no"?>
<svg
   xmlns:dc="http://purl.org/dc/elements/1.1/"
   xmlns:cc="http://creativecommons.org/ns#"
   xmlns:rdf="http://www.w3.org/1999/02/22-rdf-syntax-ns#"
   xmlns:svg="http://www.w3.org/2000/svg"
   xmlns="http://www.w3.org/2000/svg"
   viewBox="0 0 65.666664 65.664001"
   height="65.664001"
   width="65.666664"
   xml:space="preserve"
   id="svg2"
   version="1.1"><metadata
     id="metadata8"><rdf:RDF><cc:Work
         rdf:about=""><dc:format>image/svg+xml</dc:format><dc:type
           rdf:resource="http://purl.org/dc/dcmitype/StillImage" /></cc:Work></rdf:RDF></metadata><defs
     id="defs6"><clipPath
       id="clipPath18"
       clipPathUnits="userSpaceOnUse"><path
         id="path16"
         d="M 0,49.248 H 49.25 V 0 H 0 Z" /></clipPath></defs><g
     transform="matrix(1.3333333,0,0,-1.3333333,0,65.664)"
     id="g10"><g
       id="g12"><g
         clip-path="url(#clipPath18)"
         id="g14"><g
           transform="translate(31.1435,24.7265)"
           id="g20"><path
             id="path22"
             style="fill:#fff;fill-opacity:1;fill-rule:nonzero;stroke:none"
             d="m 0,0 h -4.264 v -15.207 h -6.321 V 0 h -3.005 v 5.369 h 3.005 v 3.479 c 0,2.49 1.183,6.377 6.379,6.377 l 4.68,-0.018 V 9.992 h -3.399 c -0.553,0 -1.339,-0.277 -1.339,-1.461 V 5.369 h 4.818 z m -6.518,24.521 c -13.6,0 -24.625,-11.027 -24.625,-24.625 0,-13.599 11.025,-24.623 24.625,-24.623 13.599,0 24.625,11.024 24.625,24.623 0,13.598 -11.026,24.625 -24.625,24.625" /></g></g></g></g></svg>