<?xml version="1.0" encoding="UTF-8" standalone="no"?>
<svg
   xmlns:dc="http://purl.org/dc/elements/1.1/"
   xmlns:cc="http://creativecommons.org/ns#"
   xmlns:rdf="http://www.w3.org/1999/02/22-rdf-syntax-ns#"
   xmlns:svg="http://www.w3.org/2000/svg"
   xmlns="http://www.w3.org/2000/svg"
   viewBox="0 0 64.957069 82.897736"
   height="82.897736"
   width="64.957069"
   xml:space="preserve"
   id="svg2"
   version="1.1"><metadata
     id="metadata8"><rdf:RDF><cc:Work
         rdf:about=""><dc:format>image/svg+xml</dc:format><dc:type
           rdf:resource="http://purl.org/dc/dcmitype/StillImage" /></cc:Work></rdf:RDF></metadata><defs
     id="defs6"><clipPath
       id="clipPath18"
       clipPathUnits="userSpaceOnUse"><path
         id="path16"
         d="M 0,62.173 H 48.718 V 0 H 0 Z" /></clipPath></defs><g
     transform="matrix(1.3333333,0,0,-1.3333333,0,82.897733)"
     id="g10"><g
       id="g12"><g
         clip-path="url(#clipPath18)"
         id="g14"><g
           transform="translate(9.7764,53.2822)"
           id="g20"><path
             id="path22"
             style="fill:#92278f;fill-opacity:1;fill-rule:nonzero;stroke:none"
             d="m 0,0 c -0.779,0 -1.417,-0.638 -1.417,-1.417 v -10.437 c 0,-0.779 0.638,-1.417 1.417,-1.417 h 30.006 c 0.779,0 1.417,0.638 1.417,1.417 v 1.95 l -4.302,0.066 c -4.251,0.09 -7.584,3.464 -7.607,7.683 l 0,2.155 z" /></g><g
           transform="translate(40.1533,31.2705)"
           id="g24"><path
             id="path26"
             style="fill:#92278f;fill-opacity:1;fill-rule:nonzero;stroke:none"
             d="m 0,0 h -30.954 c -0.717,0 -1.301,-0.58 -1.301,-1.293 0,-0.711 0.584,-1.29 1.301,-1.29 H 0 c 0.717,0 1.3,0.579 1.3,1.29 C 1.3,-0.58 0.717,0 0,0" /></g><g
           transform="translate(46.1104,3.7915)"
           id="g28"><path
             id="path30"
             style="fill:#92278f;fill-opacity:1;fill-rule:nonzero;stroke:none"
             d="M 0,0 C 0,-0.65 -0.554,-1.203 -1.208,-1.208 H -42.29 c -0.658,0.005 -1.212,0.558 -1.212,1.208 v 54.591 c 0,0.653 0.554,1.207 1.21,1.211 h 28.135 c 0.658,-0.004 1.212,-0.558 1.212,-1.211 v -7.236 c 0.011,-2.101 1.678,-3.783 3.795,-3.828 l 7.919,-0.123 c 0.314,0 0.634,-0.14 0.873,-0.385 C -0.122,42.777 0.008,42.458 0,42.144 Z m -10.343,52.786 6.981,-6.767 -5.749,0.09 c -0.309,0 -0.625,0.139 -0.864,0.38 -0.238,0.241 -0.372,0.559 -0.368,0.871 z M 2.607,0.001 v 42.153 c -0.004,0.517 -0.108,1.015 -0.306,1.477 l -0.029,0.115 c -0.027,0.298 -0.156,0.569 -0.374,0.783 l -13.58,13.169 c -0.235,0.23 -0.549,0.359 -0.885,0.366 l -0.135,0.029 c -0.466,0.191 -0.955,0.288 -1.456,0.289 H -42.29 c -2.098,-0.007 -3.812,-1.708 -3.82,-3.793 V 0 c 0.008,-2.08 1.723,-3.782 3.822,-3.792 h 41.075 c 2.102,0.01 3.816,1.711 3.82,3.793" /></g><g
           transform="translate(40.1533,23.1143)"
           id="g32"><path
             id="path34"
             style="fill:#92278f;fill-opacity:1;fill-rule:nonzero;stroke:none"
             d="m 0,0 h -30.954 c -0.717,0 -1.301,-0.58 -1.301,-1.292 0,-0.71 0.584,-1.289 1.301,-1.289 H 0 c 0.717,0 1.3,0.579 1.3,1.289 C 1.3,-0.58 0.717,0 0,0" /></g><g
           transform="translate(9.1992,13.0073)"
           id="g36"><path
             id="path38"
             style="fill:#92278f;fill-opacity:1;fill-rule:nonzero;stroke:none"
             d="m 0,0 h 30.954 c 0.717,0 1.3,0.579 1.3,1.29 0,0.713 -0.583,1.294 -1.3,1.294 H 0 C -0.717,2.584 -1.301,2.003 -1.301,1.29 -1.301,0.579 -0.717,0 0,0" /></g></g></g></g></svg>