<?xml version="1.0" encoding="UTF-8" standalone="no"?>
<svg
   xmlns:dc="http://purl.org/dc/elements/1.1/"
   xmlns:cc="http://creativecommons.org/ns#"
   xmlns:rdf="http://www.w3.org/1999/02/22-rdf-syntax-ns#"
   xmlns:svg="http://www.w3.org/2000/svg"
   xmlns="http://www.w3.org/2000/svg"
   viewBox="0 0 65.665337 65.664001"
   height="65.664001"
   width="65.665337"
   xml:space="preserve"
   id="svg2"
   version="1.1"><metadata
     id="metadata8"><rdf:RDF><cc:Work
         rdf:about=""><dc:format>image/svg+xml</dc:format><dc:type
           rdf:resource="http://purl.org/dc/dcmitype/StillImage" /></cc:Work></rdf:RDF></metadata><defs
     id="defs6"><clipPath
       id="clipPath18"
       clipPathUnits="userSpaceOnUse"><path
         id="path16"
         d="M 0,49.248 H 49.249 V 0 H 0 Z" /></clipPath></defs><g
     transform="matrix(1.3333333,0,0,-1.3333333,0,65.664)"
     id="g10"><g
       id="g12"><g
         clip-path="url(#clipPath18)"
         id="g14"><g
           transform="translate(20.04,26.4453)"
           id="g20"><path
             id="path22"
             style="fill:#fff;fill-opacity:1;fill-rule:nonzero;stroke:none"
             d="M 0,0 C 0.629,0 1.159,0.248 1.569,0.717 2.214,1.45 2.498,2.653 2.33,3.933 2.029,6.219 0.398,8.117 -1.307,8.168 L -1.375,8.169 C -1.979,8.169 -2.517,7.922 -2.927,7.453 -3.563,6.729 -3.83,5.582 -3.662,4.307 -3.363,2.023 -1.698,0.051 -0.028,0 Z" /></g><g
           transform="translate(21.9004,19.5596)"
           id="g24"><path
             id="path26"
             style="fill:#fff;fill-opacity:1;fill-rule:nonzero;stroke:none"
             d="m 0,0 c -0.167,0.113 -0.342,0.232 -0.521,0.355 -0.526,0.162 -1.083,0.247 -1.655,0.253 h -0.071 c -2.625,0 -4.929,-1.59 -4.929,-3.405 0,-1.972 1.972,-3.517 4.491,-3.517 3.323,0 5.006,1.144 5.006,3.404 0,0.214 -0.026,0.434 -0.077,0.655 C 2.02,-1.376 1.216,-0.829 0,0" /></g><g
           transform="translate(39.8076,24.458)"
           id="g28"><path
             id="path30"
             style="fill:#fff;fill-opacity:1;fill-rule:nonzero;stroke:none"
             d="m 0,0 c 0,-0.335 -0.273,-0.606 -0.607,-0.606 h -4.384 v -4.385 c 0,-0.335 -0.272,-0.607 -0.607,-0.607 h -1.248 c -0.336,0 -0.607,0.272 -0.607,0.607 v 4.385 h -4.385 c -0.333,0 -0.605,0.271 -0.605,0.606 v 1.249 c 0,0.334 0.272,0.607 0.605,0.607 h 4.385 v 4.383 c 0,0.336 0.271,0.608 0.607,0.608 h 1.248 c 0.335,0 0.607,-0.272 0.607,-0.608 V 1.856 h 4.384 C -0.273,1.856 0,1.583 0,1.249 Z m -17.423,-13.231 c -0.981,-0.284 -2.041,-0.428 -3.154,-0.428 -1.237,0 -2.43,0.142 -3.539,0.424 -2.151,0.542 -3.741,1.571 -4.482,2.895 -0.319,0.573 -0.482,1.184 -0.482,1.817 0,0.652 0.157,1.312 0.464,1.965 1.178,2.511 4.283,4.198 7.721,4.198 0.036,0 0.068,0 0.1,10e-4 -0.28,0.491 -0.416,1.001 -0.416,1.536 0,0.268 0.035,0.54 0.106,0.815 -3.608,0.084 -6.307,2.725 -6.307,6.207 0,2.46 1.966,4.855 4.776,5.824 0.842,0.29 1.7,0.439 2.544,0.439 h 7.713 c 0.263,0 0.494,-0.17 0.576,-0.42 0.083,-0.251 -0.008,-0.524 -0.221,-0.679 l -1.724,-1.248 C -13.852,10.04 -13.977,10 -14.105,10 h -0.618 c 0.798,-0.956 1.266,-2.316 1.266,-3.849 0,-1.69 -0.856,-3.289 -2.41,-4.505 -1.202,-0.936 -1.25,-1.192 -1.25,-1.729 0.015,-0.294 0.853,-1.252 1.775,-1.904 2.153,-1.523 2.952,-3.014 2.952,-5.507 0,-2.599 -1.975,-4.85 -5.033,-5.737 m 2.24,38.021 c -13.599,0 -24.625,-11.023 -24.625,-24.623 0,-13.6 11.026,-24.625 24.625,-24.625 13.599,0 24.624,11.025 24.624,24.625 0,13.6 -11.025,24.623 -24.624,24.623" /></g></g></g></g></svg>