<?xml version="1.0" encoding="UTF-8" standalone="no"?>
<svg
   xmlns:dc="http://purl.org/dc/elements/1.1/"
   xmlns:cc="http://creativecommons.org/ns#"
   xmlns:rdf="http://www.w3.org/1999/02/22-rdf-syntax-ns#"
   xmlns:svg="http://www.w3.org/2000/svg"
   xmlns="http://www.w3.org/2000/svg"
   viewBox="0 0 275.20001 71.588531"
   height="71.588531"
   width="275.20001"
   xml:space="preserve"
   id="svg2"
   version="1.1"><metadata
     id="metadata8"><rdf:RDF><cc:Work
         rdf:about=""><dc:format>image/svg+xml</dc:format><dc:type
           rdf:resource="http://purl.org/dc/dcmitype/StillImage" /></cc:Work></rdf:RDF></metadata><defs
     id="defs6"><clipPath
       id="clipPath18"
       clipPathUnits="userSpaceOnUse"><path
         id="path16"
         d="M 0,53.691 H 206.4 V 0 H 0 Z" /></clipPath></defs><g
     transform="matrix(1.3333333,0,0,-1.3333333,0,71.588533)"
     id="g10"><g
       id="g12"><g
         clip-path="url(#clipPath18)"
         id="g14"><g
           transform="translate(158.1808,10.166)"
           id="g20"><path
             id="path22"
             style="fill:#fff;fill-opacity:1;fill-rule:nonzero;stroke:none"
             d="m 0,0 c -1.806,0 -3.451,0.451 -5.031,1.382 -1.586,0.932 -2.82,2.208 -3.771,3.903 -0.96,1.708 -1.427,3.437 -1.427,5.285 0,1.868 0.461,3.596 1.411,5.284 0.939,1.668 2.156,2.923 3.726,3.833 1.576,0.917 3.252,1.361 5.123,1.361 2.912,0 5.289,-0.982 7.266,-2.998 1.995,-2.036 2.965,-4.523 2.965,-7.603 C 10.262,8.41 9.83,6.65 8.941,5.065 8.071,3.515 6.855,2.314 5.222,1.395 3.557,0.457 1.849,0 0,0 m 17.34,30.532 h -4.268 c -1.377,0 -2.544,-0.901 -2.941,-2.145 -0.494,0.323 -0.999,0.623 -1.517,0.893 -2.675,1.406 -5.681,2.118 -8.938,2.118 -5.617,0 -10.489,-2.046 -14.477,-6.084 -3.978,-4.026 -5.996,-8.94 -5.996,-14.605 0,-5.761 1.998,-10.729 5.937,-14.763 3.958,-4.055 8.807,-6.112 14.413,-6.112 3.147,0 6.099,0.67 8.775,1.988 0.614,0.304 1.217,0.643 1.805,1.016 0.402,-1.24 1.564,-2.138 2.939,-2.138 h 4.268 c 1.705,0 3.088,1.382 3.088,3.087 v 33.658 c 0,1.705 -1.383,3.087 -3.088,3.087" /></g><g
           transform="translate(68.5685,31.4609)"
           id="g24"><path
             id="path26"
             style="fill:#fff;fill-opacity:1;fill-rule:nonzero;stroke:none"
             d="m 0,0 c 1.781,0 3.412,-0.452 4.991,-1.383 1.583,-0.932 2.816,-2.211 3.766,-3.906 0.96,-1.713 1.428,-3.455 1.428,-5.328 0,-1.871 -0.463,-3.604 -1.411,-5.295 -0.936,-1.67 -2.155,-2.926 -3.72,-3.838 -1.573,-0.915 -3.246,-1.359 -5.116,-1.359 -2.907,0 -5.278,0.98 -7.252,3 -1.994,2.037 -2.961,4.529 -2.961,7.617 0,2.041 0.431,3.802 1.319,5.39 0.87,1.555 2.091,2.762 3.735,3.694 C -3.549,-0.461 -1.841,0 0,0 m 0.42,10.104 c -3.143,0 -6.086,-0.665 -8.748,-1.972 C -8.885,7.858 -9.432,7.555 -9.966,7.223 v 11.92 c 0,1.705 -1.382,3.087 -3.088,3.087 h -4.331 c -1.706,0 -3.088,-1.382 -3.088,-3.087 v -46.651 c 0,-1.705 1.382,-3.087 3.088,-3.087 h 4.331 c 1.38,0 2.548,0.905 2.944,2.154 0.494,-0.327 0.999,-0.625 1.516,-0.899 2.664,-1.408 5.655,-2.121 8.889,-2.121 5.615,0 10.483,2.047 14.469,6.084 3.971,4.026 5.989,8.951 5.989,14.636 0,5.739 -1.996,10.696 -5.933,14.731 -3.955,4.057 -8.8,6.114 -14.4,6.114" /></g><g
           transform="translate(113.5597,31.4609)"
           id="g28"><path
             id="path30"
             style="fill:#fff;fill-opacity:1;fill-rule:nonzero;stroke:none"
             d="m 0,0 c 1.78,0 3.411,-0.452 4.991,-1.383 1.581,-0.932 2.815,-2.211 3.765,-3.906 0.96,-1.713 1.428,-3.455 1.428,-5.328 0,-1.871 -0.463,-3.604 -1.411,-5.295 -0.936,-1.67 -2.154,-2.926 -3.719,-3.838 -1.573,-0.915 -3.247,-1.359 -5.116,-1.359 -2.908,0 -5.278,0.98 -7.253,3 -1.994,2.037 -2.963,4.529 -2.963,7.617 0,2.039 0.432,3.802 1.319,5.388 0.872,1.556 2.095,2.764 3.739,3.696 C -3.55,-0.461 -1.843,0 0,0 m 0.42,10.104 c -3.144,0 -6.089,-0.665 -8.749,-1.972 C -8.887,7.858 -9.434,7.555 -9.967,7.223 v 11.92 c 0,1.705 -1.382,3.087 -3.087,3.087 h -4.333 c -1.705,0 -3.087,-1.382 -3.087,-3.087 v -46.651 c 0,-1.705 1.382,-3.087 3.087,-3.087 h 4.333 c 1.38,0 2.547,0.905 2.943,2.154 0.494,-0.327 0.998,-0.625 1.517,-0.899 2.662,-1.408 5.654,-2.121 8.888,-2.121 5.616,0 10.483,2.047 14.468,6.084 3.972,4.026 5.989,8.951 5.989,14.636 0,5.739 -1.994,10.696 -5.931,14.731 -3.956,4.057 -8.801,6.114 -14.4,6.114" /></g><g
           transform="translate(206.3029,38.1035)"
           id="g32"><path
             id="path34"
             style="fill:#fff;fill-opacity:1;fill-rule:nonzero;stroke:none"
             d="m 0,0 c -0.212,0.815 -0.745,1.51 -1.479,1.921 -4.134,2.319 -8.102,1.901 -11.617,-0.403 -0.03,-0.02 -0.062,-0.039 -0.093,-0.06 -0.565,0.693 -1.428,1.137 -2.393,1.137 h -4.424 c -1.705,0 -3.087,-1.382 -3.087,-3.087 V -34.15 c 0,-1.705 1.382,-3.087 3.087,-3.087 h 4.424 c 1.705,0 3.088,1.382 3.088,3.087 v 11.384 c 0,7.251 0.434,9.878 0.691,10.798 0.527,1.875 1.265,3.273 2.133,4.042 1.136,1.005 1.887,1.005 2.13,1.005 0.005,0 0.318,-0.012 1.071,-0.336 1.405,-0.604 3.041,-0.089 3.847,1.212 l 2.258,3.65 C 0.077,-1.68 0.21,-0.814 0,0" /></g><g
           transform="translate(39.8634,38.7832)"
           id="g36"><path
             id="path38"
             style="fill:#fff;fill-opacity:1;fill-rule:nonzero;stroke:none"
             d="M 0,0 H -4.332 C -6.037,0 -7.42,-1.382 -7.42,-3.087 v -30.65 -1.093 c 0,-1.705 1.383,-3.087 3.088,-3.087 H 0 c 1.705,0 3.088,1.382 3.088,3.087 v 30.65 1.093 C 3.088,-1.382 1.706,0 0,0" /></g><g
           transform="translate(42.714,46.3681)"
           id="g40"><path
             id="path42"
             style="fill:#fff;fill-opacity:1;fill-rule:nonzero;stroke:none"
             d="m 0,0 c 0,-2.831 -2.294,-5.125 -5.125,-5.125 -2.831,0 -5.125,2.294 -5.125,5.125 0,2.831 2.294,5.125 5.125,5.125 C -2.294,5.125 0,2.831 0,0" /></g><g
           transform="translate(24.8238,52.956)"
           id="g44"><path
             id="path46"
             style="fill:#fff;fill-opacity:1;fill-rule:nonzero;stroke:none"
             d="m 0,0 h -4.443 c -1.657,0 -3,-1.354 -3,-3.025 v -30.118 c 0,-4.545 -0.331,-6.06 -0.474,-6.5 -0.22,-0.682 -0.571,-1.184 -1.106,-1.582 -0.978,-0.724 -2.098,-0.752 -3.465,-0.147 -1.343,0.586 -3.11,1.654 -5.253,3.174 -0.661,0.469 -1.484,0.648 -2.277,0.5 -0.795,-0.151 -1.496,-0.618 -1.945,-1.296 l -2.357,-3.567 c -0.852,-1.29 -0.601,-3.02 0.582,-4.009 2.38,-1.989 4.536,-3.357 6.591,-4.183 2.09,-0.841 4.249,-1.267 6.417,-1.267 2.952,0 5.543,0.71 7.7,2.112 2.201,1.429 3.797,3.377 4.746,5.788 C 2.592,-41.893 3,-38.453 3,-33.296 V -3.025 C 3,-1.354 1.657,0 0,0" /></g></g></g></g></svg>