<?xml version="1.0" encoding="UTF-8" standalone="no"?>
<svg
   xmlns:dc="http://purl.org/dc/elements/1.1/"
   xmlns:cc="http://creativecommons.org/ns#"
   xmlns:rdf="http://www.w3.org/1999/02/22-rdf-syntax-ns#"
   xmlns:svg="http://www.w3.org/2000/svg"
   xmlns="http://www.w3.org/2000/svg"
   viewBox="0 0 26.153601 45.313866"
   height="45.313866"
   width="26.153601"
   xml:space="preserve"
   id="svg2"
   version="1.1"><metadata
     id="metadata8"><rdf:RDF><cc:Work
         rdf:about=""><dc:format>image/svg+xml</dc:format><dc:type
           rdf:resource="http://purl.org/dc/dcmitype/StillImage" /></cc:Work></rdf:RDF></metadata><defs
     id="defs6"><clipPath
       id="clipPath18"
       clipPathUnits="userSpaceOnUse"><path
         id="path16"
         d="M 0,33.985 H 19.615 V 0 H 0 Z" /></clipPath></defs><g
     transform="matrix(1.3333333,0,0,-1.3333333,0,45.313867)"
     id="g10"><g
       id="g12"><g
         clip-path="url(#clipPath18)"
         id="g14"><g
           transform="translate(17.3442,6.082)"
           id="g20"><path
             id="path22"
             style="fill:#abbacc;fill-opacity:1;fill-rule:nonzero;stroke:none"
             d="m 0,0 c 0,-0.675 -0.552,-1.225 -1.227,-1.225 h -12.619 c -0.675,0 -1.228,0.55 -1.228,1.225 v 22.034 c 0,0.675 0.553,1.225 1.228,1.225 H -1.227 C -0.552,23.259 0,22.709 0,22.034 Z m -7.537,-5.272 c -0.855,0 -1.546,0.693 -1.546,1.546 0,0.854 0.691,1.546 1.546,1.546 0.853,0 1.546,-0.692 1.546,-1.546 0,-0.853 -0.693,-1.546 -1.546,-1.546 m -1.816,30.238 h 3.632 v -0.433 h -3.632 z m 1.816,1.75 c 0.348,0 0.627,-0.28 0.627,-0.626 0,-0.346 -0.279,-0.626 -0.627,-0.626 -0.346,0 -0.627,0.28 -0.627,0.626 0,0.346 0.281,0.626 0.627,0.626 m 8.275,1.187 h -16.549 c -0.842,0 -1.533,-0.69 -1.533,-1.532 v -30.92 c 0,-0.845 0.691,-1.533 1.533,-1.533 H 0.738 c 0.842,0 1.533,0.688 1.533,1.533 v 30.92 c 0,0.842 -0.691,1.532 -1.533,1.532" /></g></g></g></g></svg>