<?xml version="1.0" encoding="UTF-8" standalone="no"?>
<svg
   xmlns:dc="http://purl.org/dc/elements/1.1/"
   xmlns:cc="http://creativecommons.org/ns#"
   xmlns:rdf="http://www.w3.org/1999/02/22-rdf-syntax-ns#"
   xmlns:svg="http://www.w3.org/2000/svg"
   xmlns="http://www.w3.org/2000/svg"
   viewBox="0 0 79.973999 83.71093"
   height="83.71093"
   width="79.973999"
   xml:space="preserve"
   id="svg2"
   version="1.1"><metadata
     id="metadata8"><rdf:RDF><cc:Work
         rdf:about=""><dc:format>image/svg+xml</dc:format><dc:type
           rdf:resource="http://purl.org/dc/dcmitype/StillImage" /></cc:Work></rdf:RDF></metadata><defs
     id="defs6"><clipPath
       id="clipPath18"
       clipPathUnits="userSpaceOnUse"><path
         id="path16"
         d="M 0,62.783 H 59.98 V 0 H 0 Z" /></clipPath></defs><g
     transform="matrix(1.3333333,0,0,-1.3333333,0,83.710933)"
     id="g10"><g
       id="g12"><g
         clip-path="url(#clipPath18)"
         id="g14"><g
           transform="translate(10.333,31.2832)"
           id="g20"><path
             id="path22"
             style="fill:#abbacc;fill-opacity:1;fill-rule:nonzero;stroke:none"
             d="m 0,0 c 0,-1.104 -0.896,-2 -2,-2 h -6.333 c -1.105,0 -2,0.896 -2,2 0,1.104 0.895,2 2,2 H -2 C -0.896,2 0,1.104 0,0" /></g><g
           transform="translate(10.333,50.2832)"
           id="g24"><path
             id="path26"
             style="fill:#abbacc;fill-opacity:1;fill-rule:nonzero;stroke:none"
             d="m 0,0 c 0,-1.104 -0.896,-2 -2,-2 h -6.333 c -1.105,0 -2,0.896 -2,2 0,1.104 0.895,2 2,2 H -2 C -0.896,2 0,1.104 0,0" /></g><g
           transform="translate(10.333,12.167)"
           id="g28"><path
             id="path30"
             style="fill:#abbacc;fill-opacity:1;fill-rule:nonzero;stroke:none"
             d="m 0,0 c 0,-1.104 -0.896,-2 -2,-2 h -6.333 c -1.105,0 -2,0.896 -2,2 0,1.104 0.895,2 2,2 H -2 C -0.896,2 0,1.104 0,0" /></g><g
           transform="translate(48.3926,16.0435)"
           id="g32"><path
             id="path34"
             style="fill:#abbacc;fill-opacity:1;fill-rule:nonzero;stroke:none"
             d="m 0,0 c 0.128,-1.31 -0.8,-2.258 -2.432,-2.258 h -23.939 c -1.634,0 -2.56,0.948 -2.433,2.258 h -0.091 c 0.065,7.95 6.529,14.375 14.493,14.375 C -6.438,14.375 0.025,7.95 0.092,0 Z m -14.402,30.959 c 3.901,0 7.062,-3.162 7.062,-7.063 0,-3.901 -3.161,-7.062 -7.062,-7.062 -3.9,0 -7.062,3.161 -7.062,7.062 0,3.901 3.162,7.063 7.062,7.063 M 5.588,46.74 h -42.647 c -3.308,0 -6,-2.692 -6,-6 v -2.5 h 2.999 c 2.209,0 4,-1.791 4,-4 0,-2.209 -1.791,-4 -4,-4 h -2.999 V 21.624 19.24 19.124 h 2.999 c 2.19,0 3.962,-1.761 3.995,-3.942 C -36.098,13 -37.87,11.24 -40.06,11.24 h -2.999 V 11.124 9.073 0.124 h 2.999 c 2.209,0 4,-1.791 4,-4 0,-2.209 -1.791,-4 -4,-4 h -2.999 v -2.167 c 0,-3.309 2.692,-6 6,-6 H 5.588 c 3.308,0 6,2.691 6,6 V 9.073 21.624 40.74 c 0,3.308 -2.692,6 -6,6" /></g></g></g></g></svg>