<?xml version="1.0" encoding="UTF-8" standalone="no"?>
<svg
   xmlns:dc="http://purl.org/dc/elements/1.1/"
   xmlns:cc="http://creativecommons.org/ns#"
   xmlns:rdf="http://www.w3.org/1999/02/22-rdf-syntax-ns#"
   xmlns:svg="http://www.w3.org/2000/svg"
   xmlns="http://www.w3.org/2000/svg"
   viewBox="0 0 97.739601 97.735069"
   height="97.735069"
   width="97.739601"
   xml:space="preserve"
   id="svg2"
   version="1.1"><metadata
     id="metadata8"><rdf:RDF><cc:Work
         rdf:about=""><dc:format>image/svg+xml</dc:format><dc:type
           rdf:resource="http://purl.org/dc/dcmitype/StillImage" /></cc:Work></rdf:RDF></metadata><defs
     id="defs6"><clipPath
       id="clipPath18"
       clipPathUnits="userSpaceOnUse"><path
         id="path16"
         d="M 0,73.301 H 73.305 V 0 H 0 Z" /></clipPath></defs><g
     transform="matrix(1.3333333,0,0,-1.3333333,0,97.735067)"
     id="g10"><g
       id="g12"><g
         clip-path="url(#clipPath18)"
         id="g14"><g
           transform="translate(51.9404,31.3535)"
           id="g20"><path
             id="path22"
             style="fill:none;stroke:#93278f;stroke-width:1.29999995;stroke-linecap:round;stroke-linejoin:round;stroke-miterlimit:4;stroke-dasharray:none;stroke-opacity:1"
             d="m 0,0 -9.56,5.767 c 0.081,0.386 0.124,0.789 0.124,1.201 0,2.636 -1.741,4.865 -4.139,5.597 v 17.709 c 0,0.947 -0.769,1.714 -1.715,1.714 -0.945,0 -1.711,-0.767 -1.711,-1.714 V 12.565 c -2.398,-0.732 -4.14,-2.961 -4.14,-5.597 0,-3.232 2.62,-5.853 5.853,-5.853 1.58,0 3.014,0.631 4.068,1.65 l 9.451,-5.701 c 0.277,-0.166 0.582,-0.246 0.884,-0.246 0.582,0 1.149,0.295 1.469,0.83 C 1.073,-1.542 0.814,-0.489 0,0 Z m 13.134,-10.605 c -1.469,-2.619 -3.283,-5.02 -5.393,-7.131 -1.624,-1.622 -3.423,-3.068 -5.358,-4.322 l -2.502,4.332 c -0.476,-0.314 -0.965,-0.611 -1.46,-0.898 l 2.499,-4.329 c -4.53,-2.604 -9.745,-4.148 -15.316,-4.299 v 4.999 c -0.296,-0.01 -0.594,-0.023 -0.892,-0.023 -0.275,0 -0.547,0.011 -0.82,0.021 v -4.997 c -5.577,0.136 -10.796,1.671 -15.334,4.269 l 2.499,4.329 c -0.499,0.283 -0.987,0.583 -1.463,0.897 l -2.502,-4.334 c -1.955,1.26 -3.775,2.716 -5.411,4.355 -2.102,2.102 -3.91,4.494 -5.377,7.1 l 4.33,2.5 c -0.279,0.497 -0.548,1.003 -0.793,1.519 l -4.339,-2.504 c -2.15,4.345 -3.362,9.236 -3.365,14.417 0,0.209 0.014,0.414 0.016,0.619 h 5.002 c 0.012,0.576 0.043,1.149 0.09,1.715 h -5.014 c 0.37,5.215 1.958,10.086 4.495,14.333 l 4.331,-2.5 c 0.294,0.491 0.605,0.971 0.927,1.442 l -4.341,2.51 c 1.184,1.767 2.537,3.414 4.038,4.913 1.985,1.986 4.229,3.709 6.669,5.129 l 2.499,-4.33 c 0.495,0.29 0.998,0.561 1.509,0.818 l -2.502,4.336 c 4.225,2.17 8.983,3.441 14.036,3.566 v -4.999 c 0.273,0.007 0.545,0.021 0.82,0.021 0.298,0 0.596,-0.014 0.892,-0.023 v 5.001 c 5.047,-0.139 9.801,-1.418 14.02,-3.593 l -2.507,-4.338 c 0.514,-0.258 1.017,-0.529 1.509,-0.818 l 2.499,4.33 c 2.42,-1.416 4.646,-3.127 6.616,-5.1 1.511,-1.507 2.867,-3.165 4.058,-4.945 l -4.34,-2.508 c 0.322,-0.47 0.631,-0.951 0.925,-1.443 l 4.33,2.5 c 2.525,-4.24 4.107,-9.099 4.474,-14.302 h -5.009 c 0.047,-0.566 0.076,-1.139 0.089,-1.715 h 5 c 0.003,-0.205 0.014,-0.41 0.014,-0.619 0,-5.168 -1.207,-10.046 -3.345,-14.384 l -4.34,2.504 C 9.352,-7.102 9.084,-7.61 8.806,-8.107 Z M -15.29,41.298 c -19.882,-0.002 -35.998,-16.12 -36,-36.002 0.002,-19.883 16.118,-36 36,-36 19.886,0 36.002,16.117 36.004,36 -0.002,19.882 -16.118,36 -36.004,36.002 z" /></g></g></g></g></svg>