<?xml version="1.0" encoding="UTF-8" standalone="no"?>
<svg
   xmlns:dc="http://purl.org/dc/elements/1.1/"
   xmlns:cc="http://creativecommons.org/ns#"
   xmlns:rdf="http://www.w3.org/1999/02/22-rdf-syntax-ns#"
   xmlns:svg="http://www.w3.org/2000/svg"
   xmlns="http://www.w3.org/2000/svg"
   viewBox="0 0 27.315067 31.301468"
   height="31.301468"
   width="27.315067"
   xml:space="preserve"
   id="svg2"
   version="1.1"><metadata
     id="metadata8"><rdf:RDF><cc:Work
         rdf:about=""><dc:format>image/svg+xml</dc:format><dc:type
           rdf:resource="http://purl.org/dc/dcmitype/StillImage" /></cc:Work></rdf:RDF></metadata><defs
     id="defs6"><clipPath
       id="clipPath18"
       clipPathUnits="userSpaceOnUse"><path
         id="path16"
         d="M 0,23.476 H 20.486 V 0 H 0 Z" /></clipPath></defs><g
     transform="matrix(1.3333333,0,0,-1.3333333,0,31.301467)"
     id="g10"><g
       id="g12"><g
         clip-path="url(#clipPath18)"
         id="g14"><g
           transform="translate(15.2344,18.4844)"
           id="g20"><path
             id="path22"
             style="fill:#abbacc;fill-opacity:1;fill-rule:nonzero;stroke:none"
             d="m 0,0 c 0,-2.757 -2.234,-4.991 -4.992,-4.991 -2.756,0 -4.99,2.234 -4.99,4.991 0,2.757 2.234,4.992 4.99,4.992 C -2.234,4.992 0,2.757 0,0" /></g><g
           transform="translate(20.4863,1.5957)"
           id="g24"><path
             id="path26"
             style="fill:#abbacc;fill-opacity:1;fill-rule:nonzero;stroke:none"
             d="M 0,0 C -0.047,5.619 -4.614,10.159 -10.244,10.159 -15.872,10.159 -20.44,5.619 -20.486,0 h 0.064 c -0.09,-0.926 0.565,-1.596 1.719,-1.596 h 16.92 c 1.153,0 1.808,0.67 1.719,1.596 z" /></g></g></g></g></svg>