<?xml version="1.0" encoding="UTF-8" standalone="no"?>
<svg
   xmlns:dc="http://purl.org/dc/elements/1.1/"
   xmlns:cc="http://creativecommons.org/ns#"
   xmlns:rdf="http://www.w3.org/1999/02/22-rdf-syntax-ns#"
   xmlns:svg="http://www.w3.org/2000/svg"
   xmlns="http://www.w3.org/2000/svg"
   viewBox="0 0 76.976532 74.986267"
   height="74.986267"
   width="76.976532"
   xml:space="preserve"
   id="svg2"
   version="1.1"><metadata
     id="metadata8"><rdf:RDF><cc:Work
         rdf:about=""><dc:format>image/svg+xml</dc:format><dc:type
           rdf:resource="http://purl.org/dc/dcmitype/StillImage" /></cc:Work></rdf:RDF></metadata><defs
     id="defs6"><clipPath
       id="clipPath18"
       clipPathUnits="userSpaceOnUse"><path
         id="path16"
         d="M 0,56.24 H 57.732 V 0 H 0 Z" /></clipPath></defs><g
     transform="matrix(1.3333333,0,0,-1.3333333,0,74.986267)"
     id="g10"><g
       id="g12"><g
         clip-path="url(#clipPath18)"
         id="g14"><g
           transform="translate(24.625,54.96)"
           id="g20"><path
             id="path22"
             style="fill:#93278f;fill-opacity:1;fill-rule:nonzero;stroke:none"
             d="m 0,0 c -6.091,0 -11.047,-4.955 -11.047,-11.045 0,-6.091 4.956,-11.047 11.047,-11.047 6.091,0 11.045,4.956 11.045,11.047 C 11.045,-4.955 6.091,0 0,0 m 0,-23.371 c -6.797,0 -12.326,5.529 -12.326,12.326 0,6.796 5.529,12.325 12.326,12.325 6.797,0 12.325,-5.529 12.325,-12.325 0,-6.797 -5.528,-12.326 -12.325,-12.326" /></g><g
           transform="translate(47.8379,6.603)"
           id="g24"><path
             id="path26"
             style="fill:#93278f;fill-opacity:1;fill-rule:nonzero;stroke:none"
             d="M 0,0 C 0.063,-0.601 0.11,-1.206 0.126,-1.819 0.016,-1.95 -0.036,-2.12 -0.02,-2.292 0.061,-3.097 -0.148,-3.799 -0.62,-4.321 -1.206,-4.967 -2.195,-5.324 -3.404,-5.324 h -39.613 c -1.213,0 -2.205,0.357 -2.791,1.002 -0.472,0.521 -0.68,1.224 -0.601,2.031 0.016,0.169 -0.035,0.337 -0.142,0.468 0.328,12.576 10.714,22.739 23.338,22.739 4.458,0 8.634,-1.272 12.19,-3.465 0.178,0.391 0.377,0.77 0.595,1.138 -3.733,2.285 -8.113,3.606 -12.785,3.606 -13.461,0 -24.508,-10.953 -24.625,-24.418 -10e-4,-0.143 0.046,-0.282 0.132,-0.395 -10e-4,-0.992 0.323,-1.871 0.951,-2.563 0.844,-0.931 2.136,-1.422 3.738,-1.422 h 39.613 c 1.574,0 2.9,0.506 3.732,1.423 0.627,0.691 0.951,1.569 0.948,2.557 0.089,0.115 0.138,0.255 0.136,0.4 C 1.405,-1.458 1.359,-0.703 1.283,0.045 0.925,0.013 0.564,-0.01 0.198,-0.01 0.132,-0.01 0.066,-0.001 0,0" /></g><g
           transform="translate(36.9912,18.938)"
           id="g28"><path
             id="path30"
             style="fill:#93278f;fill-opacity:1;fill-rule:nonzero;stroke:none"
             d="M 0,0 C 0,1.563 0.33,3.048 0.918,4.396 0.56,4.646 0.195,4.887 -0.177,5.116 -0.892,3.555 -1.301,1.826 -1.301,0 c 0,-6.74 5.432,-12.228 12.148,-12.335 -0.046,0.439 -0.104,0.876 -0.174,1.309 C 4.755,-10.828 0,-5.965 0,0" /></g><g
           transform="translate(37.9092,23.3345)"
           id="g32"><path
             id="path34"
             style="fill:#93278f;fill-opacity:1;fill-rule:nonzero;stroke:none"
             d="M 0,0 C 0.173,0.397 0.373,0.778 0.59,1.148 0.233,1.394 -0.129,1.631 -0.499,1.857 -0.717,1.489 -0.916,1.111 -1.095,0.72 -0.723,0.49 -0.358,0.25 0,0" /></g><g
           transform="translate(48.0361,7.8926)"
           id="g36"><path
             id="path38"
             style="fill:#93278f;fill-opacity:1;fill-rule:nonzero;stroke:none"
             d="m 0,0 c -0.126,0 -0.247,0.015 -0.372,0.019 0.07,-0.433 0.128,-0.869 0.174,-1.309 0.066,-10e-4 0.132,-0.01 0.198,-0.01 0.366,0 0.727,0.024 1.085,0.055 C 1.041,-0.811 0.987,-0.38 0.921,0.047 0.617,0.021 0.311,0 0,0" /></g><g
           transform="translate(48.0361,27.3975)"
           id="g40"><path
             id="path42"
             style="fill:#93278f;fill-opacity:1;fill-rule:nonzero;stroke:none"
             d="m 0,0 c -4.664,0 -8.458,-3.795 -8.458,-8.459 0,-4.665 3.794,-8.46 8.458,-8.46 4.665,0 8.459,3.795 8.459,8.46 C 8.459,-3.795 4.665,0 0,0 m 0,-18.155 c -5.346,0 -9.695,4.35 -9.695,9.696 0,5.345 4.349,9.695 9.695,9.695 5.347,0 9.696,-4.35 9.696,-9.695 0,-5.346 -4.349,-9.696 -9.696,-9.696" /></g><g
           transform="translate(47.8896,24.5278)"
           id="g44"><path
             id="path46"
             style="fill:none;stroke:#93278f;stroke-width:1.29999995;stroke-linecap:round;stroke-linejoin:miter;stroke-miterlimit:4;stroke-dasharray:none;stroke-opacity:1"
             d="M 0,0 V -11.25" /></g><g
           transform="translate(42.2646,18.9028)"
           id="g48"><path
             id="path50"
             style="fill:none;stroke:#93278f;stroke-width:1.29999995;stroke-linecap:round;stroke-linejoin:miter;stroke-miterlimit:4;stroke-dasharray:none;stroke-opacity:1"
             d="M 0,0 H 11.25" /></g></g></g></g></svg>