<?xml version="1.0" encoding="UTF-8" standalone="no"?>
<svg
   xmlns:dc="http://purl.org/dc/elements/1.1/"
   xmlns:cc="http://creativecommons.org/ns#"
   xmlns:rdf="http://www.w3.org/1999/02/22-rdf-syntax-ns#"
   xmlns:svg="http://www.w3.org/2000/svg"
   xmlns="http://www.w3.org/2000/svg"
   viewBox="0 0 78.65107 75.072266"
   height="75.072266"
   width="78.65107"
   xml:space="preserve"
   id="svg2"
   version="1.1"><metadata
     id="metadata8"><rdf:RDF><cc:Work
         rdf:about=""><dc:format>image/svg+xml</dc:format><dc:type
           rdf:resource="http://purl.org/dc/dcmitype/StillImage" /></cc:Work></rdf:RDF></metadata><defs
     id="defs6"><clipPath
       id="clipPath18"
       clipPathUnits="userSpaceOnUse"><path
         id="path16"
         d="M 0,56.304 H 58.988 V 0 H 0 Z" /></clipPath></defs><g
     transform="matrix(1.3333333,0,0,-1.3333333,0,75.072267)"
     id="g10"><g
       id="g12"><g
         clip-path="url(#clipPath18)"
         id="g14"><g
           transform="translate(49.3965,40.4282)"
           id="g20"><path
             id="path22"
             style="fill:none;stroke:#93278f;stroke-width:1.29999995;stroke-linecap:round;stroke-linejoin:round;stroke-miterlimit:4;stroke-dasharray:none;stroke-opacity:1"
             d="M 0,0 -0.398,0.338 C -0.481,0.552 -0.616,0.75 -0.796,0.911 L -16.219,14.16 c -0.195,0.166 -0.419,0.271 -0.653,0.312 -1.642,1.202 -3.98,0.947 -5.324,-0.619 l -17.9,-20.834 c 0.015,-0.011 0.028,-0.026 0.044,-0.046 -0.106,-0.137 -0.19,-0.303 -0.243,-0.484 l -8.401,-30.483 c -0.146,-0.53 0.031,-1.097 0.439,-1.452 0.265,-0.218 0.593,-0.332 0.925,-0.332 0.192,0 0.391,0.037 0.574,0.12 l 28.864,12.905 c 0.316,0.141 0.554,0.379 0.697,0.67 0,-0.005 0.006,-0.005 0.006,-0.005 L 0.425,-5.575 C 1.842,-3.923 1.649,-1.42 0,0 Z" /></g><g
           transform="translate(26.2129,20.0786)"
           id="g24"><path
             id="path26"
             style="fill:none;stroke:#93278f;stroke-width:1.29999995;stroke-linecap:round;stroke-linejoin:round;stroke-miterlimit:4;stroke-dasharray:none;stroke-opacity:1"
             d="M 0,0 20,23" /></g><g
           transform="translate(15.9629,28.5786)"
           id="g28"><path
             id="path30"
             style="fill:none;stroke:#93278f;stroke-width:1.29999995;stroke-linecap:round;stroke-linejoin:round;stroke-miterlimit:4;stroke-dasharray:none;stroke-opacity:1"
             d="M 0,0 20,23" /></g><g
           transform="translate(9.1016,32.9175)"
           id="g32"><path
             id="path34"
             style="fill:none;stroke:#93278f;stroke-width:1.29999995;stroke-linecap:round;stroke-linejoin:round;stroke-miterlimit:4;stroke-dasharray:none;stroke-opacity:1"
             d="m 0,0 c 0,0 4.986,0.036 6.736,-4.464 5.5,0.25 10,-4.5 10.25,-8.75 0,0 5.25,0 6.118,-5.363" /></g><g
           transform="translate(0.7002,2.4341)"
           id="g36"><path
             id="path38"
             style="fill:#93278f;fill-opacity:1;fill-rule:nonzero;stroke:none"
             d="m 0,0 1.513,4.645 c 0,0 3.687,-0.5 4.625,-3.875 -3.25,-2 -4.774,-2.554 -4.774,-2.554 z" /></g><g
           transform="translate(1.3379,0.7036)"
           id="g40"><path
             id="path42"
             style="fill:none;stroke:#93278f;stroke-width:1.29999995;stroke-linecap:round;stroke-linejoin:round;stroke-miterlimit:4;stroke-dasharray:none;stroke-opacity:1"
             d="M 0,0 H 45.5" /></g><g
           transform="translate(12.3379,5.2036)"
           id="g44"><path
             id="path46"
             style="fill:none;stroke:#93278f;stroke-width:1.29999995;stroke-linecap:round;stroke-linejoin:round;stroke-miterlimit:4;stroke-dasharray:none;stroke-opacity:1"
             d="M 0,0 H 40.25" /></g><g
           transform="translate(23.5879,10.2036)"
           id="g48"><path
             id="path50"
             style="fill:none;stroke:#93278f;stroke-width:1.29999995;stroke-linecap:round;stroke-linejoin:round;stroke-miterlimit:4;stroke-dasharray:none;stroke-opacity:1"
             d="M 0,0 H 34.75" /></g></g></g></g></svg>