<?xml version="1.0" encoding="UTF-8" standalone="no"?>
<svg
   xmlns:dc="http://purl.org/dc/elements/1.1/"
   xmlns:cc="http://creativecommons.org/ns#"
   xmlns:rdf="http://www.w3.org/1999/02/22-rdf-syntax-ns#"
   xmlns:svg="http://www.w3.org/2000/svg"
   xmlns="http://www.w3.org/2000/svg"
   viewBox="0 0 65.664001 65.664001"
   height="65.664001"
   width="65.664001"
   xml:space="preserve"
   id="svg2"
   version="1.1"><metadata
     id="metadata8"><rdf:RDF><cc:Work
         rdf:about=""><dc:format>image/svg+xml</dc:format><dc:type
           rdf:resource="http://purl.org/dc/dcmitype/StillImage" /></cc:Work></rdf:RDF></metadata><defs
     id="defs6"><clipPath
       id="clipPath18"
       clipPathUnits="userSpaceOnUse"><path
         id="path16"
         d="M 0,49.248 H 49.248 V 0 H 0 Z" /></clipPath></defs><g
     transform="matrix(1.3333333,0,0,-1.3333333,0,65.664)"
     id="g10"><g
       id="g12"><g
         clip-path="url(#clipPath18)"
         id="g14"><g
           transform="translate(37.0303,29.5879)"
           id="g20"><path
             id="path22"
             style="fill:#abbacc;fill-opacity:1;fill-rule:nonzero;stroke:none"
             d="m 0,0 c 0.012,-0.267 0.017,-0.534 0.017,-0.803 0,-8.201 -6.242,-17.657 -17.656,-17.657 -3.505,0 -6.767,1.027 -9.513,2.788 0.485,-0.057 0.979,-0.086 1.48,-0.086 2.908,0 5.584,0.992 7.707,2.656 -2.715,0.051 -5.007,1.845 -5.796,4.31 0.378,-0.073 0.766,-0.111 1.167,-0.111 0.567,0 1.115,0.075 1.636,0.217 -2.84,0.571 -4.98,3.08 -4.98,6.084 0,0.028 0,0.053 10e-4,0.08 0.837,-0.465 1.794,-0.745 2.812,-0.778 -1.666,1.115 -2.762,3.013 -2.762,5.166 0,1.138 0.306,2.204 0.841,3.12 3.06,-3.755 7.633,-6.224 12.791,-6.483 -0.106,0.454 -0.161,0.928 -0.161,1.414 0,3.427 2.779,6.205 6.206,6.205 1.785,0 3.398,-0.754 4.529,-1.959 C -0.266,4.44 1.062,4.958 2.261,5.669 1.797,4.219 0.813,3.003 -0.469,2.235 0.788,2.386 1.983,2.72 3.096,3.213 2.265,1.969 1.212,0.875 0,0 m -12.405,19.66 c -13.6,0 -24.625,-11.027 -24.625,-24.625 0,-13.599 11.025,-24.623 24.625,-24.623 13.599,0 24.623,11.024 24.623,24.623 0,13.598 -11.024,24.625 -24.623,24.625" /></g></g></g></g></svg>