<?xml version="1.0" encoding="UTF-8" standalone="no"?>
<svg
   xmlns:dc="http://purl.org/dc/elements/1.1/"
   xmlns:cc="http://creativecommons.org/ns#"
   xmlns:rdf="http://www.w3.org/1999/02/22-rdf-syntax-ns#"
   xmlns:svg="http://www.w3.org/2000/svg"
   xmlns="http://www.w3.org/2000/svg"
   viewBox="0 0 98.040001 99.120003"
   height="99.120003"
   width="98.040001"
   xml:space="preserve"
   id="svg2"
   version="1.1"><metadata
     id="metadata8"><rdf:RDF><cc:Work
         rdf:about=""><dc:format>image/svg+xml</dc:format><dc:type
           rdf:resource="http://purl.org/dc/dcmitype/StillImage" /></cc:Work></rdf:RDF></metadata><defs
     id="defs6" /><g
     transform="matrix(1.3333333,0,0,-1.3333333,0,99.12)"
     id="g10"><g
       transform="scale(0.1)"
       id="g12"><path
         id="path14"
         style="fill:#396dbe;fill-opacity:1;fill-rule:nonzero;stroke:none"
         d="M 460.16,585.816 V 440.395 l 50.817,-31.997 c 1.336,-0.386 4.253,-0.418 5.589,0 l 218.711,147.461 c 0,17.454 -16.277,29.957 -25.468,29.957 H 460.16" /><path
         id="path16"
         style="fill:#396dbe;fill-opacity:1;fill-rule:nonzero;stroke:none"
         d="m 460.16,386.133 46.379,-31.852 c 6.535,-4.804 14.414,0 14.414,0 -7.855,-4.804 214.356,142.789 214.356,142.789 V 229.801 c 0,-29.102 -18.633,-41.293 -39.571,-41.293 H 460.129 v 197.625 h 0.031" /><path
         id="path18"
         style="fill:#396dbe;fill-opacity:1;fill-rule:nonzero;stroke:none"
         d="m 220.035,453.195 c -15.816,0 -28.402,-7.433 -37.707,-22.257 -9.297,-14.844 -13.961,-34.469 -13.961,-58.895 0,-24.797 4.664,-44.402 13.961,-58.801 9.305,-14.449 21.504,-21.617 36.582,-21.617 15.563,0 27.899,7.012 36.996,21.016 9.106,14.031 13.684,33.488 13.684,58.371 0,25.941 -4.414,46.133 -13.262,60.57 -8.855,14.398 -20.941,21.613 -36.293,21.613" /><path
         id="path20"
         style="fill:#396dbe;fill-opacity:1;fill-rule:nonzero;stroke:none"
         d="m 289.613,279.023 c -18.285,-24.062 -42.14,-36.121 -71.566,-36.121 -28.684,0 -52.016,11.661 -70.086,34.985 -18.035,23.34 -27.082,53.718 -27.082,91.195 0,39.563 9.156,71.566 27.5,95.996 18.344,24.438 42.633,36.656 72.883,36.656 28.562,0 51.687,-11.664 69.304,-35.078 17.637,-23.39 26.461,-54.203 26.461,-92.496 0.036,-39.34 -9.121,-71.058 -27.414,-95.137 z M 0,659.668 V 90.7422 L 432.793,0 V 743.438 L 0,659.668" /></g></g></svg>