<?xml version="1.0" encoding="UTF-8" standalone="no"?>
<svg
   xmlns:dc="http://purl.org/dc/elements/1.1/"
   xmlns:cc="http://creativecommons.org/ns#"
   xmlns:rdf="http://www.w3.org/1999/02/22-rdf-syntax-ns#"
   xmlns:svg="http://www.w3.org/2000/svg"
   xmlns="http://www.w3.org/2000/svg"
   viewBox="0 0 52.535198 41.0144"
   height="41.0144"
   width="52.535198"
   xml:space="preserve"
   id="svg2"
   version="1.1"><metadata
     id="metadata8"><rdf:RDF><cc:Work
         rdf:about=""><dc:format>image/svg+xml</dc:format><dc:type
           rdf:resource="http://purl.org/dc/dcmitype/StillImage" /></cc:Work></rdf:RDF></metadata><defs
     id="defs6"><clipPath
       id="clipPath18"
       clipPathUnits="userSpaceOnUse"><path
         id="path16"
         d="M 0,30.761 H 39.401 V 0 H 0 Z" /></clipPath></defs><g
     transform="matrix(1.3333333,0,0,-1.3333333,0,41.0144)"
     id="g10"><g
       id="g12"><g
         clip-path="url(#clipPath18)"
         id="g14"><g
           transform="translate(32.9072,4.2881)"
           id="g20"><path
             id="path22"
             style="fill:#fff;fill-opacity:1;fill-rule:nonzero;stroke:none"
             d="m 0,0 c 0,-0.355 -0.29,-0.645 -0.645,-0.645 h -5.542 c -0.355,0 -0.645,0.29 -0.645,0.645 v 11.037 c 0,0.356 0.29,0.645 0.645,0.645 h 5.542 C -0.29,11.682 0,11.393 0,11.037 Z m -3.415,-3.754 c -0.717,0 -1.296,0.579 -1.296,1.295 0,0.716 0.579,1.295 1.296,1.295 0.716,0 1.295,-0.579 1.295,-1.295 0,-0.716 -0.579,-1.295 -1.295,-1.295 m 4.35,17.332 h -8.7 c -0.444,0 -0.806,-0.363 -0.806,-0.805 V -3.482 c 0,-0.444 0.362,-0.806 0.806,-0.806 h 8.7 c 0.441,0 0.805,0.362 0.805,0.806 v 16.255 c 0,0.442 -0.364,0.805 -0.805,0.805" /></g><g
           transform="translate(36.4014,30.7608)"
           id="g24"><path
             id="path26"
             style="fill:#fff;fill-opacity:1;fill-rule:nonzero;stroke:none"
             d="m 0,0 h -33.401 c -1.655,0 -3,-1.346 -3,-3 v -17.447 c 0,-1.655 1.345,-3 3,-3 h 22.274 v 2 h -22.274 c -0.552,0 -1,0.448 -1,1 V -3 c 0,0.552 0.448,1 1,1 H 0 c 0.552,0 1,-0.448 1,-1 v -17.447 c 0,-0.552 -0.448,-1 -1,-1 h -2.482 v -2 H 0 c 1.654,0 3,1.345 3,3 V -3 C 3,-1.346 1.654,0 0,0" /></g></g></g></g></svg>