<?xml version="1.0" encoding="UTF-8" standalone="no"?>
<svg
   xmlns:dc="http://purl.org/dc/elements/1.1/"
   xmlns:cc="http://creativecommons.org/ns#"
   xmlns:rdf="http://www.w3.org/1999/02/22-rdf-syntax-ns#"
   xmlns:svg="http://www.w3.org/2000/svg"
   xmlns="http://www.w3.org/2000/svg"
   viewBox="0 0 96.506531 65.311867"
   height="65.311867"
   width="96.506531"
   xml:space="preserve"
   id="svg2"
   version="1.1"><metadata
     id="metadata8"><rdf:RDF><cc:Work
         rdf:about=""><dc:format>image/svg+xml</dc:format><dc:type
           rdf:resource="http://purl.org/dc/dcmitype/StillImage" /></cc:Work></rdf:RDF></metadata><defs
     id="defs6"><clipPath
       id="clipPath18"
       clipPathUnits="userSpaceOnUse"><path
         id="path16"
         d="M 0,48.984 H 72.38 V 0 H 0 Z" /></clipPath></defs><g
     transform="matrix(1.3333333,0,0,-1.3333333,0,65.311867)"
     id="g10"><g
       id="g12"><g
         clip-path="url(#clipPath18)"
         id="g14"><g
           transform="translate(2.2686,34.8188)"
           id="g20"><path
             id="path22"
             style="fill:none;stroke:#93278f;stroke-width:1.29999995;stroke-linecap:round;stroke-linejoin:round;stroke-miterlimit:4;stroke-dasharray:none;stroke-opacity:1"
             d="m 0,0 c -1.903,-0.38 -2.166,-1.61 -0.584,-2.735 l 8.471,-6.028 c 1.581,-1.125 4.354,-1.47 6.163,-0.768 L 62.612,9.322 c 1.808,0.703 1.932,0.453 0.273,-0.554 L 22.942,-15.499 c -1.657,-1.007 -1.72,-2.751 -0.14,-3.876 l 16.48,-11.727 c 1.581,-1.125 3.698,-0.688 4.705,0.971 L 69.01,11.111 c 1.006,1.66 0.273,2.706 -1.63,2.327 z" /></g><g
           transform="translate(26.8379,11.2935)"
           id="g24"><path
             id="path26"
             style="fill:none;stroke:#93278f;stroke-width:1.29999995;stroke-linecap:round;stroke-linejoin:round;stroke-miterlimit:4;stroke-dasharray:none;stroke-opacity:1"
             d="m 0,0 c 1.603,-1.094 3.135,-2.257 1.633,-3.485 l -8.487,-6.488 c -1.503,-1.228 -2.249,-0.72 -1.657,1.127 L -5.304,1.42 c 0.593,1.849 1.957,0.864 3.559,-0.23 z" /></g><g
           transform="translate(16.0078,0.9165)"
           id="g28"><path
             id="path30"
             style="fill:none;stroke:#93278f;stroke-width:1.29999995;stroke-linecap:round;stroke-linejoin:round;stroke-miterlimit:4;stroke-dasharray:none;stroke-opacity:1"
             d="M 0,0 C -0.182,-0.027 -1.481,-0.38 -1.844,1.526 L -5.071,17.92 c -0.365,1.907 -0.357,3.718 -0.259,4.132 0,0 0.801,0.937 1.557,0.425 0.327,-0.222 0.541,-0.454 0.541,-0.454 0.239,-0.347 0.732,-2.19 1.095,-4.097 L 0.871,2.141 C 1.233,0.235 0.172,0.025 0,0 Z" /></g></g></g></g></svg>