<?xml version="1.0" encoding="UTF-8" standalone="no"?>
<svg
   xmlns:dc="http://purl.org/dc/elements/1.1/"
   xmlns:cc="http://creativecommons.org/ns#"
   xmlns:rdf="http://www.w3.org/1999/02/22-rdf-syntax-ns#"
   xmlns:svg="http://www.w3.org/2000/svg"
   xmlns="http://www.w3.org/2000/svg"
   viewBox="0 0 134.31734 90.107063"
   height="90.107063"
   width="134.31734"
   xml:space="preserve"
   id="svg2"
   version="1.1"><metadata
     id="metadata8"><rdf:RDF><cc:Work
         rdf:about=""><dc:format>image/svg+xml</dc:format><dc:type
           rdf:resource="http://purl.org/dc/dcmitype/StillImage" /></cc:Work></rdf:RDF></metadata><defs
     id="defs6"><clipPath
       id="clipPath18"
       clipPathUnits="userSpaceOnUse"><path
         id="path16"
         d="M 0,67.58 H 100.738 V 0 H 0 Z" /></clipPath></defs><g
     transform="matrix(1.3333333,0,0,-1.3333333,0,90.107067)"
     id="g10"><g
       id="g12"><g
         clip-path="url(#clipPath18)"
         id="g14"><g
           transform="translate(2.2937,48.4258)"
           id="g20"><path
             id="path22"
             style="fill:#b2bccb;fill-opacity:1;fill-rule:nonzero;stroke:none"
             d="m 0,0 c -2.697,-0.538 -3.07,-2.282 -0.829,-3.877 l 12.006,-8.542 c 2.24,-1.594 6.171,-2.085 8.735,-1.089 l 68.825,26.721 c 2.563,0.995 2.738,0.641 0.388,-0.787 l -56.61,-34.391 c -2.35,-1.428 -2.44,-3.901 -0.199,-5.495 l 23.357,-16.619 c 2.241,-1.594 5.241,-0.975 6.668,1.376 l 35.463,58.45 c 1.427,2.351 0.387,3.835 -2.31,3.297 z" /></g><g
           transform="translate(37.1138,15.084)"
           id="g24"><path
             id="path26"
             style="fill:#b2bccb;fill-opacity:1;fill-rule:nonzero;stroke:none"
             d="m 0,0 c 2.271,-1.55 4.443,-3.199 2.314,-4.939 l -12.029,-9.195 c -2.129,-1.74 -3.185,-1.021 -2.346,1.598 l 4.546,14.549 c 0.839,2.619 2.771,1.225 5.043,-0.326 z" /></g><g
           transform="translate(21.7658,0.3778)"
           id="g28"><path
             id="path30"
             style="fill:#b2bccb;fill-opacity:1;fill-rule:nonzero;stroke:none"
             d="m 0,0 c -0.259,-0.038 -2.1,-0.539 -2.615,2.162 l -4.574,23.236 c -0.514,2.701 -0.505,5.268 -0.365,5.854 0,0 1.134,1.329 2.206,0.603 0.463,-0.314 0.765,-0.643 0.765,-0.643 0.341,-0.492 1.04,-3.105 1.555,-5.806 L 1.233,3.034 C 1.747,0.333 0.243,0.036 0,0" /></g></g></g></g></svg>