<?xml version="1.0" encoding="UTF-8" standalone="no"?>
<svg
   xmlns:dc="http://purl.org/dc/elements/1.1/"
   xmlns:cc="http://creativecommons.org/ns#"
   xmlns:rdf="http://www.w3.org/1999/02/22-rdf-syntax-ns#"
   xmlns:svg="http://www.w3.org/2000/svg"
   xmlns="http://www.w3.org/2000/svg"
   viewBox="0 0 85.734398 85.73307"
   height="85.73307"
   width="85.734398"
   xml:space="preserve"
   id="svg2"
   version="1.1"><metadata
     id="metadata8"><rdf:RDF><cc:Work
         rdf:about=""><dc:format>image/svg+xml</dc:format><dc:type
           rdf:resource="http://purl.org/dc/dcmitype/StillImage" /></cc:Work></rdf:RDF></metadata><defs
     id="defs6"><clipPath
       id="clipPath18"
       clipPathUnits="userSpaceOnUse"><path
         id="path16"
         d="M 0,64.3 H 64.301 V 0 H 0 Z" /></clipPath></defs><g
     transform="matrix(1.3333333,0,0,-1.3333333,0,85.733067)"
     id="g10"><g
       id="g12"><g
         clip-path="url(#clipPath18)"
         id="g14"><g
           transform="translate(63.6504,32.1499)"
           id="g20"><path
             id="path22"
             style="fill:none;stroke:#93278f;stroke-width:1.29999995;stroke-linecap:round;stroke-linejoin:round;stroke-miterlimit:4;stroke-dasharray:none;stroke-opacity:1"
             d="M 0,0 C 0,-17.397 -14.103,-31.5 -31.5,-31.5 -48.897,-31.5 -63,-17.397 -63,0 -63,17.397 -48.897,31.5 -31.5,31.5 -14.103,31.5 0,17.397 0,0 Z" /></g><g
           transform="translate(47.6504,32.1499)"
           id="g24"><path
             id="path26"
             style="fill:none;stroke:#93278f;stroke-width:1.29999995;stroke-linecap:round;stroke-linejoin:round;stroke-miterlimit:4;stroke-dasharray:none;stroke-opacity:1"
             d="m 0,0 c 0,-8.561 -6.939,-15.5 -15.5,-15.5 -8.561,0 -15.5,6.939 -15.5,15.5 0,8.561 6.939,15.5 15.5,15.5 C -6.939,15.5 0,8.561 0,0 Z" /></g><g
           transform="translate(12.124,56.1484)"
           id="g28"><path
             id="path30"
             style="fill:none;stroke:#93278f;stroke-width:1.29999995;stroke-linecap:round;stroke-linejoin:round;stroke-miterlimit:4;stroke-dasharray:none;stroke-opacity:1"
             d="M 0,0 10.693,-11.332" /></g><g
           transform="translate(9.0596,53.2173)"
           id="g32"><path
             id="path34"
             style="fill:none;stroke:#93278f;stroke-width:1.29999995;stroke-linecap:round;stroke-linejoin:round;stroke-miterlimit:4;stroke-dasharray:none;stroke-opacity:1"
             d="M 0,0 10.758,-11.4" /></g><g
           transform="translate(45.165,23.1074)"
           id="g36"><path
             id="path38"
             style="fill:none;stroke:#93278f;stroke-width:1.29999995;stroke-linecap:round;stroke-linejoin:round;stroke-miterlimit:4;stroke-dasharray:none;stroke-opacity:1"
             d="M 0,0 10.693,-11.332" /></g><g
           transform="translate(42.1006,20.1763)"
           id="g40"><path
             id="path42"
             style="fill:none;stroke:#93278f;stroke-width:1.29999995;stroke-linecap:round;stroke-linejoin:round;stroke-miterlimit:4;stroke-dasharray:none;stroke-opacity:1"
             d="M 0,0 10.758,-11.4" /></g><g
           transform="translate(8.5059,11.8604)"
           id="g44"><path
             id="path46"
             style="fill:none;stroke:#93278f;stroke-width:1.29999995;stroke-linecap:round;stroke-linejoin:round;stroke-miterlimit:4;stroke-dasharray:none;stroke-opacity:1"
             d="M 0,0 11.332,10.693" /></g><g
           transform="translate(11.4375,8.7959)"
           id="g48"><path
             id="path50"
             style="fill:none;stroke:#93278f;stroke-width:1.29999995;stroke-linecap:round;stroke-linejoin:round;stroke-miterlimit:4;stroke-dasharray:none;stroke-opacity:1"
             d="M 0,0 11.4,10.758" /></g><g
           transform="translate(41.4141,44.7686)"
           id="g52"><path
             id="path54"
             style="fill:none;stroke:#93278f;stroke-width:1.29999995;stroke-linecap:round;stroke-linejoin:round;stroke-miterlimit:4;stroke-dasharray:none;stroke-opacity:1"
             d="M 0,0 11.332,10.693" /></g><g
           transform="translate(44.3457,41.7041)"
           id="g56"><path
             id="path58"
             style="fill:none;stroke:#93278f;stroke-width:1.29999995;stroke-linecap:round;stroke-linejoin:round;stroke-miterlimit:4;stroke-dasharray:none;stroke-opacity:1"
             d="M 0,0 11.4,10.758" /></g></g></g></g></svg>