<?xml version="1.0" encoding="UTF-8" standalone="no"?>
<svg
   xmlns:dc="http://purl.org/dc/elements/1.1/"
   xmlns:cc="http://creativecommons.org/ns#"
   xmlns:rdf="http://www.w3.org/1999/02/22-rdf-syntax-ns#"
   xmlns:svg="http://www.w3.org/2000/svg"
   xmlns="http://www.w3.org/2000/svg"
   viewBox="0 0 109.08987 98.792931"
   height="98.792931"
   width="109.08987"
   xml:space="preserve"
   id="svg2"
   version="1.1"><metadata
     id="metadata8"><rdf:RDF><cc:Work
         rdf:about=""><dc:format>image/svg+xml</dc:format><dc:type
           rdf:resource="http://purl.org/dc/dcmitype/StillImage" /></cc:Work></rdf:RDF></metadata><defs
     id="defs6"><clipPath
       id="clipPath18"
       clipPathUnits="userSpaceOnUse"><path
         id="path16"
         d="M 0,74.095 H 81.817 V 0 H 0 Z" /></clipPath></defs><g
     transform="matrix(1.3333333,0,0,-1.3333333,0,98.792933)"
     id="g10"><g
       id="g12"><g
         clip-path="url(#clipPath18)"
         id="g14"><g
           transform="translate(45.3096,57.1992)"
           id="g20"><path
             id="path22"
             style="fill:#abbacc;fill-opacity:1;fill-rule:nonzero;stroke:none"
             d="m 0,0 -5.935,-0.108 -0.215,11.869 5.933,0.108 z m -8.653,-0.158 -5.935,-0.109 -0.217,11.87 5.935,0.108 z m -8.656,-0.158 -5.934,-0.109 -0.216,11.869 5.934,0.109 z m 0.311,-16.98 -5.935,-0.108 -0.216,11.869 5.934,0.108 z m 0.31,-16.978 -5.935,-0.109 -0.217,11.869 5.935,0.109 z m 0.309,-16.98 -5.934,-0.108 -0.216,11.869 5.934,0.108 z m -9.584,50.779 -5.934,-0.108 -0.217,11.869 5.934,0.109 z m 0.31,-16.979 -5.935,-0.109 -0.217,11.87 5.936,0.108 z m 0.309,-16.979 -5.933,-0.108 -0.217,11.869 5.934,0.109 z m 0.311,-16.979 -5.935,-0.109 -0.217,11.87 5.935,0.108 z m -9.585,50.78 -5.935,-0.108 -0.217,11.868 5.936,0.108 z m 0.31,-16.98 -5.934,-0.109 -0.217,11.869 5.935,0.109 z m 0.31,-16.979 -5.935,-0.108 -0.216,11.869 5.934,0.108 z m 0.31,-16.979 -5.935,-0.109 -0.216,11.869 5.935,0.109 z m -11.622,67.563 1.336,-73.192 30.538,0.557 -0.912,49.949 c -0.012,0.682 0.532,1.246 1.214,1.258 L 4.547,-5.111 4.145,16.896 Z" /></g><g
           transform="translate(77.251,35.0107)"
           id="g24"><path
             id="path26"
             style="fill:#abbacc;fill-opacity:1;fill-rule:nonzero;stroke:none"
             d="M 0,0 -5.438,-0.1 -5.6,8.833 -0.163,8.932 Z m 0.243,-13.354 -5.436,-0.099 -0.163,8.933 5.436,0.1 z m 0.253,-13.832 -5.436,-0.098 -0.164,8.932 5.437,0.1 z m -8.779,27.035 -5.438,-0.1 -0.163,8.933 5.438,0.098 z m 0.244,-13.354 -5.438,-0.099 -0.164,8.933 5.438,0.1 z m -8.528,13.202 -5.438,-0.099 -0.163,8.932 5.438,0.1 z m 0.244,-13.353 -5.438,-0.099 -0.163,8.933 5.438,0.099 z m -8.528,13.202 -5.436,-0.099 -0.163,8.932 5.436,0.1 z m 0.244,-13.353 -5.437,-0.099 -0.163,8.932 5.437,0.1 z m -8.527,13.202 -5.437,-0.099 -0.163,8.932 5.437,0.099 z m 0.244,-13.353 -5.437,-0.1 -0.163,8.933 5.437,0.1 z m 0.252,-13.832 -5.437,-0.1 -0.163,8.934 5.437,0.1 z m -10.661,42.103 0.885,-48.465 13.847,0.253 -0.285,15.578 19.288,0.352 0.284,-15.578 13.846,0.252 -0.883,48.465 z" /></g></g></g></g></svg>