<?xml version="1.0" encoding="UTF-8" standalone="no"?>
<svg
   xmlns:dc="http://purl.org/dc/elements/1.1/"
   xmlns:cc="http://creativecommons.org/ns#"
   xmlns:rdf="http://www.w3.org/1999/02/22-rdf-syntax-ns#"
   xmlns:svg="http://www.w3.org/2000/svg"
   xmlns="http://www.w3.org/2000/svg"
   viewBox="0 0 73.780533 95.006531"
   height="95.006531"
   width="73.780533"
   xml:space="preserve"
   id="svg2"
   version="1.1"><metadata
     id="metadata8"><rdf:RDF><cc:Work
         rdf:about=""><dc:format>image/svg+xml</dc:format><dc:type
           rdf:resource="http://purl.org/dc/dcmitype/StillImage" /></cc:Work></rdf:RDF></metadata><defs
     id="defs6"><clipPath
       id="clipPath18"
       clipPathUnits="userSpaceOnUse"><path
         id="path16"
         d="M 0,71.255 H 55.335 V 0 H 0 Z" /></clipPath></defs><g
     transform="matrix(1.3333333,0,0,-1.3333333,0,95.006533)"
     id="g10"><g
       id="g12"><g
         clip-path="url(#clipPath18)"
         id="g14"><g
           transform="translate(27.6675,35.2197)"
           id="g20"><path
             id="path22"
             style="fill:#abbacc;fill-opacity:1;fill-rule:nonzero;stroke:none"
             d="m 0,0 c -5.222,0 -9.455,4.233 -9.455,9.455 0,5.222 4.233,9.455 9.455,9.455 5.222,0 9.455,-4.233 9.455,-9.455 C 9.455,4.233 5.222,0 0,0 m 0,36.035 c -15.28,0 -27.667,-12.387 -27.667,-27.667 0,-2.276 0.28,-4.485 0.798,-6.601 1.067,-4.812 2.147,-6.41 3.728,-9.418 C -17.442,-18.495 -9.189,-27.84 0,-35.22 c 9.189,7.379 17.425,16.522 23.124,27.365 1.582,3.009 2.661,5.526 3.746,9.625 0.518,2.115 0.798,4.323 0.798,6.598 0,15.28 -12.387,27.667 -27.668,27.667" /></g></g></g></g></svg>