<?xml version="1.0" encoding="UTF-8" standalone="no"?>
<svg
   xmlns:dc="http://purl.org/dc/elements/1.1/"
   xmlns:cc="http://creativecommons.org/ns#"
   xmlns:rdf="http://www.w3.org/1999/02/22-rdf-syntax-ns#"
   xmlns:svg="http://www.w3.org/2000/svg"
   xmlns="http://www.w3.org/2000/svg"
   viewBox="0 0 52.268269 42.851601"
   height="42.851601"
   width="52.268269"
   xml:space="preserve"
   id="svg2"
   version="1.1"><metadata
     id="metadata8"><rdf:RDF><cc:Work
         rdf:about=""><dc:format>image/svg+xml</dc:format><dc:type
           rdf:resource="http://purl.org/dc/dcmitype/StillImage" /></cc:Work></rdf:RDF></metadata><defs
     id="defs6"><clipPath
       id="clipPath18"
       clipPathUnits="userSpaceOnUse"><path
         id="path16"
         d="M 0,32.139 H 39.201 V 0 H 0 Z" /></clipPath></defs><g
     transform="matrix(1.3333333,0,0,-1.3333333,0,42.8516)"
     id="g10"><g
       id="g12"><g
         clip-path="url(#clipPath18)"
         id="g14"><g
           transform="translate(23.7471,4.4053)"
           id="g20"><path
             id="path22"
             style="fill:none;stroke:#fff;stroke-width:2;stroke-linecap:butt;stroke-linejoin:round;stroke-miterlimit:4;stroke-dasharray:none;stroke-opacity:1"
             d="m 0,0 c 0.14,-0.935 -0.444,-1.806 -1.298,-1.937 l -9.494,-1.452 c -0.854,-0.131 -1.666,0.528 -1.807,1.462 l -0.525,3.495 c -0.141,0.935 0.444,1.807 1.297,1.937 l 9.494,1.452 c 0.854,0.13 1.667,-0.527 1.808,-1.462 z" /></g><g
           transform="translate(36.2632,10.2632)"
           id="g24"><path
             id="path26"
             style="fill:#fff;fill-opacity:1;fill-rule:nonzero;stroke:none"
             d="m 0,0 c -2.498,-0.84 -6.612,2.651 -9.403,8.084 -0.728,1.416 -1.294,2.828 -1.698,4.169 l -22.628,-15.442 21.892,19.652 c -0.046,1.931 0.428,3.407 1.454,4.052 L -10.844,21.426 -25.453,7.014 -36.136,-3.525 c -0.222,-0.366 -0.154,-1.08 0.21,-1.789 0.362,-0.705 0.899,-1.174 1.323,-1.212 l 14.806,2.366 20.265,3.236 z" /></g><g
           transform="translate(35.7544,22.918)"
           id="g28"><path
             id="path30"
             style="fill:none;stroke:#fff;stroke-width:2;stroke-linecap:butt;stroke-linejoin:round;stroke-miterlimit:4;stroke-dasharray:none;stroke-opacity:1"
             d="M 0,0 C 2.909,-5.662 3.277,-11.276 0.821,-12.538 -1.635,-13.8 -5.985,-10.232 -8.895,-4.57 -11.804,1.091 -12.171,6.705 -9.715,7.967 -7.259,9.229 -2.909,5.661 0,0 Z" /></g><g
           transform="translate(31.5347,20.3535)"
           id="g32"><path
             id="path34"
             style="fill:#fff;fill-opacity:1;fill-rule:nonzero;stroke:none"
             d="m 0,0 c 1.427,-2.778 1.608,-5.533 0.403,-6.152 -1.205,-0.619 -3.34,1.131 -4.768,3.91 C -5.792,0.536 -5.972,3.29 -4.768,3.909 -3.562,4.528 -1.427,2.778 0,0" /></g></g></g></g></svg>