<?xml version="1.0" encoding="UTF-8" standalone="no"?>
<svg
   xmlns:dc="http://purl.org/dc/elements/1.1/"
   xmlns:cc="http://creativecommons.org/ns#"
   xmlns:rdf="http://www.w3.org/1999/02/22-rdf-syntax-ns#"
   xmlns:svg="http://www.w3.org/2000/svg"
   xmlns="http://www.w3.org/2000/svg"
   viewBox="0 0 111.97533 71.7948"
   height="71.7948"
   width="111.97533"
   xml:space="preserve"
   id="svg2"
   version="1.1"><metadata
     id="metadata8"><rdf:RDF><cc:Work
         rdf:about=""><dc:format>image/svg+xml</dc:format><dc:type
           rdf:resource="http://purl.org/dc/dcmitype/StillImage" /></cc:Work></rdf:RDF></metadata><defs
     id="defs6"><clipPath
       id="clipPath18"
       clipPathUnits="userSpaceOnUse"><path
         id="path16"
         d="M 0,53.846 H 83.981 V 0 H 0 Z" /></clipPath></defs><g
     transform="matrix(1.3333333,0,0,-1.3333333,0,71.7948)"
     id="g10"><g
       id="g12"><g
         clip-path="url(#clipPath18)"
         id="g14"><g
           transform="translate(18.2693,30.305)"
           id="g20"><path
             id="path22"
             style="fill:#abbacc;fill-opacity:1;fill-rule:nonzero;stroke:none"
             d="m 0,0 c -10.04,0 -18.183,-8.1 -18.269,-18.119 h 0.114 c -0.165,-1.652 1.005,-2.846 3.069,-2.846 h 12.6 c 1.685,7.544 6.54,13.89 13.091,17.566 C 7.616,-1.261 3.953,0 0,0 m 0,3.099 c 4.918,0 8.902,3.986 8.902,8.904 0,4.916 -3.984,8.901 -8.902,8.901 -4.917,0 -8.903,-3.985 -8.903,-8.901 0,-4.918 3.986,-8.904 8.903,-8.904" /></g><g
           transform="translate(53.454,42.398)"
           id="g24"><path
             id="path26"
             style="fill:#abbacc;fill-opacity:1;fill-rule:nonzero;stroke:none"
             d="m 0,0 c 0,-6.323 -5.127,-11.449 -11.448,-11.449 -6.326,0 -11.45,5.126 -11.45,11.449 0,6.322 5.124,11.448 11.45,11.448 C -5.127,11.448 0,6.322 0,0" /></g><g
           transform="translate(65.5055,3.6594)"
           id="g28"><path
             id="path30"
             style="fill:#abbacc;fill-opacity:1;fill-rule:nonzero;stroke:none"
             d="M 0,0 C -0.11,12.886 -10.589,23.302 -23.5,23.302 -36.412,23.302 -46.887,12.886 -46.999,0 h 0.149 c -0.207,-2.129 1.296,-3.659 3.947,-3.659 h 38.81 c 2.641,0 4.15,1.53 3.94,3.659 z" /></g><g
           transform="translate(65.7099,30.305)"
           id="g32"><path
             id="path34"
             style="fill:#abbacc;fill-opacity:1;fill-rule:nonzero;stroke:none"
             d="M 0,0 C -3.951,0 -7.603,-1.257 -10.591,-3.39 -4.033,-7.066 0.833,-13.414 2.517,-20.965 h 12.567 c 2.064,0 3.231,1.194 3.073,2.846 h 0.115 C 18.19,-8.1 10.04,0 0,0 m 0,3.099 c 4.918,0 8.902,3.986 8.902,8.904 0,4.916 -3.984,8.901 -8.902,8.901 -4.829,0 -8.749,-3.849 -8.889,-8.649 0,-0.054 0.004,-0.107 0.004,-0.162 0,-0.085 -0.01,-0.168 -0.01,-0.254 0.088,-4.84 4.033,-8.74 8.895,-8.74" /></g></g></g></g></svg>