<?xml version="1.0" encoding="UTF-8" standalone="no"?>
<svg
   xmlns:dc="http://purl.org/dc/elements/1.1/"
   xmlns:cc="http://creativecommons.org/ns#"
   xmlns:rdf="http://www.w3.org/1999/02/22-rdf-syntax-ns#"
   xmlns:svg="http://www.w3.org/2000/svg"
   xmlns="http://www.w3.org/2000/svg"
   viewBox="0 0 128.44667 74.986267"
   height="74.986267"
   width="128.44667"
   xml:space="preserve"
   id="svg2"
   version="1.1"><metadata
     id="metadata8"><rdf:RDF><cc:Work
         rdf:about=""><dc:format>image/svg+xml</dc:format><dc:type
           rdf:resource="http://purl.org/dc/dcmitype/StillImage" /></cc:Work></rdf:RDF></metadata><defs
     id="defs6"><clipPath
       id="clipPath18"
       clipPathUnits="userSpaceOnUse"><path
         id="path16"
         d="M 0,56.24 H 96.335 V 0 H 0 Z" /></clipPath></defs><g
     transform="matrix(1.3333333,0,0,-1.3333333,0,74.986267)"
     id="g10"><g
       id="g12"><g
         clip-path="url(#clipPath18)"
         id="g14"><g
           transform="translate(19.2871,52.2686)"
           id="g20"><path
             id="path22"
             style="fill:#93278f;fill-opacity:1;fill-rule:nonzero;stroke:none"
             d="m 0,0 c -4.659,0 -8.448,-3.789 -8.448,-8.445 0,-4.659 3.789,-8.45 8.448,-8.45 4.656,0 8.445,3.791 8.445,8.45 C 8.445,-3.789 4.656,0 0,0 m 0,-18.174 c -5.364,0 -9.728,4.364 -9.728,9.729 0,5.362 4.364,9.724 9.728,9.724 5.362,0 9.725,-4.362 9.725,-9.724 0,-5.365 -4.363,-9.729 -9.725,-9.729 m -18.001,-20.658 c 0.083,-0.123 0.121,-0.272 0.106,-0.422 -0.058,-0.586 0.09,-1.093 0.429,-1.468 0.429,-0.473 1.163,-0.734 2.068,-0.734 h 12.351 c 1.752,7.212 6.324,13.455 12.67,17.328 -2.878,1.829 -6.185,2.791 -9.623,2.791 -9.724,0 -17.724,-7.814 -18.001,-17.495 m 15.463,-3.903 h -12.86 c -1.271,0 -2.342,0.41 -3.016,1.155 -0.503,0.556 -0.767,1.256 -0.773,2.045 -0.066,0.103 -0.102,0.224 -0.1,0.349 0.091,10.548 8.742,19.129 19.287,19.129 4.042,0 7.913,-1.241 11.196,-3.589 0.178,-0.126 0.279,-0.336 0.267,-0.555 -0.012,-0.218 -0.135,-0.416 -0.326,-0.523 -6.64,-3.726 -11.398,-10.109 -13.052,-17.511 -0.064,-0.292 -0.324,-0.5 -0.623,-0.5" /></g><g
           transform="translate(43.5137,54.96)"
           id="g24"><path
             id="path26"
             style="fill:#93278f;fill-opacity:1;fill-rule:nonzero;stroke:none"
             d="m 0,0 c -6.091,0 -11.047,-4.955 -11.047,-11.045 0,-6.091 4.956,-11.047 11.047,-11.047 6.091,0 11.045,4.956 11.045,11.047 C 11.045,-4.955 6.091,0 0,0 m 0,-23.371 c -6.797,0 -12.326,5.529 -12.326,12.326 0,6.796 5.529,12.325 12.326,12.325 6.797,0 12.325,-5.529 12.325,-12.325 0,-6.797 -5.528,-12.326 -12.325,-12.326" /></g><g
           transform="translate(20.1758,4.7803)"
           id="g28"><path
             id="path30"
             style="fill:#93278f;fill-opacity:1;fill-rule:nonzero;stroke:none"
             d="M 0,0 C 0.106,-0.131 0.158,-0.299 0.142,-0.468 0.063,-1.275 0.271,-1.979 0.743,-2.499 1.329,-3.145 2.32,-3.501 3.534,-3.501 h 39.612 c 1.209,0 2.199,0.356 2.785,1.003 0.471,0.521 0.68,1.224 0.6,2.029 -0.016,0.172 0.035,0.342 0.146,0.473 C 46.347,12.578 35.963,22.738 23.338,22.738 10.714,22.738 0.328,12.576 0,0 M 43.146,-4.78 H 3.534 c -1.602,0 -2.894,0.491 -3.738,1.422 -0.628,0.692 -0.952,1.571 -0.951,2.563 -0.086,0.112 -0.133,0.252 -0.132,0.395 0.117,13.464 11.164,24.418 24.625,24.418 13.464,0 24.51,-10.955 24.625,-24.418 0.002,-0.145 -0.047,-0.286 -0.136,-0.4 0.003,-0.988 -0.321,-1.866 -0.948,-2.557 -0.832,-0.917 -2.158,-1.423 -3.733,-1.423" /></g><g
           transform="translate(59.2725,43.748)"
           id="g32"><path
             id="path34"
             style="fill:#93278f;fill-opacity:1;fill-rule:nonzero;stroke:none"
             d="M 0,0 C 0.004,0.056 0.006,0.11 0.006,0.167 L 0.003,0.313 c 0.133,4.603 3.837,8.208 8.433,8.208 4.657,0 8.446,-3.79 8.446,-8.446 0,-4.659 -3.789,-8.449 -8.446,-8.449 -4.57,0 -8.356,3.721 -8.44,8.281 0,0.031 0.003,0.063 0.004,0.093 m 8.436,-9.653 c 5.362,0 9.725,4.364 9.725,9.728 0,5.363 -4.363,9.725 -9.725,9.725 -5.292,0 -9.558,-4.151 -9.712,-9.468 l 0.003,-0.165 c 0,-0.031 -0.002,-0.062 -0.003,-0.093 -0.004,-0.055 -0.007,-0.11 -0.007,-0.178 0.096,-5.265 4.456,-9.549 9.719,-9.549" /></g><g
           transform="translate(77.0576,10.8125)"
           id="g36"><path
             id="path38"
             style="fill:#93278f;fill-opacity:1;fill-rule:nonzero;stroke:none"
             d="m 0,0 h -6.273 c -1.75,7.216 -6.328,13.462 -12.685,17.338 2.876,1.822 6.177,2.781 9.608,2.781 4.157,0 7.992,-1.435 11.049,-3.824 0.331,0.289 0.676,0.563 1.037,0.814 -3.314,2.679 -7.52,4.29 -12.086,4.29 -4.035,0 -7.901,-1.238 -11.181,-3.58 -0.178,-0.127 -0.28,-0.336 -0.268,-0.554 0.013,-0.219 0.136,-0.417 0.327,-0.524 6.652,-3.728 11.414,-10.114 13.067,-17.519 0.065,-0.293 0.324,-0.501 0.625,-0.501 H 1.101 C 0.702,-0.882 0.341,-0.45 0,0" /></g><g
           transform="translate(79.7529,26.2593)"
           id="g40"><path
             id="path42"
             style="fill:#93278f;fill-opacity:1;fill-rule:nonzero;stroke:none"
             d="m 0,0 c -0.323,0.292 -0.651,0.579 -0.996,0.848 -2.532,-2.206 -4.143,-5.445 -4.143,-9.059 0,-2.718 0.917,-5.22 2.444,-7.236 h 1.688 c -1.752,1.91 -2.831,4.446 -2.831,7.236 0,3.293 1.495,6.242 3.838,8.211" /></g><g
           transform="translate(78.7461,10.8125)"
           id="g44"><path
             id="path46"
             style="fill:#93278f;fill-opacity:1;fill-rule:nonzero;stroke:none"
             d="m 0,0 h -1.688 c 0.34,-0.45 0.702,-0.882 1.1,-1.279 H 1.399 C 0.896,-0.894 0.429,-0.466 0,0" /></g><g
           transform="translate(79.7529,26.2593)"
           id="g48"><path
             id="path50"
             style="fill:#93278f;fill-opacity:1;fill-rule:nonzero;stroke:none"
             d="M 0,0 C 0.332,0.279 0.683,0.535 1.048,0.773 0.719,1.078 0.39,1.381 0.041,1.663 -0.32,1.411 -0.665,1.137 -0.996,0.848 -0.651,0.579 -0.323,0.292 0,0" /></g><g
           transform="translate(86.6387,26.5073)"
           id="g52"><path
             id="path54"
             style="fill:#93278f;fill-opacity:1;fill-rule:nonzero;stroke:none"
             d="m 0,0 c -4.664,0 -8.458,-3.795 -8.458,-8.459 0,-4.664 3.794,-8.46 8.458,-8.46 4.665,0 8.459,3.796 8.459,8.46 C 8.459,-3.795 4.665,0 0,0 m 0,-18.154 c -5.346,0 -9.695,4.349 -9.695,9.695 0,5.346 4.349,9.695 9.695,9.695 5.347,0 9.696,-4.349 9.696,-9.695 0,-5.346 -4.349,-9.695 -9.696,-9.695" /></g><g
           transform="translate(86.4922,11.7383)"
           id="g56"><path
             id="path58"
             style="fill:#93278f;fill-opacity:1;fill-rule:nonzero;stroke:none"
             d="M 0,0 C -0.359,0 -0.65,0.291 -0.65,0.65 V 11.9 c 0,0.359 0.291,0.65 0.65,0.65 0.359,0 0.65,-0.291 0.65,-0.65 V 0.65 C 0.65,0.291 0.359,0 0,0" /></g><g
           transform="translate(92.1172,17.3633)"
           id="g60"><path
             id="path62"
             style="fill:#93278f;fill-opacity:1;fill-rule:nonzero;stroke:none"
             d="m 0,0 h -11.25 c -0.359,0 -0.65,0.291 -0.65,0.65 0,0.359 0.291,0.65 0.65,0.65 H 0 C 0.359,1.3 0.65,1.009 0.65,0.65 0.65,0.291 0.359,0 0,0" /></g></g></g></g></svg>