<?xml version="1.0" encoding="UTF-8" standalone="no"?>
<svg
   xmlns:dc="http://purl.org/dc/elements/1.1/"
   xmlns:cc="http://creativecommons.org/ns#"
   xmlns:rdf="http://www.w3.org/1999/02/22-rdf-syntax-ns#"
   xmlns:svg="http://www.w3.org/2000/svg"
   xmlns="http://www.w3.org/2000/svg"
   viewBox="0 0 28.9828 42.417999"
   height="42.417999"
   width="28.9828"
   xml:space="preserve"
   id="svg2"
   version="1.1"><metadata
     id="metadata8"><rdf:RDF><cc:Work
         rdf:about=""><dc:format>image/svg+xml</dc:format><dc:type
           rdf:resource="http://purl.org/dc/dcmitype/StillImage" /></cc:Work></rdf:RDF></metadata><defs
     id="defs6"><clipPath
       id="clipPath18"
       clipPathUnits="userSpaceOnUse"><path
         id="path16"
         d="M 0,31.813 H 21.737 V 0 H 0 Z" /></clipPath></defs><g
     transform="matrix(1.3333333,0,0,-1.3333333,0,42.418)"
     id="g10"><g
       id="g12"><g
         clip-path="url(#clipPath18)"
         id="g14"><g
           transform="translate(15.9075,3.1458)"
           id="g20"><path
             id="path22"
             style="fill:#00aa92;fill-opacity:1;fill-rule:nonzero;stroke:none"
             d="m 0,0 c 0.105,0 0.307,0.025 0.476,0.195 l 2.012,2.011 c 0.258,0.258 0.258,0.695 0,0.953 l -6.9,6.9 c -1.489,1.49 -1.489,3.913 0,5.403 l 6.9,6.9 c 0.258,0.258 0.258,0.695 0,0.953 L 0.476,25.327 C 0.307,25.497 0.105,25.522 0,25.522 c -0.106,0 -0.307,-0.025 -0.477,-0.195 L -12.566,13.238 c -0.259,-0.259 -0.259,-0.696 0,-0.954 L -0.477,0.195 C -0.307,0.025 -0.105,0 0,0 m 0,28.668 c 1.022,0 1.981,-0.397 2.701,-1.116 L 4.713,25.54 c 1.489,-1.49 1.489,-3.913 0,-5.403 l -6.9,-6.899 c -0.259,-0.259 -0.259,-0.696 0,-0.954 l 6.9,-6.9 c 1.489,-1.489 1.489,-3.913 0,-5.402 L 2.701,-2.03 C 1.981,-2.75 1.022,-3.146 0,-3.146 c -1.022,0 -1.982,0.396 -2.701,1.116 l -12.09,12.089 c -1.489,1.49 -1.489,3.913 0,5.403 l 12.09,12.089 c 0.719,0.72 1.678,1.117 2.701,1.117" /></g></g></g></g></svg>