<?xml version="1.0" encoding="UTF-8" standalone="no"?>
<svg
   xmlns:dc="http://purl.org/dc/elements/1.1/"
   xmlns:cc="http://creativecommons.org/ns#"
   xmlns:rdf="http://www.w3.org/1999/02/22-rdf-syntax-ns#"
   xmlns:svg="http://www.w3.org/2000/svg"
   xmlns="http://www.w3.org/2000/svg"
   viewBox="0 0 65.809868 67.834663"
   height="67.834663"
   width="65.809868"
   xml:space="preserve"
   id="svg2"
   version="1.1"><metadata
     id="metadata8"><rdf:RDF><cc:Work
         rdf:about=""><dc:format>image/svg+xml</dc:format><dc:type
           rdf:resource="http://purl.org/dc/dcmitype/StillImage" /></cc:Work></rdf:RDF></metadata><defs
     id="defs6"><clipPath
       id="clipPath18"
       clipPathUnits="userSpaceOnUse"><path
         id="path16"
         d="M 0,50.876 H 49.357 V 0 H 0 Z" /></clipPath></defs><g
     transform="matrix(1.3333333,0,0,-1.3333333,0,67.834667)"
     id="g10"><g
       id="g12"><g
         clip-path="url(#clipPath18)"
         id="g14"><g
           transform="translate(39.2363,4)"
           id="g20"><path
             id="path22"
             style="fill:#abbacc;fill-opacity:1;fill-rule:nonzero;stroke:none"
             d="m 0,0 c -3.375,0 -6.12,2.745 -6.12,6.12 0,3.375 2.745,6.121 6.12,6.121 3.375,0 6.121,-2.746 6.121,-6.121 C 6.121,2.745 3.375,0 0,0 m -29.115,14.836 c -3.375,0 -6.121,2.745 -6.121,6.12 0,3.375 2.746,6.121 6.121,6.121 3.375,0 6.12,-2.746 6.12,-6.121 0,-3.375 -2.745,-6.12 -6.12,-6.12 m 28.449,28.04 c 3.375,0 6.121,-2.746 6.121,-6.121 0,-3.375 -2.746,-6.121 -6.121,-6.121 -3.375,0 -6.12,2.746 -6.12,6.121 0,3.375 2.745,6.121 6.12,6.121 M 0,16.241 c -2.849,0 -5.422,-1.187 -7.263,-3.09 l -11.827,6.495 c 0.056,0.429 0.095,0.865 0.095,1.31 0,0.867 -0.121,1.703 -0.327,2.508 l 11.589,6.06 c 1.826,-1.785 4.318,-2.89 7.067,-2.89 5.581,0 10.121,4.541 10.121,10.121 0,5.58 -4.54,10.121 -10.121,10.121 -5.58,0 -10.12,-4.541 -10.12,-10.121 0,-0.305 0.019,-0.606 0.046,-0.903 l -12.605,-6.593 c -1.638,1.142 -3.626,1.818 -5.77,1.818 -5.581,0 -10.121,-4.54 -10.121,-10.121 0,-5.58 4.54,-10.12 10.121,-10.12 2.601,0 4.969,0.995 6.763,2.614 L -10.09,6.718 C -10.102,6.52 -10.12,6.322 -10.12,6.12 -10.12,0.54 -5.58,-4 0,-4 5.581,-4 10.121,0.54 10.121,6.12 10.121,11.701 5.581,16.241 0,16.241" /></g></g></g></g></svg>