<?xml version="1.0" encoding="UTF-8" standalone="no"?>
<svg
   xmlns:dc="http://purl.org/dc/elements/1.1/"
   xmlns:cc="http://creativecommons.org/ns#"
   xmlns:rdf="http://www.w3.org/1999/02/22-rdf-syntax-ns#"
   xmlns:svg="http://www.w3.org/2000/svg"
   xmlns="http://www.w3.org/2000/svg"
   viewBox="0 0 65.665337 65.664001"
   height="65.664001"
   width="65.665337"
   xml:space="preserve"
   id="svg2"
   version="1.1"><metadata
     id="metadata8"><rdf:RDF><cc:Work
         rdf:about=""><dc:format>image/svg+xml</dc:format><dc:type
           rdf:resource="http://purl.org/dc/dcmitype/StillImage" /></cc:Work></rdf:RDF></metadata><defs
     id="defs6"><clipPath
       id="clipPath18"
       clipPathUnits="userSpaceOnUse"><path
         id="path16"
         d="M 0,49.248 H 49.249 V 0 H 0 Z" /></clipPath></defs><g
     transform="matrix(1.3333333,0,0,-1.3333333,0,65.664)"
     id="g10"><g
       id="g12"><g
         clip-path="url(#clipPath18)"
         id="g14"><g
           transform="translate(31.2432,10.2793)"
           id="g20"><path
             id="path22"
             style="fill:#abbacc;fill-opacity:1;fill-rule:nonzero;stroke:none"
             d="m 0,0 c -1.015,0 -6.633,0.133 -8.067,0.133 -1.435,0 -8.912,2.332 -8.912,10.558 0,1.465 -0.001,2.938 -0.005,4.405 -0.006,1.367 -0.035,2.732 -0.039,4.09 -0.001,0.396 -0.003,0.793 -0.005,1.189 -0.01,2.072 -0.185,4.404 0.481,6.395 0.51,1.517 1.716,2.125 3.201,2.125 3.594,0 3.834,-3.665 3.844,-7.344 H 0.885 c 1.645,0 2.873,-1.668 2.873,-4.221 0,-2.551 -2.661,-3.123 -4.055,-3.123 h -9.32 c -0.047,-1.562 -0.097,-2.834 -0.097,-3.607 0,-1.625 0.634,-3.385 4.603,-3.385 h 5.578 c 1.392,0 3.46,-1.055 3.46,-4.002 C 3.927,0.27 1.014,0 0,0 m -6.618,38.969 c -13.601,0 -24.625,-11.028 -24.625,-24.625 0,-13.6 11.024,-24.623 24.625,-24.623 13.6,0 24.624,11.023 24.624,24.623 0,13.597 -11.024,24.625 -24.624,24.625" /></g></g></g></g></svg>