<?xml version="1.0" encoding="UTF-8" standalone="no"?>
<svg
   xmlns:dc="http://purl.org/dc/elements/1.1/"
   xmlns:cc="http://creativecommons.org/ns#"
   xmlns:rdf="http://www.w3.org/1999/02/22-rdf-syntax-ns#"
   xmlns:svg="http://www.w3.org/2000/svg"
   xmlns="http://www.w3.org/2000/svg"
   viewBox="0 0 271.99066 175.82668"
   height="175.82668"
   width="271.99066"
   xml:space="preserve"
   id="svg2"
   version="1.1"><metadata
     id="metadata8"><rdf:RDF><cc:Work
         rdf:about=""><dc:format>image/svg+xml</dc:format><dc:type
           rdf:resource="http://purl.org/dc/dcmitype/StillImage" /></cc:Work></rdf:RDF></metadata><defs
     id="defs6"><clipPath
       id="clipPath18"
       clipPathUnits="userSpaceOnUse"><path
         id="path16"
         d="M 0,131.87 H 203.993 V 0 H 0 Z" /></clipPath></defs><g
     transform="matrix(1.3333333,0,0,-1.3333333,0,175.82667)"
     id="g10"><g
       id="g12"><g
         clip-path="url(#clipPath18)"
         id="g14"><g
           transform="translate(45.224,74.029)"
           id="g20"><path
             id="path22"
             style="fill:none;stroke:#93278f;stroke-width:3;stroke-linecap:butt;stroke-linejoin:round;stroke-miterlimit:4;stroke-dasharray:none;stroke-opacity:1"
             d="m 0,0 c -24.029,0 -43.517,-19.385 -43.724,-43.364 h 0.274 c -0.395,-3.955 2.404,-6.811 7.344,-6.811 H -5.951 C -1.917,-32.121 9.702,-16.933 25.382,-8.134 18.226,-3.017 9.46,0 0,0 Z m 0,7.417 c 11.77,0 21.305,9.54 21.305,21.31 0,11.765 -9.535,21.303 -21.305,21.303 -11.767,0 -21.308,-9.538 -21.308,-21.303 0,-11.77 9.541,-21.31 21.308,-21.31 z" /></g><g
           transform="translate(129.4317,102.9714)"
           id="g24"><path
             id="path26"
             style="fill:none;stroke:#93278f;stroke-width:3;stroke-linecap:butt;stroke-linejoin:round;stroke-miterlimit:4;stroke-dasharray:none;stroke-opacity:1"
             d="m 0,0 c 0,-15.134 -12.27,-27.402 -27.399,-27.402 -15.139,0 -27.404,12.268 -27.404,27.402 0,15.131 12.265,27.399 27.404,27.399 C -12.27,27.399 0,15.131 0,0 Z" /></g><g
           transform="translate(158.2744,10.2581)"
           id="g28"><path
             id="path30"
             style="fill:none;stroke:#93278f;stroke-width:3;stroke-linecap:butt;stroke-linejoin:round;stroke-miterlimit:4;stroke-dasharray:none;stroke-opacity:1"
             d="m 0,0 c -0.264,30.841 -25.342,55.768 -56.241,55.768 -30.903,0 -55.973,-24.927 -56.242,-55.768 h 0.357 c -0.497,-5.096 3.101,-8.758 9.447,-8.758 h 92.883 c 6.322,0 9.933,3.662 9.43,8.758 z" /></g><g
           transform="translate(158.7637,74.029)"
           id="g32"><path
             id="path34"
             style="fill:none;stroke:#93278f;stroke-width:3;stroke-linecap:butt;stroke-linejoin:round;stroke-miterlimit:4;stroke-dasharray:none;stroke-opacity:1"
             d="m 0,0 c -9.455,0 -18.197,-3.009 -25.347,-8.113 15.696,-8.798 27.339,-23.992 31.37,-42.062 h 30.078 c 4.939,0 7.733,2.856 7.354,6.811 h 0.274 C 43.533,-19.385 24.029,0 0,0 Z m 0,7.417 c 11.77,0 21.305,9.54 21.305,21.31 0,11.765 -9.535,21.303 -21.305,21.303 -11.558,0 -20.94,-9.213 -21.273,-20.7 0,-0.13 0.008,-0.256 0.008,-0.388 0,-0.204 -0.024,-0.403 -0.024,-0.607 C -21.077,16.75 -11.636,7.417 0,7.417 Z" /></g></g></g></g></svg>