<?xml version="1.0" encoding="UTF-8" standalone="no"?>
<svg
   xmlns:dc="http://purl.org/dc/elements/1.1/"
   xmlns:cc="http://creativecommons.org/ns#"
   xmlns:rdf="http://www.w3.org/1999/02/22-rdf-syntax-ns#"
   xmlns:svg="http://www.w3.org/2000/svg"
   xmlns="http://www.w3.org/2000/svg"
   viewBox="0 0 65.682266 75.265602"
   height="75.265602"
   width="65.682266"
   xml:space="preserve"
   id="svg2"
   version="1.1"><metadata
     id="metadata8"><rdf:RDF><cc:Work
         rdf:about=""><dc:format>image/svg+xml</dc:format><dc:type
           rdf:resource="http://purl.org/dc/dcmitype/StillImage" /></cc:Work></rdf:RDF></metadata><defs
     id="defs6"><clipPath
       id="clipPath18"
       clipPathUnits="userSpaceOnUse"><path
         id="path16"
         d="M 0,56.449 H 49.262 V 0 H 0 Z" /></clipPath></defs><g
     transform="matrix(1.3333333,0,0,-1.3333333,0,75.2656)"
     id="g10"><g
       id="g12"><g
         clip-path="url(#clipPath18)"
         id="g14"><g
           transform="translate(36.6338,44.4453)"
           id="g20"><path
             id="path22"
             style="fill:#fff;fill-opacity:1;fill-rule:nonzero;stroke:none"
             d="m 0,0 c 0,-6.627 -5.37,-12 -12.002,-12 -6.629,0 -12.002,5.373 -12.002,12 0,6.631 5.373,12.004 12.002,12.004 C -5.37,12.004 0,6.631 0,0" /></g><g
           transform="translate(25.5752,28.2188)"
           id="g24"><path
             id="path26"
             style="fill:#fff;fill-opacity:1;fill-rule:nonzero;stroke:none"
             d="m 0,0 3.38,-15.305 c 0.24,-1.081 -0.206,-2.608 -0.988,-3.39 l -1.93,-1.928 c -0.782,-0.782 -2.066,-0.782 -2.849,0 l -1.893,1.896 c -0.783,0.783 -1.226,2.309 -0.983,3.389 l 3.437,15.34 c -13.124,-0.464 -23.637,-11.17 -23.749,-24.385 h 0.157 c -0.221,-2.225 1.357,-3.836 4.132,-3.836 h 40.68 c 2.778,0 4.356,1.611 4.134,3.836 h 0.159 C 23.579,-11.191 13.097,-0.5 0,0" /></g></g></g></g></svg>