<?xml version="1.0" encoding="UTF-8" standalone="no"?>
<svg
   xmlns:dc="http://purl.org/dc/elements/1.1/"
   xmlns:cc="http://creativecommons.org/ns#"
   xmlns:rdf="http://www.w3.org/1999/02/22-rdf-syntax-ns#"
   xmlns:svg="http://www.w3.org/2000/svg"
   xmlns="http://www.w3.org/2000/svg"
   viewBox="0 0 157.92532 204.98933"
   height="204.98933"
   width="157.92532"
   xml:space="preserve"
   id="svg2"
   version="1.1"><metadata
     id="metadata8"><rdf:RDF><cc:Work
         rdf:about=""><dc:format>image/svg+xml</dc:format><dc:type
           rdf:resource="http://purl.org/dc/dcmitype/StillImage" /></cc:Work></rdf:RDF></metadata><defs
     id="defs6"><clipPath
       id="clipPath18"
       clipPathUnits="userSpaceOnUse"><path
         id="path16"
         d="M 0,153.742 H 118.444 V 0 H 0 Z" /></clipPath></defs><g
     transform="matrix(1.3333333,0,0,-1.3333333,0,204.98933)"
     id="g10"><g
       id="g12"><g
         clip-path="url(#clipPath18)"
         id="g14"><g
           transform="translate(5.7276,0.25)"
           id="g20"><path
             id="path22"
             style="fill:#ffffff;fill-opacity:1;fill-rule:nonzero;stroke:none"
             d="m 0,0 c -3.013,0 -5.478,2.465 -5.478,5.477 v 142.288 c 0,3.012 2.465,5.477 5.478,5.477 h 106.989 c 3.013,0 5.478,-2.465 5.478,-5.477 V 5.477 C 112.467,2.465 110.002,0 106.989,0 Z" /></g><g
           transform="translate(5.7276,0.25)"
           id="g24"><path
             id="path26"
             style="fill:none;stroke:#999999;stroke-width:0.5;stroke-linecap:butt;stroke-linejoin:round;stroke-miterlimit:4;stroke-dasharray:none;stroke-opacity:1"
             d="m 0,0 c -3.013,0 -5.478,2.465 -5.478,5.477 v 142.288 c 0,3.012 2.465,5.477 5.478,5.477 h 106.989 c 3.013,0 5.478,-2.465 5.478,-5.477 V 5.477 C 112.467,2.465 110.002,0 106.989,0 Z" /></g><g
           transform="translate(5.8633,0.9804)"
           id="g28"><path
             id="path30"
             style="fill:none;stroke:#999999;stroke-width:0.5;stroke-linecap:butt;stroke-linejoin:round;stroke-miterlimit:4;stroke-dasharray:none;stroke-opacity:1"
             d="m 0,0 c -2.677,0 -4.868,2.191 -4.868,4.868 v 142.045 c 0,2.677 2.191,4.868 4.868,4.868 h 106.718 c 2.678,0 4.869,-2.191 4.869,-4.868 V 4.868 C 111.587,2.191 109.396,0 106.718,0 Z" /></g><g
           transform="translate(12.7979,14.9775)"
           id="g32"><path
             id="path34"
             style="fill:none;stroke:#999999;stroke-width:0.5;stroke-linecap:butt;stroke-linejoin:round;stroke-miterlimit:4;stroke-dasharray:none;stroke-opacity:1"
             d="m 0,0 c -0.335,0 -0.609,0.274 -0.609,0.608 v 124.275 c 0,0.334 0.274,0.608 0.609,0.608 h 92.85 c 0.335,0 0.608,-0.274 0.608,-0.608 V 0.608 C 93.458,0.274 93.185,0 92.85,0 Z" /></g><g
           transform="translate(59.2227,145.8242)"
           id="g36"><path
             id="path38"
             style="fill:none;stroke:#999999;stroke-width:0.5;stroke-linecap:butt;stroke-linejoin:round;stroke-miterlimit:4;stroke-dasharray:none;stroke-opacity:1"
             d="m 0,0 c -0.538,0 -0.975,0.436 -0.975,0.974 0,0.538 0.437,0.973 0.975,0.973 0.537,0 0.974,-0.435 0.974,-0.973 C 0.974,0.436 0.537,0 0,0 Z" /></g><g
           transform="translate(59.2227,4.0234)"
           id="g40"><path
             id="path42"
             style="fill:none;stroke:#999999;stroke-width:0.5;stroke-linecap:butt;stroke-linejoin:round;stroke-miterlimit:4;stroke-dasharray:none;stroke-opacity:1"
             d="M 0,0 C -1.949,0 -3.53,1.58 -3.53,3.529 -3.53,5.479 -1.949,7.06 0,7.06 1.949,7.06 3.529,5.479 3.529,3.529 3.529,1.58 1.949,0 0,0 Z" /></g><g
           transform="translate(12.7979,14.9775)"
           id="g44"><path
             id="path46"
             style="fill:none;stroke:#999999;stroke-width:0.5;stroke-linecap:butt;stroke-linejoin:round;stroke-miterlimit:4;stroke-dasharray:none;stroke-opacity:1"
             d="m 0,0 c -0.335,0 -0.609,0.274 -0.609,0.608 v 124.275 c 0,0.334 0.274,0.608 0.609,0.608 h 92.85 c 0.335,0 0.608,-0.274 0.608,-0.608 V 0.608 C 93.458,0.274 93.185,0 92.85,0 Z" /></g></g></g></g></svg>