<?xml version="1.0" encoding="UTF-8" standalone="no"?>
<svg
   xmlns:dc="http://purl.org/dc/elements/1.1/"
   xmlns:cc="http://creativecommons.org/ns#"
   xmlns:rdf="http://www.w3.org/1999/02/22-rdf-syntax-ns#"
   xmlns:svg="http://www.w3.org/2000/svg"
   xmlns="http://www.w3.org/2000/svg"
   viewBox="0 0 100.0912 83.471336"
   height="83.471336"
   width="100.0912"
   xml:space="preserve"
   id="svg2"
   version="1.1"><metadata
     id="metadata8"><rdf:RDF><cc:Work
         rdf:about=""><dc:format>image/svg+xml</dc:format><dc:type
           rdf:resource="http://purl.org/dc/dcmitype/StillImage" /></cc:Work></rdf:RDF></metadata><defs
     id="defs6"><clipPath
       id="clipPath18"
       clipPathUnits="userSpaceOnUse"><path
         id="path16"
         d="M 0,62.604 H 75.068 V 0 H 0 Z" /></clipPath></defs><g
     transform="matrix(1.3333333,0,0,-1.3333333,0,83.471333)"
     id="g10"><g
       id="g12"><g
         clip-path="url(#clipPath18)"
         id="g14"><g
           transform="translate(47.5215,13.6206)"
           id="g20"><path
             id="path22"
             style="fill:none;stroke:#93278f;stroke-width:1.29999995;stroke-linecap:butt;stroke-linejoin:miter;stroke-miterlimit:4;stroke-dasharray:none;stroke-opacity:1"
             d="m 0,0 h -42.619 c -2.339,0 -4.252,1.914 -4.252,4.252 v 39.829 c 0,2.339 1.913,4.252 4.252,4.252 h 65.264 c 2.338,0 4.251,-1.913 4.251,-4.252 V 4.252 C 26.896,1.914 24.983,0 22.645,0 h -5.813" /></g><g
           transform="translate(47.6875,23.5254)"
           id="g24"><path
             id="path26"
             style="fill:none;stroke:#93278f;stroke-width:1.29999995;stroke-linecap:butt;stroke-linejoin:miter;stroke-miterlimit:4;stroke-dasharray:none;stroke-opacity:1"
             d="m 0,0 h -42.355 c -0.468,0 -0.851,0.382 -0.851,0.85 v 32.595 c 0,0.468 0.383,0.85 0.851,0.85 h 64.404 c 0.468,0 0.85,-0.382 0.85,-0.85 V 0.85 C 22.899,0.382 22.517,0 22.049,0 h -5.384" /></g><g
           transform="translate(64.1689,1.8853)"
           id="g28"><path
             id="path30"
             style="fill:none;stroke:#93278f;stroke-width:1.29999995;stroke-linecap:butt;stroke-linejoin:miter;stroke-miterlimit:4;stroke-dasharray:none;stroke-opacity:1"
             d="m 0,0 c 0,-0.68 -0.557,-1.235 -1.236,-1.235 h -13.711 c -0.68,0 -1.235,0.555 -1.235,1.235 v 30.382 c 0,0.68 0.555,1.236 1.235,1.236 H -1.236 C -0.557,31.618 0,31.062 0,30.382 Z" /></g><g
           transform="translate(62.374,6.5898)"
           id="g32"><path
             id="path34"
             style="fill:none;stroke:#93278f;stroke-width:1.29999995;stroke-linecap:butt;stroke-linejoin:miter;stroke-miterlimit:4;stroke-dasharray:none;stroke-opacity:1"
             d="m 0,0 c 0,-0.479 -0.34,-0.872 -0.752,-0.872 h -11.087 c -0.414,0 -0.753,0.393 -0.753,0.872 v 21.461 c 0,0.48 0.339,0.872 0.753,0.872 H -0.752 C -0.34,22.333 0,21.941 0,21.461 Z" /></g><g
           transform="translate(57.4834,3.2759)"
           id="g36"><path
             id="path38"
             style="fill:#93278f;fill-opacity:1;fill-rule:nonzero;stroke:none"
             d="m 0,0 c 0,-0.776 -0.63,-1.405 -1.406,-1.405 -0.775,0 -1.405,0.629 -1.405,1.405 0,0.775 0.63,1.404 1.405,1.404 C -0.63,1.404 0,0.775 0,0" /></g><g
           transform="translate(54.5781,31.1338)"
           id="g40"><path
             id="path42"
             style="fill:none;stroke:#93278f;stroke-width:1.29999995;stroke-linecap:round;stroke-linejoin:miter;stroke-miterlimit:4;stroke-dasharray:none;stroke-opacity:1"
             d="M 0,0 H 3" /></g></g></g></g></svg>