<?xml version="1.0" encoding="UTF-8" standalone="no"?>
<svg
   xmlns:dc="http://purl.org/dc/elements/1.1/"
   xmlns:cc="http://creativecommons.org/ns#"
   xmlns:rdf="http://www.w3.org/1999/02/22-rdf-syntax-ns#"
   xmlns:svg="http://www.w3.org/2000/svg"
   xmlns="http://www.w3.org/2000/svg"
   viewBox="0 0 79.4664 91.061729"
   height="91.061729"
   width="79.4664"
   xml:space="preserve"
   id="svg2"
   version="1.1"><metadata
     id="metadata8"><rdf:RDF><cc:Work
         rdf:about=""><dc:format>image/svg+xml</dc:format><dc:type
           rdf:resource="http://purl.org/dc/dcmitype/StillImage" /></cc:Work></rdf:RDF></metadata><defs
     id="defs6"><clipPath
       id="clipPath18"
       clipPathUnits="userSpaceOnUse"><path
         id="path16"
         d="M 0,68.296 H 59.6 V 0 H 0 Z" /></clipPath></defs><g
     transform="matrix(1.3333333,0,0,-1.3333333,0,91.061733)"
     id="g10"><g
       id="g12"><g
         clip-path="url(#clipPath18)"
         id="g14"><g
           transform="translate(44.3225,53.7737)"
           id="g20"><path
             id="path22"
             style="fill:#fff;fill-opacity:1;fill-rule:nonzero;stroke:none"
             d="m 0,0 c 0,-8.018 -6.498,-14.519 -14.52,-14.519 -8.022,0 -14.518,6.501 -14.518,14.519 0,8.022 6.496,14.523 14.518,14.523 C -6.498,14.523 0,8.022 0,0" /></g><g
           transform="translate(59.5998,4.6417)"
           id="g24"><path
             id="path26"
             style="fill:#fff;fill-opacity:1;fill-rule:nonzero;stroke:none"
             d="M 0,0 C -0.131,16.346 -13.421,29.556 -29.8,29.556 -46.177,29.556 -59.462,16.346 -59.6,0 h 0.191 c -0.267,-2.692 1.642,-4.642 4.998,-4.642 h 49.219 c 3.361,0 5.27,1.95 5.004,4.642 z" /></g></g></g></g></svg>