<?xml version="1.0" encoding="UTF-8" standalone="no"?>
<svg
   xmlns:dc="http://purl.org/dc/elements/1.1/"
   xmlns:cc="http://creativecommons.org/ns#"
   xmlns:rdf="http://www.w3.org/1999/02/22-rdf-syntax-ns#"
   xmlns:svg="http://www.w3.org/2000/svg"
   xmlns="http://www.w3.org/2000/svg"
   viewBox="0 0 81.338531 160.32533"
   height="160.32533"
   width="81.338531"
   xml:space="preserve"
   id="svg2"
   version="1.1"><metadata
     id="metadata8"><rdf:RDF><cc:Work
         rdf:about=""><dc:format>image/svg+xml</dc:format><dc:type
           rdf:resource="http://purl.org/dc/dcmitype/StillImage" /></cc:Work></rdf:RDF></metadata><defs
     id="defs6"><clipPath
       id="clipPath18"
       clipPathUnits="userSpaceOnUse"><path
         id="path16"
         d="M 0,120.244 H 61.004 V 0 H 0 Z" /></clipPath></defs><g
     transform="matrix(1.3333333,0,0,-1.3333333,0,160.32533)"
     id="g10"><g
       id="g12"><g
         clip-path="url(#clipPath18)"
         id="g14"><g
           transform="translate(8.2598,118.2441)"
           id="g20"><path
             id="path22"
             style="fill:#b2bccb;fill-opacity:1;fill-rule:nonzero;stroke:none"
             d="m 0,0 c -3.451,0 -6.26,-2.809 -6.26,-6.26 v -103.724 c 0,-3.452 2.809,-6.26 6.26,-6.26 h 44.484 c 3.452,0 6.26,2.808 6.26,6.26 V -6.26 c 0,3.451 -2.808,6.26 -6.26,6.26 z M 44.484,-116.744 H 0 c -3.728,0 -6.76,3.032 -6.76,6.76 V -6.26 c 0,3.728 3.032,6.76 6.76,6.76 h 44.484 c 3.728,0 6.76,-3.032 6.76,-6.76 v -103.724 c 0,-3.728 -3.032,-6.76 -6.76,-6.76" /></g><g
           transform="translate(8.2598,118.2441)"
           id="g24"><path
             id="path26"
             style="fill:none;stroke:#b2bccb;stroke-width:3;stroke-linecap:round;stroke-linejoin:round;stroke-miterlimit:4;stroke-dasharray:none;stroke-opacity:1"
             d="m 0,0 c -3.451,0 -6.26,-2.809 -6.26,-6.26 v -103.724 c 0,-3.452 2.809,-6.26 6.26,-6.26 h 44.484 c 3.452,0 6.26,2.808 6.26,6.26 V -6.26 c 0,3.451 -2.808,6.26 -6.26,6.26 z M 44.484,-116.744 H 0 c -3.728,0 -6.76,3.032 -6.76,6.76 V -6.26 c 0,3.728 3.032,6.76 6.76,6.76 h 44.484 c 3.728,0 6.76,-3.032 6.76,-6.76 v -103.724 c 0,-3.728 -3.032,-6.76 -6.76,-6.76 z" /></g><g
           transform="translate(8.2197,117.4326)"
           id="g28"><path
             id="path30"
             style="fill:#b2bccb;fill-opacity:1;fill-rule:nonzero;stroke:none"
             d="m 0,0 c -2.974,0 -5.393,-2.419 -5.393,-5.392 v -103.62 c 0,-2.972 2.419,-5.391 5.393,-5.391 h 44.564 c 2.974,0 5.393,2.419 5.393,5.391 V -5.392 C 49.957,-2.419 47.538,0 44.564,0 Z M 44.564,-114.903 H 0 c -3.249,0 -5.893,2.642 -5.893,5.891 V -5.392 C -5.893,-2.143 -3.249,0.5 0,0.5 h 44.564 c 3.249,0 5.893,-2.643 5.893,-5.892 v -103.62 c 0,-3.249 -2.644,-5.891 -5.893,-5.891" /></g><g
           transform="translate(8.2197,117.4326)"
           id="g32"><path
             id="path34"
             style="fill:none;stroke:#b2bccb;stroke-width:3;stroke-linecap:round;stroke-linejoin:round;stroke-miterlimit:4;stroke-dasharray:none;stroke-opacity:1"
             d="m 0,0 c -2.974,0 -5.393,-2.419 -5.393,-5.392 v -103.62 c 0,-2.972 2.419,-5.391 5.393,-5.391 h 44.564 c 2.974,0 5.393,2.419 5.393,5.391 V -5.392 C 49.957,-2.419 47.538,0 44.564,0 Z M 44.564,-114.903 H 0 c -3.249,0 -5.893,2.642 -5.893,5.891 V -5.392 C -5.893,-2.143 -3.249,0.5 0,0.5 h 44.564 c 3.249,0 5.893,-2.643 5.893,-5.892 v -103.62 c 0,-3.249 -2.644,-5.891 -5.893,-5.891 z" /></g><g
           transform="translate(30.502,5.8398)"
           id="g36"><path
             id="path38"
             style="fill:#b2bccb;fill-opacity:1;fill-rule:nonzero;stroke:none"
             d="m 0,0 c -2.89,0 -5.241,2.352 -5.241,5.241 0,2.89 2.351,5.241 5.241,5.241 2.89,0 5.241,-2.351 5.241,-5.241 C 5.241,2.352 2.89,0 0,0" /></g><g
           transform="translate(20.3936,108.6963)"
           id="g40"><path
             id="path42"
             style="fill:#b2bccb;fill-opacity:1;fill-rule:nonzero;stroke:none"
             d="m 0,0 c -0.796,0 -1.443,0.647 -1.443,1.443 0,0.796 0.647,1.444 1.443,1.444 0.796,0 1.443,-0.648 1.443,-1.444 C 1.443,0.647 0.796,0 0,0" /></g><g
           transform="translate(31.3154,113.9375)"
           id="g44"><path
             id="path46"
             style="fill:#b2bccb;fill-opacity:1;fill-rule:nonzero;stroke:none"
             d="m 0,0 c 0,-0.449 -0.364,-0.814 -0.813,-0.814 -0.45,0 -0.814,0.365 -0.814,0.814 0,0.449 0.364,0.813 0.814,0.813 C -0.364,0.813 0,0.449 0,0" /></g><g
           transform="translate(31.3154,113.9375)"
           id="g48"><path
             id="path50"
             style="fill:none;stroke:#b2bccb;stroke-width:1;stroke-linecap:butt;stroke-linejoin:miter;stroke-miterlimit:4;stroke-dasharray:none;stroke-opacity:1"
             d="m 0,0 c 0,-0.449 -0.364,-0.814 -0.813,-0.814 -0.45,0 -0.814,0.365 -0.814,0.814 0,0.449 0.364,0.813 0.814,0.813 C -0.364,0.813 0,0.449 0,0 Z" /></g><g
           transform="translate(35.9404,110.0439)"
           id="g52"><path
             id="path54"
             style="fill:#b2bccb;fill-opacity:1;fill-rule:nonzero;stroke:none"
             d="m 0,0 c 0,-0.298 -0.392,-0.542 -0.869,-0.542 h -9.764 c -0.478,0 -0.869,0.244 -0.869,0.542 0,0.298 0.391,0.542 0.869,0.542 h 9.764 C -0.392,0.542 0,0.298 0,0" /></g><g
           transform="translate(35.9404,110.0439)"
           id="g56"><path
             id="path58"
             style="fill:none;stroke:#b2bccb;stroke-width:2;stroke-linecap:round;stroke-linejoin:round;stroke-miterlimit:4;stroke-dasharray:none;stroke-opacity:1"
             d="m 0,0 c 0,-0.298 -0.392,-0.542 -0.869,-0.542 h -9.764 c -0.478,0 -0.869,0.244 -0.869,0.542 0,0.298 0.391,0.542 0.869,0.542 h 9.764 C -0.392,0.542 0,0.298 0,0 Z" /></g><g
           transform="translate(3.8223,102.5742)"
           id="g60"><path
             id="path62"
             style="fill:none;stroke:#b2bccb;stroke-width:4;stroke-linecap:round;stroke-linejoin:round;stroke-miterlimit:4;stroke-dasharray:none;stroke-opacity:1"
             d="M 0,0 H 52.667" /></g><g
           transform="translate(3.8223,19.9072)"
           id="g64"><path
             id="path66"
             style="fill:none;stroke:#b2bccb;stroke-width:4;stroke-linecap:round;stroke-linejoin:round;stroke-miterlimit:4;stroke-dasharray:none;stroke-opacity:1"
             d="M 0,0 H 52.667" /></g></g></g></g></svg>