<?xml version="1.0" encoding="UTF-8" standalone="no"?>
<svg
   xmlns:dc="http://purl.org/dc/elements/1.1/"
   xmlns:cc="http://creativecommons.org/ns#"
   xmlns:rdf="http://www.w3.org/1999/02/22-rdf-syntax-ns#"
   xmlns:svg="http://www.w3.org/2000/svg"
   xmlns="http://www.w3.org/2000/svg"
   viewBox="0 0 41.411469 27.697866"
   height="27.697866"
   width="41.411469"
   xml:space="preserve"
   id="svg2"
   version="1.1"><metadata
     id="metadata8"><rdf:RDF><cc:Work
         rdf:about=""><dc:format>image/svg+xml</dc:format><dc:type
           rdf:resource="http://purl.org/dc/dcmitype/StillImage" /></cc:Work></rdf:RDF></metadata><defs
     id="defs6"><clipPath
       id="clipPath18"
       clipPathUnits="userSpaceOnUse"><path
         id="path16"
         d="M 0,20.773 H 31.059 V 0 H 0 Z" /></clipPath></defs><g
     transform="matrix(1.3333333,0,0,-1.3333333,0,27.697867)"
     id="g10"><g
       id="g12"><g
         clip-path="url(#clipPath18)"
         id="g14"><g
           transform="translate(29.459,2.1894)"
           id="g20"><path
             id="path22"
             style="fill:#fff;fill-opacity:1;fill-rule:nonzero;stroke:none"
             d="m 0,0 c 0,-0.164 -0.064,-0.307 -0.174,-0.418 -0.111,-0.107 -0.252,-0.174 -0.42,-0.174 H -27.27 c -0.16,0 -0.306,0.067 -0.417,0.174 -0.11,0.111 -0.17,0.254 -0.17,0.418 v 16.393 c 0,0.086 0.015,0.166 0.046,0.234 l 12.293,-9.541 c 0.473,-0.363 1.034,-0.518 1.588,-0.52 0.555,0.002 1.116,0.157 1.59,0.52 l 12.291,9.541 C -0.018,16.559 0,16.479 0,16.393 Z M -0.594,18.584 H -27.27 c -1.207,-0.004 -2.185,-0.982 -2.189,-2.191 V 0 c 0.004,-1.209 0.982,-2.188 2.189,-2.189 H -0.594 C 0.619,-2.188 1.598,-1.209 1.6,0 v 16.393 c -0.002,1.209 -0.981,2.187 -2.194,2.191" /></g></g></g></g></svg>