<?xml version="1.0" encoding="UTF-8" standalone="no"?>
<svg
   xmlns:dc="http://purl.org/dc/elements/1.1/"
   xmlns:cc="http://creativecommons.org/ns#"
   xmlns:rdf="http://www.w3.org/1999/02/22-rdf-syntax-ns#"
   xmlns:svg="http://www.w3.org/2000/svg"
   xmlns="http://www.w3.org/2000/svg"
   viewBox="0 0 337.12 193.62666"
   height="193.62666"
   width="337.12"
   xml:space="preserve"
   id="svg2"
   version="1.1"><metadata
     id="metadata8"><rdf:RDF><cc:Work
         rdf:about=""><dc:format>image/svg+xml</dc:format><dc:type
           rdf:resource="http://purl.org/dc/dcmitype/StillImage" /></cc:Work></rdf:RDF></metadata><defs
     id="defs6" /><g
     transform="matrix(1.3333333,0,0,-1.3333333,0,193.62667)"
     id="g10"><g
       transform="scale(0.1)"
       id="g12"><path
         id="path14"
         style="fill:#841e8f;fill-opacity:1;fill-rule:evenodd;stroke:none"
         d="M 1638.75,192.238 C 1491.15,82.7695 1308.11,18.6914 1091.08,0 H 813.43 C 594.848,18.6914 412.102,82.7695 266.91,192.238 88.9844,324.27 0,496.477 0,708.859 c 0,209.512 88.9844,378.891 266.91,510.881 175.086,134.87 404.653,200.87 685.899,200.87 278.401,0 507.971,-66 685.941,-200.87 175.05,-131.99 264.03,-301.369 264.03,-510.881 0,-212.382 -88.98,-384.589 -264.03,-516.621" /><path
         id="path16"
         style="fill:#841e8f;fill-opacity:1;fill-rule:evenodd;stroke:none"
         d="M 2270.1,22.9805 2011.84,54.5703 2040.53,281.219 2298.81,249.68 2270.1,22.9805" /><path
         id="path18"
         style="fill:#841e8f;fill-opacity:1;fill-rule:evenodd;stroke:none"
         d="m 2528.43,1397.71 -441.97,54.48 2.85,-1024.62 192.31,-25.789 246.81,995.929" /><path
         id="path20"
         style="fill:#841e8f;fill-opacity:1;fill-rule:evenodd;stroke:none"
         d="m 1506.72,883.957 -134.87,-28.75 c -20.12,-5.664 -74.63,-45.887 -169.34,-123.406 -100.45,-80.34 -152.12,-131.992 -160.72,-157.848 l -5.73,-71.723 -2.88,-43.082 11.48,-109.007 177.94,-2.879 -2.88,-54.524 H 929.867 l -258.304,-2.886 8.613,51.687 83.215,2.832 c 43.07,2.891 68.914,8.609 77.515,17.289 5.735,5.66 8.59,40.121 8.59,100.414 v 37.239 l -2.855,74.64 C 840.906,591.18 794.973,654.301 706.02,763.395 614.188,875.32 553.895,941.355 525.18,964.34 l -166.457,22.949 v 48.811 c 8.636,5.67 100.48,5.67 269.812,2.83 117.649,2.84 215.242,2.84 292.738,-2.83 l -5.75,-40.209 -175.074,-17.286 C 794.973,898.27 878.215,786.379 990.152,645.738 1136.51,757.664 1213.98,829.43 1216.85,860.973 l -149.21,22.984 -11.5,51.641 h 249.71 l 235.29,-2.871 -34.42,-48.77" /><path
         id="path22"
         style="fill:#841e8f;fill-opacity:1;fill-rule:evenodd;stroke:none"
         d="m 2367.69,249.68 h -20.07 v 14.3 h 54.53 v -14.3 h -20.07 v -54.532 h -14.39 v 54.532" /><path
         id="path24"
         style="fill:#841e8f;fill-opacity:1;fill-rule:evenodd;stroke:none"
         d="m 2430.85,243.922 v -48.774 h -14.36 v 68.832 h 17.24 l 20.11,-34.402 20.06,34.402 h 14.3 v -68.832 h -14.3 v 48.774 l -20.06,-34.453 h -2.92 l -20.07,34.453" /><path
         id="path26"
         style="fill:#841e8f;fill-opacity:1;fill-rule:evenodd;stroke:none"
         d="M 1638.75,192.238 C 1491.15,82.7695 1308.11,18.6914 1091.08,0 H 813.43 C 594.848,18.6914 412.102,82.7695 266.91,192.238 88.9844,324.27 0,496.477 0,708.859 c 0,209.512 88.9844,378.891 266.91,510.881 175.086,134.87 404.653,200.87 685.899,200.87 278.401,0 507.971,-66 685.941,-200.87 175.05,-131.99 264.03,-301.369 264.03,-510.881 0,-212.382 -88.98,-384.589 -264.03,-516.621" /><path
         id="path28"
         style="fill:#841e8f;fill-opacity:1;fill-rule:evenodd;stroke:none"
         d="M 2270.1,22.9805 2011.84,54.5703 2040.53,281.219 2298.81,249.68 2270.1,22.9805" /><path
         id="path30"
         style="fill:#841e8f;fill-opacity:1;fill-rule:evenodd;stroke:none"
         d="m 2528.43,1397.71 -441.97,54.48 2.85,-1024.62 192.31,-25.789 246.81,995.929" /><path
         id="path32"
         style="fill:#ffffff;fill-opacity:1;fill-rule:evenodd;stroke:none"
         d="m 1506.72,883.957 -134.87,-28.75 c -20.12,-5.664 -74.63,-45.887 -169.34,-123.406 -100.45,-80.34 -152.12,-131.992 -160.72,-157.848 l -5.73,-71.723 -2.88,-43.082 11.48,-109.007 177.94,-2.879 -2.88,-54.524 H 929.867 l -258.304,-2.886 8.613,51.687 83.215,2.832 c 43.07,2.891 68.914,8.609 77.515,17.289 5.735,5.66 8.59,40.121 8.59,100.414 v 37.239 l -2.855,74.64 C 840.906,591.18 794.973,654.301 706.02,763.395 614.188,875.32 553.895,941.355 525.18,964.34 l -166.457,22.949 v 48.811 c 8.636,5.67 100.48,5.67 269.812,2.83 117.649,2.84 215.242,2.84 292.738,-2.83 l -5.75,-40.209 -175.074,-17.286 C 794.973,898.27 878.215,786.379 990.152,645.738 1136.51,757.664 1213.98,829.43 1216.85,860.973 l -149.21,22.984 -11.5,51.641 h 249.71 l 235.29,-2.871 -34.42,-48.77" /><path
         id="path34"
         style="fill:#841e8f;fill-opacity:1;fill-rule:evenodd;stroke:none"
         d="m 2367.69,249.68 h -20.07 v 14.3 h 54.53 v -14.3 h -20.07 v -54.532 h -14.39 v 54.532" /><path
         id="path36"
         style="fill:#841e8f;fill-opacity:1;fill-rule:evenodd;stroke:none"
         d="m 2430.85,243.922 v -48.774 h -14.36 v 68.832 h 17.24 l 20.11,-34.402 20.06,34.402 h 14.3 v -68.832 h -14.3 v 48.774 l -20.06,-34.453 h -2.92 l -20.07,34.453" /></g></g></svg>