<?xml version="1.0" encoding="UTF-8" standalone="no"?>
<svg
   xmlns:dc="http://purl.org/dc/elements/1.1/"
   xmlns:cc="http://creativecommons.org/ns#"
   xmlns:rdf="http://www.w3.org/1999/02/22-rdf-syntax-ns#"
   xmlns:svg="http://www.w3.org/2000/svg"
   xmlns="http://www.w3.org/2000/svg"
   viewBox="0 0 225.76801 187.584"
   height="187.584"
   width="225.76801"
   xml:space="preserve"
   id="svg2"
   version="1.1"><metadata
     id="metadata8"><rdf:RDF><cc:Work
         rdf:about=""><dc:format>image/svg+xml</dc:format><dc:type
           rdf:resource="http://purl.org/dc/dcmitype/StillImage" /></cc:Work></rdf:RDF></metadata><defs
     id="defs6"><clipPath
       id="clipPath18"
       clipPathUnits="userSpaceOnUse"><path
         id="path16"
         d="M 0,140.688 H 169.326 V 0 H 0 Z" /></clipPath></defs><g
     transform="matrix(1.3333333,0,0,-1.3333333,0,187.584)"
     id="g10"><g
       id="g12"><g
         clip-path="url(#clipPath18)"
         id="g14"><path
           id="path20"
           style="fill:#b2bccb;fill-opacity:1;fill-rule:nonzero;stroke:none"
           d="m 8.879,46.688 h 151.567 v 85.121 H 8.879 Z m 151.817,-0.5 H 8.629 c -0.138,0 -0.25,0.113 -0.25,0.25 v 85.622 c 0,0.137 0.112,0.25 0.25,0.25 h 152.067 c 0.138,0 0.25,-0.113 0.25,-0.25 V 46.438 c 0,-0.137 -0.112,-0.25 -0.25,-0.25" /><path
           id="path22"
           style="fill:none;stroke:#b2bccb;stroke-width:3;stroke-linecap:round;stroke-linejoin:round;stroke-miterlimit:4;stroke-dasharray:none;stroke-opacity:1"
           d="m 8.879,46.688 h 151.567 v 85.121 H 8.879 Z m 151.817,-0.5 H 8.629 c -0.138,0 -0.25,0.113 -0.25,0.25 v 85.622 c 0,0.137 0.112,0.25 0.25,0.25 h 152.067 c 0.138,0 0.25,-0.113 0.25,-0.25 V 46.438 c 0,-0.137 -0.112,-0.25 -0.25,-0.25 z" /><g
           transform="translate(5.8984,138.6885)"
           id="g24"><path
             id="path26"
             style="fill:#b2bccb;fill-opacity:1;fill-rule:nonzero;stroke:none"
             d="m 0,0 c -2.149,0 -3.898,-1.749 -3.898,-3.899 v -105.864 c 0,-2.149 1.749,-3.898 3.898,-3.898 h 157.529 c 2.15,0 3.899,1.749 3.899,3.898 V -3.899 c 0,2.15 -1.749,3.899 -3.899,3.899 z M 157.529,-114.161 H 0 c -2.426,0 -4.398,1.973 -4.398,4.398 V -3.899 C -4.398,-1.474 -2.426,0.5 0,0.5 h 157.529 c 2.426,0 4.399,-1.974 4.399,-4.399 v -105.864 c 0,-2.425 -1.973,-4.398 -4.399,-4.398" /></g><g
           transform="translate(5.8984,138.6885)"
           id="g28"><path
             id="path30"
             style="fill:none;stroke:#b2bccb;stroke-width:3;stroke-linecap:round;stroke-linejoin:round;stroke-miterlimit:4;stroke-dasharray:none;stroke-opacity:1"
             d="m 0,0 c -2.149,0 -3.898,-1.749 -3.898,-3.899 v -105.864 c 0,-2.149 1.749,-3.898 3.898,-3.898 h 157.529 c 2.15,0 3.899,1.749 3.899,3.898 V -3.899 c 0,2.15 -1.749,3.899 -3.899,3.899 z M 157.529,-114.161 H 0 c -2.426,0 -4.398,1.973 -4.398,4.398 V -3.899 C -4.398,-1.474 -2.426,0.5 0,0.5 h 157.529 c 2.426,0 4.399,-1.974 4.399,-4.399 v -105.864 c 0,-2.425 -1.973,-4.398 -4.399,-4.398 z" /></g><path
           id="path32"
           style="fill:#b2bccb;fill-opacity:1;fill-rule:nonzero;stroke:#b2bccb;stroke-width:3;stroke-linecap:round;stroke-linejoin:round;stroke-miterlimit:4;stroke-dasharray:none;stroke-opacity:1"
           d="M 167.576,39.896 H 1.603 v 0.5 h 165.973 z" /><g
           transform="translate(59.9072,2.9082)"
           id="g34"><path
             id="path36"
             style="fill:#b2bccb;fill-opacity:1;fill-rule:nonzero;stroke:none"
             d="m 0,0 c 0.104,-0.067 0.863,-0.413 5.513,-0.413 h 38.626 c 4.52,0 5.364,0.327 5.503,0.407 0.005,0.01 0.011,0.02 0.018,0.029 -0.052,0.127 -0.717,0.51 -1.304,0.849 -0.992,0.571 -2.349,1.354 -3.649,2.516 -1.67,1.494 -1.821,2.148 -2.122,3.451 -0.045,0.191 -0.093,0.398 -0.149,0.627 -0.439,1.755 -1.429,13.305 -1.471,13.796 l -0.029,0.357 H 8.716 L 8.687,21.263 C 8.645,20.771 7.654,9.221 7.215,7.466 7.158,7.236 7.109,7.027 7.065,6.835 6.765,5.534 6.613,4.881 4.944,3.388 3.645,2.226 2.287,1.443 1.295,0.872 0.723,0.542 0.076,0.17 0,0 M 44.139,-0.913 H 5.513 c -3.588,0 -5.573,0.198 -5.898,0.591 -0.016,0.018 -0.03,0.044 -0.042,0.071 -0.069,0.104 -0.093,0.22 -0.068,0.34 0.076,0.372 0.597,0.672 1.541,1.216 0.972,0.56 2.304,1.329 3.564,2.456 1.552,1.386 1.674,1.914 1.968,3.186 0.045,0.196 0.094,0.407 0.152,0.64 0.43,1.717 1.448,13.598 1.458,13.718 l 0.048,0.585 c 0.011,0.13 0.119,0.229 0.249,0.229 h 32.681 c 0.13,0 0.238,-0.099 0.249,-0.229 l 0.048,-0.586 c 0.011,-0.119 1.028,-12 1.457,-13.717 0.059,-0.232 0.106,-0.441 0.151,-0.636 0.295,-1.274 0.417,-1.802 1.97,-3.19 1.261,-1.128 2.593,-1.896 3.564,-2.456 0.945,-0.544 1.465,-0.844 1.541,-1.216 0.025,-0.119 10e-4,-0.236 -0.068,-0.34 -0.012,-0.027 -0.025,-0.053 -0.042,-0.071 -0.325,-0.393 -2.309,-0.591 -5.897,-0.591" /></g><g
           transform="translate(59.9072,2.9082)"
           id="g38"><path
             id="path40"
             style="fill:none;stroke:#b2bccb;stroke-width:3;stroke-linecap:round;stroke-linejoin:round;stroke-miterlimit:4;stroke-dasharray:none;stroke-opacity:1"
             d="m 0,0 c 0.104,-0.067 0.863,-0.413 5.513,-0.413 h 38.626 c 4.52,0 5.364,0.327 5.503,0.407 0.005,0.01 0.011,0.02 0.018,0.029 -0.052,0.127 -0.717,0.51 -1.304,0.849 -0.992,0.571 -2.349,1.354 -3.649,2.516 -1.67,1.494 -1.821,2.148 -2.122,3.451 -0.045,0.191 -0.093,0.398 -0.149,0.627 -0.439,1.755 -1.429,13.305 -1.471,13.796 l -0.029,0.357 H 8.716 L 8.687,21.263 C 8.645,20.771 7.654,9.221 7.215,7.466 7.158,7.236 7.109,7.027 7.065,6.835 6.765,5.534 6.613,4.881 4.944,3.388 3.645,2.226 2.287,1.443 1.295,0.872 0.723,0.542 0.076,0.17 0,0 Z M 44.139,-0.913 H 5.513 c -3.588,0 -5.573,0.198 -5.898,0.591 -0.016,0.018 -0.03,0.044 -0.042,0.071 -0.069,0.104 -0.093,0.22 -0.068,0.34 0.076,0.372 0.597,0.672 1.541,1.216 0.972,0.56 2.304,1.329 3.564,2.456 1.552,1.386 1.674,1.914 1.968,3.186 0.045,0.196 0.094,0.407 0.152,0.64 0.43,1.717 1.448,13.598 1.458,13.718 l 0.048,0.585 c 0.011,0.13 0.119,0.229 0.249,0.229 h 32.681 c 0.13,0 0.238,-0.099 0.249,-0.229 l 0.048,-0.586 c 0.011,-0.119 1.028,-12 1.457,-13.717 0.059,-0.232 0.106,-0.441 0.151,-0.636 0.295,-1.274 0.417,-1.802 1.97,-3.19 1.261,-1.128 2.593,-1.896 3.564,-2.456 0.945,-0.544 1.465,-0.844 1.541,-1.216 0.025,-0.119 10e-4,-0.236 -0.068,-0.34 -0.012,-0.027 -0.025,-0.053 -0.042,-0.071 -0.325,-0.393 -2.309,-0.591 -5.897,-0.591 z" /></g><g
           transform="translate(87.1758,1.5)"
           id="g42"><path
             id="path44"
             style="fill:#b2bccb;fill-opacity:1;fill-rule:nonzero;stroke:none"
             d="m 0,0 h -24.442 c -1.785,0 -2.853,0.19 -3.176,0.564 -0.117,0.137 -0.113,0.262 -0.107,0.31 l -0.003,0.407 h 0.5 V 0.838 C -27.242,0.876 -26.891,0.5 -24.442,0.5 H 0 Z" /></g><g
           transform="translate(87.1758,1.5)"
           id="g46"><path
             id="path48"
             style="fill:none;stroke:#b2bccb;stroke-width:3;stroke-linecap:round;stroke-linejoin:round;stroke-miterlimit:4;stroke-dasharray:none;stroke-opacity:1"
             d="m 0,0 h -24.442 c -1.785,0 -2.853,0.19 -3.176,0.564 -0.117,0.137 -0.113,0.262 -0.107,0.31 l -0.003,0.407 h 0.5 V 0.838 C -27.242,0.876 -26.891,0.5 -24.442,0.5 H 0 Z" /></g><g
           transform="translate(106.7773,1.5)"
           id="g50"><path
             id="path52"
             style="fill:#b2bccb;fill-opacity:1;fill-rule:nonzero;stroke:none"
             d="M 0,0 H -24.442 V 0.5 H 0 c 2.498,0 2.787,0.378 2.798,0.394 L 2.784,1.281 h 0.5 V 0.837 C 3.288,0.826 3.292,0.701 3.175,0.564 2.852,0.19 1.784,0 0,0" /></g><g
           transform="translate(106.7773,1.5)"
           id="g54"><path
             id="path56"
             style="fill:none;stroke:#b2bccb;stroke-width:3;stroke-linecap:round;stroke-linejoin:round;stroke-miterlimit:4;stroke-dasharray:none;stroke-opacity:1"
             d="M 0,0 H -24.442 V 0.5 H 0 c 2.498,0 2.787,0.378 2.798,0.394 L 2.784,1.281 h 0.5 V 0.837 C 3.288,0.826 3.292,0.701 3.175,0.564 2.852,0.19 1.784,0 0,0 Z" /></g></g></g></g></svg>