<?xml version="1.0" encoding="UTF-8" standalone="no"?>
<svg
   xmlns:dc="http://purl.org/dc/elements/1.1/"
   xmlns:cc="http://creativecommons.org/ns#"
   xmlns:rdf="http://www.w3.org/1999/02/22-rdf-syntax-ns#"
   xmlns:svg="http://www.w3.org/2000/svg"
   xmlns="http://www.w3.org/2000/svg"
   viewBox="0 0 208.98933 161.92532"
   height="161.92532"
   width="208.98933"
   xml:space="preserve"
   id="svg2"
   version="1.1"><metadata
     id="metadata8"><rdf:RDF><cc:Work
         rdf:about=""><dc:format>image/svg+xml</dc:format><dc:type
           rdf:resource="http://purl.org/dc/dcmitype/StillImage" /></cc:Work></rdf:RDF></metadata><defs
     id="defs6"><clipPath
       id="clipPath18"
       clipPathUnits="userSpaceOnUse"><path
         id="path16"
         d="M 0,121.444 H 156.742 V 0 H 0 Z" /></clipPath></defs><g
     transform="matrix(1.3333333,0,0,-1.3333333,0,161.92533)"
     id="g10"><g
       id="g12"><g
         clip-path="url(#clipPath18)"
         id="g14"><g
           transform="translate(7.2275,119.4443)"
           id="g20"><path
             id="path22"
             style="fill:#b2bccb;fill-opacity:1;fill-rule:nonzero;stroke:none"
             d="m 0,0 c -2.883,0 -5.228,-2.345 -5.228,-5.228 v -106.989 c 0,-2.883 2.345,-5.227 5.228,-5.227 h 142.287 c 2.883,0 5.228,2.344 5.228,5.227 V -5.228 C 147.515,-2.345 145.17,0 142.287,0 Z M 142.287,-117.944 H 0 c -3.158,0 -5.728,2.569 -5.728,5.727 V -5.228 c 0,3.159 2.57,5.728 5.728,5.728 h 142.287 c 3.158,0 5.728,-2.569 5.728,-5.728 v -106.989 c 0,-3.158 -2.57,-5.727 -5.728,-5.727" /></g><g
           transform="translate(7.2275,119.4443)"
           id="g24"><path
             id="path26"
             style="fill:none;stroke:#b2bccb;stroke-width:3;stroke-linecap:round;stroke-linejoin:round;stroke-miterlimit:4;stroke-dasharray:none;stroke-opacity:1"
             d="m 0,0 c -2.883,0 -5.228,-2.345 -5.228,-5.228 v -106.989 c 0,-2.883 2.345,-5.227 5.228,-5.227 h 142.287 c 2.883,0 5.228,2.344 5.228,5.227 V -5.228 C 147.515,-2.345 145.17,0 142.287,0 Z M 142.287,-117.944 H 0 c -3.158,0 -5.728,2.569 -5.728,5.727 V -5.228 c 0,3.159 2.57,5.728 5.728,5.728 h 142.287 c 3.158,0 5.728,-2.569 5.728,-5.728 v -106.989 c 0,-3.158 -2.57,-5.727 -5.728,-5.727 z" /></g><g
           transform="translate(7.3486,118.7002)"
           id="g28"><path
             id="path30"
             style="fill:#b2bccb;fill-opacity:1;fill-rule:nonzero;stroke:none"
             d="m 0,0 c -2.547,0 -4.618,-2.072 -4.618,-4.619 v -106.718 c 0,-2.547 2.071,-4.618 4.618,-4.618 h 142.045 c 2.547,0 4.618,2.071 4.618,4.618 V -4.619 c 0,2.547 -2.071,4.619 -4.618,4.619 z M 142.045,-116.455 H 0 c -2.822,0 -5.118,2.296 -5.118,5.118 V -4.619 C -5.118,-1.797 -2.822,0.5 0,0.5 h 142.045 c 2.822,0 5.118,-2.297 5.118,-5.119 v -106.718 c 0,-2.822 -2.296,-5.118 -5.118,-5.118" /></g><g
           transform="translate(7.3486,118.7002)"
           id="g32"><path
             id="path34"
             style="fill:none;stroke:#b2bccb;stroke-width:3;stroke-linecap:round;stroke-linejoin:round;stroke-miterlimit:4;stroke-dasharray:none;stroke-opacity:1"
             d="m 0,0 c -2.547,0 -4.618,-2.072 -4.618,-4.619 v -106.718 c 0,-2.547 2.071,-4.618 4.618,-4.618 h 142.045 c 2.547,0 4.618,2.071 4.618,4.618 V -4.619 c 0,2.547 -2.071,4.619 -4.618,4.619 z M 142.045,-116.455 H 0 c -2.822,0 -5.118,2.296 -5.118,5.118 V -4.619 C -5.118,-1.797 -2.822,0.5 0,0.5 h 142.045 c 2.822,0 5.118,-2.297 5.118,-5.119 v -106.718 c 0,-2.822 -2.296,-5.118 -5.118,-5.118 z" /></g><g
           transform="translate(15.3818,107.5059)"
           id="g36"><path
             id="path38"
             style="fill:#b2bccb;fill-opacity:1;fill-rule:nonzero;stroke:none"
             d="m 0,0 c -0.197,0 -0.358,-0.161 -0.358,-0.358 v -92.85 c 0,-0.198 0.161,-0.359 0.358,-0.359 h 124.274 c 0.198,0 0.359,0.161 0.359,0.359 v 92.85 c 0,0.197 -0.161,0.358 -0.359,0.358 z M 124.274,-94.067 H 0 c -0.474,0 -0.858,0.385 -0.858,0.859 v 92.85 C -0.858,0.115 -0.474,0.5 0,0.5 h 124.274 c 0.474,0 0.859,-0.385 0.859,-0.858 v -92.85 c 0,-0.474 -0.385,-0.859 -0.859,-0.859" /></g><g
           transform="translate(15.3818,107.5059)"
           id="g40"><path
             id="path42"
             style="fill:none;stroke:#b2bccb;stroke-width:3;stroke-linecap:round;stroke-linejoin:round;stroke-miterlimit:4;stroke-dasharray:none;stroke-opacity:1"
             d="m 0,0 c -0.197,0 -0.358,-0.161 -0.358,-0.358 v -92.85 c 0,-0.198 0.161,-0.359 0.358,-0.359 h 124.274 c 0.198,0 0.359,0.161 0.359,0.359 v 92.85 c 0,0.197 -0.161,0.358 -0.359,0.358 z M 124.274,-94.067 H 0 c -0.474,0 -0.858,0.385 -0.858,0.859 v 92.85 C -0.858,0.115 -0.474,0.5 0,0.5 h 124.274 c 0.474,0 0.859,-0.385 0.859,-0.858 v -92.85 c 0,-0.474 -0.385,-0.859 -0.859,-0.859 z" /></g><g
           transform="translate(8.4443,59.498)"
           id="g44"><path
             id="path46"
             style="fill:#b2bccb;fill-opacity:1;fill-rule:nonzero;stroke:none"
             d="m 0,0 c -0.675,0 -1.224,0.55 -1.224,1.225 0,0.674 0.549,1.223 1.224,1.223 0.675,0 1.224,-0.549 1.224,-1.223 C 1.224,0.55 0.675,0 0,0" /></g><g
           transform="translate(8.4443,59.498)"
           id="g48"><path
             id="path50"
             style="fill:none;stroke:#b2bccb;stroke-width:1;stroke-linecap:butt;stroke-linejoin:miter;stroke-miterlimit:4;stroke-dasharray:none;stroke-opacity:1"
             d="m 0,0 c -0.675,0 -1.224,0.55 -1.224,1.225 0,0.674 0.549,1.223 1.224,1.223 0.675,0 1.224,-0.549 1.224,-1.223 C 1.224,0.55 0.675,0 0,0 Z" /></g><g
           transform="translate(147.6895,56.9424)"
           id="g52"><path
             id="path54"
             style="fill:#b2bccb;fill-opacity:1;fill-rule:nonzero;stroke:none"
             d="m 0,0 c -2.084,0 -3.78,1.696 -3.78,3.78 0,2.084 1.696,3.78 3.78,3.78 2.084,0 3.779,-1.696 3.779,-3.78 C 3.779,1.696 2.084,0 0,0" /></g><g
           transform="translate(15.3818,107.5059)"
           id="g56"><path
             id="path58"
             style="fill:#b2bccb;fill-opacity:1;fill-rule:nonzero;stroke:none"
             d="m 0,0 c -0.197,0 -0.358,-0.161 -0.358,-0.358 v -92.85 c 0,-0.198 0.161,-0.359 0.358,-0.359 h 124.274 c 0.198,0 0.359,0.161 0.359,0.359 v 92.85 c 0,0.197 -0.161,0.358 -0.359,0.358 z M 124.274,-94.067 H 0 c -0.474,0 -0.858,0.385 -0.858,0.859 v 92.85 C -0.858,0.115 -0.474,0.5 0,0.5 h 124.274 c 0.474,0 0.859,-0.385 0.859,-0.858 v -92.85 c 0,-0.474 -0.385,-0.859 -0.859,-0.859" /></g><g
           transform="translate(15.3818,107.5059)"
           id="g60"><path
             id="path62"
             style="fill:none;stroke:#b2bccb;stroke-width:3;stroke-linecap:round;stroke-linejoin:round;stroke-miterlimit:4;stroke-dasharray:none;stroke-opacity:1"
             d="m 0,0 c -0.197,0 -0.358,-0.161 -0.358,-0.358 v -92.85 c 0,-0.198 0.161,-0.359 0.358,-0.359 h 124.274 c 0.198,0 0.359,0.161 0.359,0.359 v 92.85 c 0,0.197 -0.161,0.358 -0.359,0.358 z M 124.274,-94.067 H 0 c -0.474,0 -0.858,0.385 -0.858,0.859 v 92.85 C -0.858,0.115 -0.474,0.5 0,0.5 h 124.274 c 0.474,0 0.859,-0.385 0.859,-0.858 v -92.85 c 0,-0.474 -0.385,-0.859 -0.859,-0.859 z" /></g></g></g></g></svg>