<?xml version="1.0" encoding="UTF-8" standalone="no"?>
<svg
   xmlns:dc="http://purl.org/dc/elements/1.1/"
   xmlns:cc="http://creativecommons.org/ns#"
   xmlns:rdf="http://www.w3.org/1999/02/22-rdf-syntax-ns#"
   xmlns:svg="http://www.w3.org/2000/svg"
   xmlns="http://www.w3.org/2000/svg"
   viewBox="0 0 65.664001 65.664001"
   height="65.664001"
   width="65.664001"
   xml:space="preserve"
   id="svg2"
   version="1.1"><metadata
     id="metadata8"><rdf:RDF><cc:Work
         rdf:about=""><dc:format>image/svg+xml</dc:format><dc:type
           rdf:resource="http://purl.org/dc/dcmitype/StillImage" /></cc:Work></rdf:RDF></metadata><defs
     id="defs6"><clipPath
       id="clipPath18"
       clipPathUnits="userSpaceOnUse"><path
         id="path16"
         d="M 0,49.248 H 49.248 V 0 H 0 Z" /></clipPath></defs><g
     transform="matrix(1.3333333,0,0,-1.3333333,0,65.664)"
     id="g10"><g
       id="g12"><g
         clip-path="url(#clipPath18)"
         id="g14"><g
           transform="translate(41.1328,17.2681)"
           id="g20"><path
             id="path22"
             style="fill:#abbacc;fill-opacity:1;fill-rule:nonzero;stroke:none"
             d="m 0,0 c 0,-5.283 -4.322,-9.606 -9.605,-9.606 h -13.808 c -5.283,0 -9.605,4.323 -9.605,9.606 v 14.712 c 0,5.284 4.322,9.606 9.605,9.606 H -9.605 C -4.322,24.318 0,19.996 0,14.712 Z m -16.508,31.98 c -13.599,0 -24.625,-11.027 -24.625,-24.625 0,-13.6 11.026,-24.623 24.625,-24.623 13.6,0 24.623,11.023 24.623,24.623 0,13.598 -11.023,24.625 -24.623,24.625" /></g><g
           transform="translate(33.9131,31.8354)"
           id="g24"><path
             id="path26"
             style="fill:#abbacc;fill-opacity:1;fill-rule:nonzero;stroke:none"
             d="m 0,0 c -1.189,0 -2.153,0.965 -2.153,2.153 0,1.19 0.964,2.153 2.153,2.153 1.189,0 2.153,-0.963 2.153,-2.153 C 2.153,0.965 1.189,0 0,0 m -9.238,-16.172 c -5.022,0 -9.093,4.07 -9.093,9.092 0,5.021 4.071,9.091 9.093,9.091 5.021,0 9.092,-4.07 9.092,-9.091 0,-5.022 -4.071,-9.092 -9.092,-9.092 m 6.852,23.384 h -13.807 c -1.877,0 -3.649,-0.737 -4.989,-2.078 -1.34,-1.34 -2.078,-3.112 -2.078,-4.989 v -14.712 c 0,-1.878 0.738,-3.649 2.078,-4.99 1.34,-1.339 3.112,-2.078 4.989,-2.078 h 13.807 c 1.878,0 3.649,0.739 4.99,2.078 1.339,1.341 2.078,3.112 2.078,4.99 V 0.145 c 0,1.877 -0.739,3.649 -2.078,4.989 -1.341,1.341 -3.112,2.078 -4.99,2.078" /></g><g
           transform="translate(24.6309,30.7012)"
           id="g28"><path
             id="path30"
             style="fill:#abbacc;fill-opacity:1;fill-rule:nonzero;stroke:none"
             d="m 0,0 c -3.288,0 -5.953,-2.666 -5.953,-5.953 0,-3.289 2.665,-5.954 5.953,-5.954 3.289,0 5.954,2.665 5.954,5.954 C 5.954,-2.666 3.289,0 0,0" /></g></g></g></g></svg>