<?xml version="1.0" encoding="UTF-8" standalone="no"?>
<svg
   xmlns:dc="http://purl.org/dc/elements/1.1/"
   xmlns:cc="http://creativecommons.org/ns#"
   xmlns:rdf="http://www.w3.org/1999/02/22-rdf-syntax-ns#"
   xmlns:svg="http://www.w3.org/2000/svg"
   xmlns="http://www.w3.org/2000/svg"
   viewBox="0 0 54.514267 79.2416"
   height="79.2416"
   width="54.514267"
   xml:space="preserve"
   id="svg2"
   version="1.1"><metadata
     id="metadata8"><rdf:RDF><cc:Work
         rdf:about=""><dc:format>image/svg+xml</dc:format><dc:type
           rdf:resource="http://purl.org/dc/dcmitype/StillImage" /></cc:Work></rdf:RDF></metadata><defs
     id="defs6"><clipPath
       id="clipPath18"
       clipPathUnits="userSpaceOnUse"><path
         id="path16"
         d="M 0,59.431 H 40.886 V 0 H 0 Z" /></clipPath></defs><g
     transform="matrix(1.3333333,0,0,-1.3333333,0,79.2416)"
     id="g10"><g
       id="g12"><g
         clip-path="url(#clipPath18)"
         id="g14"><g
           transform="translate(30.7227,35.2476)"
           id="g20"><path
             id="path22"
             style="fill:none;stroke:#93278f;stroke-width:1.29999995;stroke-linecap:round;stroke-linejoin:round;stroke-miterlimit:4;stroke-dasharray:none;stroke-opacity:1"
             d="m 0,0 h -20.559 v 7.725 c 0.011,5.678 4.606,10.273 10.281,10.281 C -4.602,17.998 -0.012,13.403 0,7.725 Z m -9.42,-17.944 1.46,-6.91 h -4.64 l 1.461,6.91 c -1.874,0.4 -3.281,2.062 -3.281,4.051 0,2.291 1.853,4.144 4.14,4.144 2.288,0 4.142,-1.853 4.142,-4.144 0,-1.989 -1.407,-3.651 -3.282,-4.051 z M 5.828,0 H 5.522 v 7.725 c -0.001,8.729 -7.077,15.803 -15.8,15.809 -8.731,-0.006 -15.802,-7.08 -15.804,-15.809 V 0 h -0.305 c -2.028,0 -3.685,-1.657 -3.685,-3.68 v -27.235 c 0,-2.023 1.657,-3.683 3.685,-3.683 H 5.828 c 2.025,0 3.685,1.66 3.685,3.683 V -3.68 C 9.513,-1.657 7.853,0 5.828,0 Z" /></g></g></g></g></svg>