<?xml version="1.0" encoding="UTF-8" standalone="no"?>
<svg
   xmlns:dc="http://purl.org/dc/elements/1.1/"
   xmlns:cc="http://creativecommons.org/ns#"
   xmlns:rdf="http://www.w3.org/1999/02/22-rdf-syntax-ns#"
   xmlns:svg="http://www.w3.org/2000/svg"
   xmlns="http://www.w3.org/2000/svg"
   viewBox="0 0 48.005199 48.003868"
   height="48.003868"
   width="48.005199"
   xml:space="preserve"
   id="svg2"
   version="1.1"><metadata
     id="metadata8"><rdf:RDF><cc:Work
         rdf:about=""><dc:format>image/svg+xml</dc:format><dc:type
           rdf:resource="http://purl.org/dc/dcmitype/StillImage" /></cc:Work></rdf:RDF></metadata><defs
     id="defs6"><clipPath
       id="clipPath18"
       clipPathUnits="userSpaceOnUse"><path
         id="path16"
         d="M 0,36.003 H 36.004 V 0 H 0 Z" /></clipPath></defs><g
     transform="matrix(1.3333333,0,0,-1.3333333,0,48.003867)"
     id="g10"><g
       id="g12"><g
         clip-path="url(#clipPath18)"
         id="g14"><g
           transform="translate(25.6465,15.3525)"
           id="g20"><path
             id="path22"
             style="fill:#b2bccb;fill-opacity:1;fill-rule:nonzero;stroke:none"
             d="m 0,0 -4.78,2.884 c 0.041,0.193 0.062,0.394 0.062,0.6 0,1.319 -0.871,2.433 -2.07,2.799 v 8.855 c 0,0.473 -0.384,0.857 -0.858,0.857 -0.472,0 -0.855,-0.384 -0.855,-0.857 V 6.283 c -1.199,-0.366 -2.07,-1.48 -2.07,-2.799 0,-1.616 1.31,-2.926 2.926,-2.926 0.791,0 1.507,0.315 2.035,0.825 l 4.725,-2.851 c 0.139,-0.083 0.292,-0.123 0.443,-0.123 0.291,0 0.574,0.148 0.734,0.415 C 0.536,-0.771 0.407,-0.244 0,0 M 6.567,-5.303 C 5.833,-6.612 4.926,-7.813 3.871,-8.868 3.059,-9.68 2.159,-10.402 1.191,-11.029 l -1.251,2.166 c -0.238,-0.158 -0.482,-0.306 -0.73,-0.45 l 1.25,-2.164 c -2.266,-1.302 -4.873,-2.074 -7.658,-2.15 v 2.5 c -0.149,-0.005 -0.297,-0.012 -0.447,-0.012 -0.137,0 -0.273,0.006 -0.41,0.011 v -2.499 c -2.788,0.068 -5.398,0.836 -7.668,2.135 l 1.25,2.165 c -0.249,0.141 -0.493,0.291 -0.731,0.448 l -1.251,-2.167 c -0.978,0.63 -1.887,1.358 -2.706,2.178 -1.051,1.051 -1.955,2.247 -2.689,3.55 l 2.165,1.25 c -0.138,0.249 -0.273,0.502 -0.396,0.759 l -2.169,-1.252 c -1.075,2.173 -1.682,4.619 -1.683,7.209 0,0.105 0.007,0.207 0.008,0.31 h 2.501 c 0.006,0.288 0.022,0.574 0.045,0.857 h -2.507 c 0.185,2.608 0.98,5.043 2.247,7.167 l 2.166,-1.25 c 0.147,0.246 0.303,0.486 0.464,0.721 l -2.171,1.255 c 0.592,0.884 1.269,1.707 2.019,2.457 0.993,0.993 2.115,1.855 3.335,2.564 l 1.25,-2.165 c 0.247,0.145 0.499,0.281 0.755,0.41 l -1.251,2.168 c 2.112,1.085 4.491,1.72 7.017,1.783 v -2.5 c 0.137,0.004 0.273,0.011 0.41,0.011 0.15,0 0.298,-0.007 0.447,-0.012 v 2.501 c 2.523,-0.07 4.9,-0.709 7.01,-1.797 l -1.253,-2.169 c 0.256,-0.129 0.507,-0.265 0.753,-0.409 l 1.251,2.165 c 1.209,-0.708 2.323,-1.564 3.308,-2.55 0.755,-0.754 1.434,-1.583 2.028,-2.473 L 3.729,10.438 C 3.891,10.203 4.045,9.963 4.192,9.717 l 2.165,1.25 C 7.62,8.847 8.411,6.417 8.595,3.815 H 6.09 C 6.113,3.532 6.128,3.246 6.134,2.958 h 2.5 C 8.636,2.855 8.642,2.753 8.642,2.648 8.642,0.064 8.038,-2.375 6.969,-4.544 l -2.17,1.252 C 4.676,-3.551 4.542,-3.805 4.403,-4.054 Z M -7.646,20.65 c -9.941,-10e-4 -18,-8.06 -18,-18.002 0,-9.942 8.059,-18.001 18,-18.001 9.944,0 18.002,8.059 18.003,18.001 C 10.356,12.59 2.298,20.649 -7.646,20.65" /></g></g></g></g></svg>