<?xml version="1.0" encoding="UTF-8" standalone="no"?>
<svg
   xmlns:dc="http://purl.org/dc/elements/1.1/"
   xmlns:cc="http://creativecommons.org/ns#"
   xmlns:rdf="http://www.w3.org/1999/02/22-rdf-syntax-ns#"
   xmlns:svg="http://www.w3.org/2000/svg"
   xmlns="http://www.w3.org/2000/svg"
   viewBox="0 0 40.462269 37.447201"
   height="37.447201"
   width="40.462269"
   xml:space="preserve"
   id="svg2"
   version="1.1"><metadata
     id="metadata8"><rdf:RDF><cc:Work
         rdf:about=""><dc:format>image/svg+xml</dc:format><dc:type
           rdf:resource="http://purl.org/dc/dcmitype/StillImage" /></cc:Work></rdf:RDF></metadata><defs
     id="defs6"><clipPath
       id="clipPath18"
       clipPathUnits="userSpaceOnUse"><path
         id="path16"
         d="M 0,28.085 H 30.347 V 0 H 0 Z" /></clipPath></defs><g
     transform="matrix(1.3333333,0,0,-1.3333333,0,37.4472)"
     id="g10"><g
       id="g12"><g
         clip-path="url(#clipPath18)"
         id="g14"><g
           transform="translate(19.1533,1.8574)"
           id="g20"><path
             id="path22"
             style="fill:#abbacc;fill-opacity:1;fill-rule:nonzero;stroke:none"
             d="m 0,0 h -7.959 c -0.088,0 -0.144,0.068 -0.125,0.152 l 0.479,2.257 c 0.018,0.085 0.104,0.154 0.19,0.154 h 6.87 c 0.086,0 0.171,-0.069 0.19,-0.154 L 0.124,0.152 C 0.142,0.068 0.086,0 0,0 m 11.163,-0.627 c 0.035,0.128 0.036,0.273 -0.007,0.427 L 9.139,7.166 c -0.137,0.5 -0.673,0.91 -1.192,0.91 h -23.854 c -0.52,0 -1.056,-0.41 -1.194,-0.91 L -19.116,-0.2 c -0.044,-0.154 -0.042,-0.299 -0.007,-0.427 -0.025,-0.061 -0.035,-0.131 -0.028,-0.203 l 0.058,-0.559 c 0.028,-0.257 0.262,-0.468 0.521,-0.468 H 10.61 c 0.261,0 0.494,0.211 0.523,0.468 l 0.057,0.559 c 0.009,0.072 -0.002,0.142 -0.027,0.203" /></g><g
           transform="translate(26.5479,13.0508)"
           id="g24"><path
             id="path26"
             style="fill:#abbacc;fill-opacity:1;fill-rule:nonzero;stroke:none"
             d="m 0,0 c 0,-0.519 -0.424,-0.943 -0.942,-0.943 h -20.865 c -0.517,0 -0.943,0.424 -0.943,0.943 v 12.766 c 0,0.519 0.426,0.943 0.943,0.943 H -0.942 C -0.424,13.709 0,13.285 0,12.766 Z m 0.553,15.035 h -23.855 c -0.519,0 -0.944,-0.425 -0.944,-0.943 V -1.326 c 0,-0.519 0.425,-0.944 0.944,-0.944 H 0.553 c 0.518,0 0.942,0.425 0.942,0.944 v 15.418 c 0,0.518 -0.424,0.943 -0.942,0.943" /></g></g></g></g></svg>