<?xml version="1.0" encoding="UTF-8" standalone="no"?>
<svg
   xmlns:dc="http://purl.org/dc/elements/1.1/"
   xmlns:cc="http://creativecommons.org/ns#"
   xmlns:rdf="http://www.w3.org/1999/02/22-rdf-syntax-ns#"
   xmlns:svg="http://www.w3.org/2000/svg"
   xmlns="http://www.w3.org/2000/svg"
   viewBox="0 0 308.01334 223.444"
   height="223.444"
   width="308.01334"
   xml:space="preserve"
   id="svg2"
   version="1.1"><metadata
     id="metadata8"><rdf:RDF><cc:Work
         rdf:about=""><dc:format>image/svg+xml</dc:format><dc:type
           rdf:resource="http://purl.org/dc/dcmitype/StillImage" /></cc:Work></rdf:RDF></metadata><defs
     id="defs6"><clipPath
       id="clipPath18"
       clipPathUnits="userSpaceOnUse"><path
         id="path16"
         d="M 0,167.583 H 231.01 V 0 H 0 Z" /></clipPath></defs><g
     transform="matrix(1.3333333,0,0,-1.3333333,0,223.444)"
     id="g10"><g
       id="g12"><g
         clip-path="url(#clipPath18)"
         id="g14"><g
           transform="translate(231.0098,15.1367)"
           id="g20"><path
             id="path22"
             style="fill:#d7d2c5;fill-opacity:1;fill-rule:nonzero;stroke:none"
             d="m 0,0 c 0,-8.359 -6.776,-15.137 -15.137,-15.137 h -200.736 c -8.36,0 -15.137,6.778 -15.137,15.137 v 137.308 c 0,8.36 6.777,15.137 15.137,15.137 H -15.137 C -6.776,152.445 0,145.668 0,137.308 Z" /></g><g
           transform="translate(231.0088,147.7764)"
           id="g24"><path
             id="path26"
             style="fill:#aaa99f;fill-opacity:1;fill-rule:nonzero;stroke:none"
             d="m 0,0 v -132.638 c 0,-8.363 -6.773,-15.136 -15.137,-15.136 h -18.384 l -84.408,61.648 z" /></g><g
           transform="translate(36.5894)"
           id="g28"><path
             id="path30"
             style="fill:#acaba1;fill-opacity:1;fill-rule:nonzero;stroke:none"
             d="m 0,0 194.42,141.996 v 5.783 L -7.919,0 Z" /></g><g
           transform="translate(231.0088,152.4468)"
           id="g32"><path
             id="path34"
             style="fill:#9f3224;fill-opacity:1;fill-rule:nonzero;stroke:none"
             d="m 0,0 v -137.308 c 0,-1.482 -0.211,-2.914 -0.616,-4.271 -1.838,-6.282 -7.639,-10.866 -14.521,-10.866 H -26.311 V 7.476 l 0.725,0.53 9.763,7.13 h 0.686 C -6.773,15.136 0,8.357 0,0" /></g><g
           transform="translate(215.8721,167.583)"
           id="g36"><path
             id="path38"
             style="fill:#e8503e;fill-opacity:1;fill-rule:nonzero;stroke:none"
             d="m 0,0 h -0.687 l -9.762,-7.13 -0.725,-0.53 -88.407,-64.568 -89.98,65.719 -8.914,6.509 h -2.26 c -8.363,0 -15.136,-6.779 -15.136,-15.136 v -8.212 -129.096 c 0,-1.482 0.21,-2.914 0.616,-4.271 1.838,-6.282 7.639,-10.866 14.52,-10.866 h 11.174 V -42.56 l 65.303,-47.696 21.466,-15.677 3.957,-2.892 24.684,18.023 62.977,45.998 0.725,0.531 25.586,18.682 v 10.455 C 15.137,-6.779 8.363,0 0,0" /></g></g></g></g></svg>