<?xml version="1.0" encoding="UTF-8" standalone="no"?>
<svg
   xmlns:dc="http://purl.org/dc/elements/1.1/"
   xmlns:cc="http://creativecommons.org/ns#"
   xmlns:rdf="http://www.w3.org/1999/02/22-rdf-syntax-ns#"
   xmlns:svg="http://www.w3.org/2000/svg"
   xmlns="http://www.w3.org/2000/svg"
   viewBox="0 0 426.66666 288"
   height="288"
   width="426.66666"
   xml:space="preserve"
   id="svg2"
   version="1.1"><metadata
     id="metadata8"><rdf:RDF><cc:Work
         rdf:about=""><dc:format>image/svg+xml</dc:format><dc:type
           rdf:resource="http://purl.org/dc/dcmitype/StillImage" /></cc:Work></rdf:RDF></metadata><defs
     id="defs6"><clipPath
       id="clipPath18"
       clipPathUnits="userSpaceOnUse"><path
         id="path16"
         d="M 0,216 H 320 V 0 H 0 Z" /></clipPath></defs><g
     transform="matrix(1.3333333,0,0,-1.3333333,0,288)"
     id="g10"><g
       id="g12"><g
         clip-path="url(#clipPath18)"
         id="g14"><g
           transform="translate(40,100)"
           id="g20"><path
             id="path22"
             style="fill:#fff;fill-opacity:1;fill-rule:nonzero;stroke:none"
             d="m 0,0 c 0,-11.045 -8.954,-20 -20,-20 -11.046,0 -20,8.955 -20,20 0,11.045 8.954,20 20,20 C -8.954,20 0,11.045 0,0" /></g><g
           transform="translate(40,169)"
           id="g24"><path
             id="path26"
             style="fill:#fff;fill-opacity:1;fill-rule:nonzero;stroke:none"
             d="m 0,0 c 0,-11.045 -8.954,-20 -20,-20 -11.046,0 -20,8.955 -20,20 0,11.045 8.954,20 20,20 C -8.954,20 0,11.045 0,0" /></g><g
           transform="translate(134,142)"
           id="g28"><path
             id="path30"
             style="fill:#fff;fill-opacity:1;fill-rule:nonzero;stroke:none"
             d="m 0,0 c 0,-11.045 -8.954,-20 -20,-20 -11.046,0 -20,8.955 -20,20 0,11.045 8.954,20 20,20 C -8.954,20 0,11.045 0,0" /></g><g
           transform="translate(134,78)"
           id="g32"><path
             id="path34"
             style="fill:#fff;fill-opacity:1;fill-rule:nonzero;stroke:none"
             d="m 0,0 c 0,-11.045 -8.954,-20 -20,-20 -11.046,0 -20,8.955 -20,20 0,11.045 8.954,20 20,20 C -8.954,20 0,11.045 0,0" /></g><g
           transform="translate(235,196)"
           id="g36"><path
             id="path38"
             style="fill:#fff;fill-opacity:1;fill-rule:nonzero;stroke:none"
             d="m 0,0 c 0,-11.045 -8.954,-20 -20,-20 -11.046,0 -20,8.955 -20,20 0,11.045 8.954,20 20,20 C -8.954,20 0,11.045 0,0" /></g><g
           transform="translate(226,122)"
           id="g40"><path
             id="path42"
             style="fill:#fff;fill-opacity:1;fill-rule:nonzero;stroke:none"
             d="m 0,0 c 0,-11.045 -8.954,-20 -20,-20 -11.046,0 -20,8.955 -20,20 0,11.045 8.954,20 20,20 C -8.954,20 0,11.045 0,0" /></g><g
           transform="translate(320,163)"
           id="g44"><path
             id="path46"
             style="fill:#fff;fill-opacity:1;fill-rule:nonzero;stroke:none"
             d="m 0,0 c 0,-11.045 -8.954,-20 -20,-20 -11.046,0 -20,8.955 -20,20 0,11.045 8.954,20 20,20 C -8.954,20 0,11.045 0,0" /></g><g
           transform="translate(320,65)"
           id="g48"><path
             id="path50"
             style="fill:#fff;fill-opacity:1;fill-rule:nonzero;stroke:none"
             d="m 0,0 c 0,-11.045 -8.954,-20 -20,-20 -11.046,0 -20,8.955 -20,20 0,11.045 8.954,20 20,20 C -8.954,20 0,11.045 0,0" /></g><g
           transform="translate(112.6665,1)"
           id="g52"><path
             id="path54"
             style="fill:#fff;fill-opacity:1;fill-rule:nonzero;stroke:none"
             d="m 0,0 c -3.314,0 -6,2.686 -6,6 v 25 c 0,3.313 2.686,6 6,6 3.314,0 6,-2.687 6,-6 V 6 C 6,2.686 3.314,0 0,0" /></g><g
           transform="translate(205.3335,1)"
           id="g56"><path
             id="path58"
             style="fill:#fff;fill-opacity:1;fill-rule:nonzero;stroke:none"
             d="m 0,0 c -3.313,0 -6,2.686 -6,6 v 25 c 0,3.313 2.687,6 6,6 3.313,0 6,-2.687 6,-6 V 6 C 6,2.686 3.313,0 0,0" /></g><g
           transform="translate(20,1)"
           id="g60"><path
             id="path62"
             style="fill:#fff;fill-opacity:1;fill-rule:nonzero;stroke:none"
             d="m 0,0 c -3.313,0 -6,2.686 -6,6 v 25 c 0,3.313 2.687,6 6,6 3.313,0 6,-2.687 6,-6 V 6 C 6,2.686 3.313,0 0,0" /></g><g
           transform="translate(298,1)"
           id="g64"><path
             id="path66"
             style="fill:#fff;fill-opacity:1;fill-rule:nonzero;stroke:none"
             d="m 0,0 c -3.314,0 -6,2.686 -6,6 v 25 c 0,3.313 2.686,6 6,6 3.313,0 6,-2.687 6,-6 V 6 C 6,2.686 3.313,0 0,0" /></g><g
           transform="translate(297)"
           id="g68"><path
             id="path70"
             style="fill:#fff;fill-opacity:1;fill-rule:nonzero;stroke:none"
             d="m 0,0 h -278 c -3.314,0 -6,2.686 -6,6 0,3.313 2.686,6 6,6 H 0 C 3.313,12 6,9.313 6,6 6,2.686 3.313,0 0,0" /></g><g
           transform="translate(299.9941,57.999)"
           id="g72"><path
             id="path74"
             style="fill:#fff;fill-opacity:1;fill-rule:nonzero;stroke:none"
             d="m 0,0 c -1.109,0 -2.23,0.308 -3.233,0.95 l -89.157,57.177 -94.773,-46.378 -97.028,94.964 c -2.368,2.318 -2.409,6.116 -0.091,8.485 2.318,2.367 6.116,2.409 8.485,0.091 L -184.826,26.253 -91.598,71.875 3.245,11.052 C 6.034,9.263 6.845,5.552 5.057,2.762 3.911,0.976 1.976,0 0,0" /></g><g
           transform="translate(87.2461,123.4736)"
           id="g76"><path
             id="path78"
             style="fill:#fff;fill-opacity:1;fill-rule:nonzero;stroke:none"
             d="M 0,0 29.44,13.154 126.255,66.941 212.668,34.9 216.84,46.152 125.252,80.111 24.068,23.897 -9.22,9.024 Z" /></g><g
           transform="translate(49.5605,119.7793)"
           id="g80"><path
             id="path82"
             style="fill:#fff;fill-opacity:1;fill-rule:nonzero;stroke:none"
             d="M 0,0 -32.008,-14.301 -27.113,-25.258 9.22,-9.023 Z" /></g><g
           transform="translate(299.9941,57.999)"
           id="g84"><path
             id="path86"
             style="fill:#fff;fill-opacity:1;fill-rule:nonzero;stroke:none"
             d="m 0,0 c -1.109,0 -2.23,0.308 -3.233,0.95 l -89.157,57.177 -94.773,-46.378 -97.028,94.964 c -2.368,2.318 -2.409,6.116 -0.091,8.485 2.318,2.367 6.116,2.409 8.485,0.091 L -184.826,26.253 -91.598,71.875 3.245,11.052 C 6.034,9.263 6.845,5.552 5.057,2.762 3.911,0.976 1.976,0 0,0" /></g></g></g></g></svg>