<?xml version="1.0" encoding="UTF-8" standalone="no"?>
<svg
   xmlns:dc="http://purl.org/dc/elements/1.1/"
   xmlns:cc="http://creativecommons.org/ns#"
   xmlns:rdf="http://www.w3.org/1999/02/22-rdf-syntax-ns#"
   xmlns:svg="http://www.w3.org/2000/svg"
   xmlns="http://www.w3.org/2000/svg"
   viewBox="0 0 209.78667 274.88934"
   height="274.88934"
   width="209.78667"
   xml:space="preserve"
   id="svg2"
   version="1.1"><metadata
     id="metadata8"><rdf:RDF><cc:Work
         rdf:about=""><dc:format>image/svg+xml</dc:format><dc:type
           rdf:resource="http://purl.org/dc/dcmitype/StillImage" /></cc:Work></rdf:RDF></metadata><defs
     id="defs6"><clipPath
       id="clipPath18"
       clipPathUnits="userSpaceOnUse"><path
         id="path16"
         d="M 0,206.167 H 157.34 V 0 H 0 Z" /></clipPath></defs><g
     transform="matrix(1.3333333,0,0,-1.3333333,0,274.88933)"
     id="g10"><g
       id="g12"><g
         clip-path="url(#clipPath18)"
         id="g14"><g
           transform="translate(110.5029,155.5771)"
           id="g20"><path
             id="path22"
             style="fill:#fff;fill-opacity:1;fill-rule:nonzero;stroke:none"
             d="m 0,0 v 13.756 c 0,23.409 -11.573,36.834 -31.833,36.834 -20.23,0 -31.834,-13.425 -31.834,-36.834 V 0 c -2.097,-1.291 -3.5,-3.601 -3.5,-6.244 0,-4.05 3.283,-7.333 7.333,-7.333 4.051,0 7.334,3.283 7.334,7.333 0,2.915 -1.704,5.425 -4.167,6.607 v 13.393 c 0,13.61 4.309,29.834 24.915,29.834 C -11.294,43.59 -7,27.366 -7,13.756 V 0.363 c -2.462,-1.183 -4.166,-3.693 -4.166,-6.607 0,-4.05 3.283,-7.333 7.333,-7.333 4.051,0 7.334,3.283 7.334,7.333 C 3.501,-3.6 2.098,-1.291 0,0" /></g><g
           transform="translate(106.6699,148)"
           id="g24"><path
             id="path26"
             style="fill:#fff;fill-opacity:1;fill-rule:nonzero;stroke:none"
             d="m 0,0 c 0.735,0 1.334,0.598 1.334,1.333 0,0.684 -0.494,1.041 -0.645,1.134 L 0.078,2.843 -0.569,2.532 C -0.938,2.354 -1.333,1.946 -1.333,1.333 -1.333,0.598 -0.735,0 0,0" /></g><g
           transform="translate(153.0049,158)"
           id="g28"><path
             id="path30"
             style="fill:#fff;fill-opacity:1;fill-rule:nonzero;stroke:none"
             d="m 0,0 c -0.185,6.233 -5.438,11.333 -11.674,11.333 0,0 -14.953,0 -24.828,0 V 0.341 c 2.233,-2.423 3.501,-5.604 3.501,-9.008 0,-7.352 -5.981,-13.333 -13.334,-13.333 -7.352,0 -13.333,5.981 -13.333,13.333 0,3.688 1.559,7.179 4.166,9.663 V 11.333 H -93.169 V 0.997 c 2.607,-2.484 4.167,-5.976 4.167,-9.664 0,-7.352 -5.981,-13.333 -13.334,-13.333 -7.352,0 -13.333,5.981 -13.333,13.333 0,3.403 1.267,6.584 3.5,9.006 v 10.994 h -24.827 c -6.236,0 -11.489,-5.1 -11.674,-11.333 L -153,-146.667 c -0.185,-6.233 4.768,-11.333 11.004,-11.333 H -6.674 c 6.236,0 11.189,5.1 11.004,11.333 z" /></g><g
           transform="translate(50.6689,148)"
           id="g32"><path
             id="path34"
             style="fill:#fff;fill-opacity:1;fill-rule:nonzero;stroke:none"
             d="m 0,0 c 0.735,0 1.334,0.598 1.334,1.333 0,0.613 -0.395,1.021 -0.764,1.199 L -0.078,2.843 -0.688,2.467 C -0.839,2.374 -1.333,2.017 -1.333,1.333 -1.333,0.598 -0.735,0 0,0" /></g><g
           transform="translate(110.5029,155.5771)"
           id="g36"><path
             id="path38"
             style="fill:#fff;fill-opacity:1;fill-rule:nonzero;stroke:none"
             d="m 0,0 v 13.756 c 0,23.409 -11.573,36.834 -31.833,36.834 -20.23,0 -31.834,-13.425 -31.834,-36.834 V 0 c -2.097,-1.291 -3.5,-3.601 -3.5,-6.244 0,-4.05 3.283,-7.333 7.333,-7.333 4.051,0 7.334,3.283 7.334,7.333 0,2.915 -1.704,5.425 -4.167,6.607 v 13.393 c 0,13.61 4.309,29.834 24.915,29.834 C -11.294,43.59 -7,27.366 -7,13.756 V 0.363 c -2.462,-1.183 -4.166,-3.693 -4.166,-6.607 0,-4.05 3.283,-7.333 7.333,-7.333 4.051,0 7.334,3.283 7.334,7.333 C 3.501,-3.6 2.098,-1.291 0,0" /></g></g></g></g></svg>