<?xml version="1.0" encoding="UTF-8" standalone="no"?>
<svg
   xmlns:dc="http://purl.org/dc/elements/1.1/"
   xmlns:cc="http://creativecommons.org/ns#"
   xmlns:rdf="http://www.w3.org/1999/02/22-rdf-syntax-ns#"
   xmlns:svg="http://www.w3.org/2000/svg"
   xmlns="http://www.w3.org/2000/svg"
   viewBox="0 0 45.251331 30.308533"
   height="30.308533"
   width="45.251331"
   xml:space="preserve"
   id="svg2"
   version="1.1"><metadata
     id="metadata8"><rdf:RDF><cc:Work
         rdf:about=""><dc:format>image/svg+xml</dc:format><dc:type
           rdf:resource="http://purl.org/dc/dcmitype/StillImage" /></cc:Work></rdf:RDF></metadata><defs
     id="defs6"><clipPath
       id="clipPath18"
       clipPathUnits="userSpaceOnUse"><path
         id="path16"
         d="M 0,22.731 H 33.938 V 0 H 0 Z" /></clipPath></defs><g
     transform="matrix(1.3333333,0,0,-1.3333333,0,30.308533)"
     id="g10"><g
       id="g12"><g
         clip-path="url(#clipPath18)"
         id="g14"><g
           transform="translate(1.7852,20.5391)"
           id="g20"><path
             id="path22"
             style="fill:#fff;fill-opacity:1;fill-rule:nonzero;stroke:none"
             d="m 0,0 v -18.347 c 0.001,-0.22 0.19,-0.407 0.406,-0.407 h 29.556 c 0.217,0 0.404,0.187 0.404,0.407 V 0 c 0,0.217 -0.187,0.407 -0.404,0.407 H 0.406 C 0.19,0.407 0.001,0.217 0,0 m 0.406,-20.539 c -1.21,0.003 -2.186,0.976 -2.191,2.192 V 0 c 0.005,1.216 0.981,2.189 2.191,2.192 H 29.962 C 31.173,2.189 32.149,1.216 32.153,0 v -18.347 c -0.004,-1.216 -0.98,-2.189 -2.191,-2.192 z" /></g><g
           transform="translate(29.3154,5.8281)"
           id="g24"><path
             id="path26"
             style="fill:#fff;fill-opacity:1;fill-rule:nonzero;stroke:none"
             d="m 0,0 -7.183,9.438 c -0.811,1.067 -2.139,1.067 -2.952,0 l -4.156,-5.463 1.675,-2.283 c 0.158,-0.217 0.111,-0.525 -0.106,-0.682 -0.086,-0.067 -0.186,-0.097 -0.287,-0.097 -0.149,0 -0.299,0.072 -0.394,0.198 l -2.129,2.913 -1.718,2.256 c -0.812,1.068 -2.139,1.068 -2.95,0 L -24.979,0 c -0.812,-1.064 -0.379,-1.937 0.96,-1.937 H -0.96 C 0.379,-1.937 0.812,-1.064 0,0" /></g></g></g></g></svg>