<?xml version="1.0" encoding="UTF-8" standalone="no"?>
<svg
   xmlns:dc="http://purl.org/dc/elements/1.1/"
   xmlns:cc="http://creativecommons.org/ns#"
   xmlns:rdf="http://www.w3.org/1999/02/22-rdf-syntax-ns#"
   xmlns:svg="http://www.w3.org/2000/svg"
   xmlns="http://www.w3.org/2000/svg"
   viewBox="0 0 162.25467 153.18533"
   height="153.18533"
   width="162.25467"
   xml:space="preserve"
   id="svg2"
   version="1.1"><metadata
     id="metadata8"><rdf:RDF><cc:Work
         rdf:about=""><dc:format>image/svg+xml</dc:format><dc:type
           rdf:resource="http://purl.org/dc/dcmitype/StillImage" /></cc:Work></rdf:RDF></metadata><defs
     id="defs6"><clipPath
       id="clipPath18"
       clipPathUnits="userSpaceOnUse"><path
         id="path16"
         d="M 0,114.889 H 121.691 V 0 H 0 Z" /></clipPath></defs><g
     transform="matrix(1.3333333,0,0,-1.3333333,0,153.18533)"
     id="g10"><g
       id="g12"><g
         clip-path="url(#clipPath18)"
         id="g14"><g
           transform="translate(106.2939,66.9214)"
           id="g20"><path
             id="path22"
             style="fill:none;stroke:#fff;stroke-width:4;stroke-linecap:butt;stroke-linejoin:miter;stroke-miterlimit:4;stroke-dasharray:none;stroke-opacity:1"
             d="m 0,0 c 0,-25.387 -20.58,-45.967 -45.968,-45.967 -25.386,0 -45.967,20.58 -45.967,45.967 0,25.387 20.581,45.967 45.967,45.967 C -20.58,45.967 0,25.387 0,0 Z" /></g><g
           transform="translate(85.9023,66.9214)"
           id="g24"><path
             id="path26"
             style="fill:none;stroke:#fff;stroke-width:4;stroke-linecap:butt;stroke-linejoin:miter;stroke-miterlimit:4;stroke-dasharray:none;stroke-opacity:1"
             d="m 0,0 c 0,-25.387 -11.451,-45.967 -25.576,-45.967 -14.125,0 -25.575,20.58 -25.575,45.967 0,25.387 11.45,45.967 25.575,45.967 C -11.451,45.967 0,25.387 0,0 Z" /></g><g
           transform="translate(13.5098,67.1763)"
           id="g28"><path
             id="path30"
             style="fill:none;stroke:#fff;stroke-width:4;stroke-linecap:butt;stroke-linejoin:miter;stroke-miterlimit:4;stroke-dasharray:none;stroke-opacity:1"
             d="M 0,0 H 92.104" /></g><g
           transform="translate(59.9023,113.0586)"
           id="g32"><path
             id="path34"
             style="fill:none;stroke:#fff;stroke-width:4;stroke-linecap:butt;stroke-linejoin:miter;stroke-miterlimit:4;stroke-dasharray:none;stroke-opacity:1"
             d="M 0,0 V -92.615" /></g><g
           transform="translate(23.6895,38.6245)"
           id="g36"><path
             id="path38"
             style="fill:none;stroke:#fff;stroke-width:4;stroke-linecap:butt;stroke-linejoin:miter;stroke-miterlimit:4;stroke-dasharray:none;stroke-opacity:1"
             d="m 0,0 c 9.322,4.311 22.107,6.97 36.213,6.97 14.447,0 27.508,-2.79 36.883,-7.286" /></g><g
           transform="translate(96.7852,94.0493)"
           id="g40"><path
             id="path42"
             style="fill:none;stroke:#fff;stroke-width:4;stroke-linecap:butt;stroke-linejoin:miter;stroke-miterlimit:4;stroke-dasharray:none;stroke-opacity:1"
             d="m 0,0 c -9.322,-4.311 -22.107,-6.97 -36.213,-6.97 -14.447,0 -27.508,2.79 -36.883,7.286" /></g><g
           transform="translate(120.7402,46.7188)"
           id="g44"><path
             id="path46"
             style="fill:#fff;fill-opacity:1;fill-rule:nonzero;stroke:none"
             d="M 0,0 C -2.581,8.52 -2.628,8.23 -5.622,7.632 -8.956,6.965 -6.68,0.844 -6.287,-4.064 c 0.547,-6.843 -2.141,-10.773 -3.667,-12.161 -0.841,-2.388 -2.081,-5.18 -3.897,-8.418 -0.091,-0.163 -0.261,-0.255 -0.436,-0.255 -0.083,0 -0.167,0.021 -0.245,0.064 -0.24,0.135 -0.326,0.44 -0.192,0.681 1.984,3.534 3.261,6.515 4.076,8.995 0.431,2.383 0.697,6.416 -4.149,5.199 -2.54,-0.638 -4.683,-10.07 -8.899,-16.394 -4.216,-6.323 -1.64,-9.602 -1.64,-9.602 l -1.404,-5.151 c 0,0 7.494,-7.963 9.367,-4.919 1.873,3.045 0.571,5.174 5.489,8.921 4.918,3.747 10.476,15.352 10.617,16.515 C -1.016,-18.533 2.636,-8.702 0,0" /></g><g
           transform="translate(0.9512,46.7188)"
           id="g48"><path
             id="path50"
             style="fill:#fff;fill-opacity:1;fill-rule:nonzero;stroke:none"
             d="M 0,0 C 2.581,8.52 2.628,8.23 5.622,7.632 8.956,6.965 6.68,0.844 6.287,-4.064 5.74,-10.907 8.428,-14.837 9.954,-16.225 c 0.841,-2.388 2.081,-5.18 3.897,-8.418 0.091,-0.163 0.261,-0.255 0.436,-0.255 0.083,0 0.167,0.021 0.245,0.064 0.24,0.135 0.326,0.44 0.192,0.681 -1.984,3.534 -3.261,6.515 -4.076,8.995 -0.431,2.383 -0.697,6.416 4.149,5.199 2.54,-0.638 4.683,-10.07 8.899,-16.394 4.216,-6.323 1.64,-9.602 1.64,-9.602 l 1.404,-5.151 c 0,0 -7.494,-7.963 -9.367,-4.919 -1.873,3.045 -0.571,5.174 -5.489,8.921 C 6.966,-33.357 1.408,-21.752 1.267,-20.589 1.016,-18.533 -2.636,-8.702 0,0" /></g></g></g></g></svg>