<?xml version="1.0" encoding="UTF-8" standalone="no"?>
<svg
   xmlns:dc="http://purl.org/dc/elements/1.1/"
   xmlns:cc="http://creativecommons.org/ns#"
   xmlns:rdf="http://www.w3.org/1999/02/22-rdf-syntax-ns#"
   xmlns:svg="http://www.w3.org/2000/svg"
   xmlns="http://www.w3.org/2000/svg"
   viewBox="0 0 275.94266 209"
   height="209"
   width="275.94266"
   xml:space="preserve"
   id="svg2"
   version="1.1"><metadata
     id="metadata8"><rdf:RDF><cc:Work
         rdf:about=""><dc:format>image/svg+xml</dc:format><dc:type
           rdf:resource="http://purl.org/dc/dcmitype/StillImage" /></cc:Work></rdf:RDF></metadata><defs
     id="defs6"><clipPath
       id="clipPath18"
       clipPathUnits="userSpaceOnUse"><path
         id="path16"
         d="M 0,156.75 H 206.957 V 0 H 0 Z" /></clipPath></defs><g
     transform="matrix(1.3333333,0,0,-1.3333333,0,209)"
     id="g10"><g
       id="g12"><g
         clip-path="url(#clipPath18)"
         id="g14"><g
           transform="translate(197.0566,153.4429)"
           id="g20"><path
             id="path22"
             style="fill:#939;fill-opacity:1;fill-rule:nonzero;stroke:none"
             d="m 0,0 c -4.41,4.41 -11.625,4.41 -16.035,0 l -104.881,-104.88 c -4.41,-4.41 -11.625,-4.41 -16.035,0 l -34.17,34.17 c -4.41,4.41 -11.625,4.41 -16.035,0 l -6.592,-6.592 c -4.41,-4.41 -4.41,-11.626 0,-16.035 l 34.17,-34.17 c 4.41,-4.41 11.625,-11.626 16.035,-16.035 l 6.592,-6.593 c 4.41,-4.41 11.625,-4.41 16.035,0 L 6.592,-22.627 c 4.41,4.409 4.41,11.625 0,16.035 z" /></g></g></g></g></svg>