<?xml version="1.0" encoding="UTF-8" standalone="no"?>
<svg
   xmlns:dc="http://purl.org/dc/elements/1.1/"
   xmlns:cc="http://creativecommons.org/ns#"
   xmlns:rdf="http://www.w3.org/1999/02/22-rdf-syntax-ns#"
   xmlns:svg="http://www.w3.org/2000/svg"
   xmlns="http://www.w3.org/2000/svg"
   viewBox="0 0 232.82268 159.32133"
   height="159.32133"
   width="232.82268"
   xml:space="preserve"
   id="svg2"
   version="1.1"><metadata
     id="metadata8"><rdf:RDF><cc:Work
         rdf:about=""><dc:format>image/svg+xml</dc:format><dc:type
           rdf:resource="http://purl.org/dc/dcmitype/StillImage" /></cc:Work></rdf:RDF></metadata><defs
     id="defs6"><clipPath
       id="clipPath18"
       clipPathUnits="userSpaceOnUse"><path
         id="path16"
         d="M 0,119.491 H 174.617 V 0 H 0 Z" /></clipPath></defs><g
     transform="matrix(1.3333333,0,0,-1.3333333,0,159.32133)"
     id="g10"><g
       id="g12"><g
         clip-path="url(#clipPath18)"
         id="g14"><g
           transform="translate(59.4521,97.1206)"
           id="g20"><path
             id="path22"
             style="fill:#fff;fill-opacity:1;fill-rule:nonzero;stroke:none"
             d="m 0,0 c 6.178,0 11.186,5.008 11.186,11.186 0,6.177 -5.008,11.185 -11.186,11.185 -6.178,0 -11.186,-5.008 -11.186,-11.185 C -11.186,5.008 -6.178,0 0,0" /></g><g
           transform="translate(83.6592,78.7622)"
           id="g24"><path
             id="path26"
             style="fill:#fff;fill-opacity:1;fill-rule:nonzero;stroke:none"
             d="m 0,0 c -1.827,9.146 -11.969,16.146 -24.207,16.146 -12.238,0 -22.38,-7 -24.207,-16.146 -0.19,-0.575 -0.295,-1.187 -0.295,-1.823 v -28.102 c 0,-3.235 2.646,-5.881 5.881,-5.881 h 3.405 c 0.534,0 1.05,0.078 1.542,0.214 v -35.82 c 0,-4.042 3.309,-7.35 7.352,-7.35 h 12.644 c 4.043,0 7.351,3.308 7.351,7.35 v 35.778 c 0.444,-0.108 0.904,-0.172 1.38,-0.172 h 3.568 c 3.234,0 5.881,2.646 5.881,5.881 V -1.823 C 0.295,-1.187 0.189,-0.575 0,0" /></g><g
           transform="translate(160.2803,56.9009)"
           id="g28"><path
             id="path30"
             style="fill:#fff;fill-opacity:1;fill-rule:nonzero;stroke:none"
             d="m 0,0 c 4.679,0 8.471,3.792 8.471,8.47 0,4.678 -3.792,8.47 -8.471,8.47 -4.678,0 -8.47,-3.792 -8.47,-8.47 C -8.47,3.792 -4.678,0 0,0" /></g><g
           transform="translate(174.4443,46.0845)"
           id="g32"><path
             id="path34"
             style="fill:#fff;fill-opacity:1;fill-rule:nonzero;stroke:none"
             d="M 0,0 C -1.069,5.352 -7.003,9.448 -14.164,9.448 -21.324,9.448 -27.259,5.352 -28.327,0 -28.438,-0.336 -28.5,-0.695 -28.5,-1.067 v -16.442 c 0,-1.893 1.549,-3.441 3.44,-3.441 h 1.994 c 0.312,0 0.613,0.046 0.902,0.124 v -20.958 c 0,-2.365 1.935,-4.3 4.301,-4.3 h 7.399 c 2.364,0 4.3,1.935 4.3,4.3 v 20.934 c 0.261,-0.063 0.529,-0.1 0.808,-0.1 h 2.087 c 1.894,0 3.442,1.548 3.442,3.441 V -1.067 C 0.173,-0.695 0.111,-0.336 0,0" /></g><g
           transform="translate(115.334,97.1206)"
           id="g36"><path
             id="path38"
             style="fill:#fff;fill-opacity:1;fill-rule:nonzero;stroke:none"
             d="m 0,0 c 6.178,0 11.186,5.008 11.186,11.186 0,6.177 -5.008,11.185 -11.186,11.185 -6.178,0 -11.186,-5.008 -11.186,-11.185 C -11.186,5.008 -6.178,0 0,0" /></g><g
           transform="translate(133.3174,78.7622)"
           id="g40"><path
             id="path42"
             style="fill:#fff;fill-opacity:1;fill-rule:nonzero;stroke:none"
             d="m 0,0 c -1.55,9.146 -12.968,16.146 -17.983,16.146 -5.807,0 -16.436,-7 -17.984,-16.146 -0.161,-0.575 -0.251,-1.187 -0.251,-1.823 l -2.543,-25.102 c 0,-3.235 2.244,-5.881 4.987,-5.881 h 2.886 c 0.454,0 0.892,0.078 1.309,0.214 l 2.545,-38.82 c 0,-4.042 2.805,-7.35 6.233,-7.35 h 5.635 c 3.429,0 6.232,3.308 6.232,7.35 l 2.544,38.778 c 0.378,-0.108 0.767,-0.172 1.171,-0.172 h 3.027 c 2.742,0 4.986,2.646 4.986,5.881 L 0.25,-1.823 C 0.25,-1.187 0.161,-0.575 0,0" /></g><g
           transform="translate(97.9238,23.3887)"
           id="g44"><path
             id="path46"
             style="fill:#fff;fill-opacity:1;fill-rule:nonzero;stroke:none"
             d="m 0,0 c -3.967,0 -5.932,3.517 -4.368,7.814 l 18.934,52.03 c 1.565,4.298 4.123,4.298 5.688,0 L 39.188,7.814 C 40.752,3.517 38.787,0 34.82,0 Z" /></g><g
           transform="translate(14.1621,52.2676)"
           id="g48"><path
             id="path50"
             style="fill:#fff;fill-opacity:1;fill-rule:nonzero;stroke:none"
             d="m 0,0 c 4.255,0 7.705,3.45 7.705,7.705 0,4.256 -3.45,7.705 -7.705,7.705 -4.255,0 -7.705,-3.449 -7.705,-7.705 C -7.705,3.45 -4.255,0 0,0" /></g><g
           transform="translate(25.5762,42.3877)"
           id="g52"><path
             id="path54"
             style="fill:#fff;fill-opacity:1;fill-rule:nonzero;stroke:none"
             d="M 0,0 C -0.984,4.922 -8.23,8.689 -11.414,8.689 -15.1,8.689 -21.845,4.922 -22.827,0 c -0.102,-0.31 -0.159,-0.639 -0.159,-0.981 l -1.615,-13.51 c 0,-1.74 1.425,-3.164 3.165,-3.164 h 1.832 c 0.29,0 0.567,0.042 0.832,0.114 l 1.614,-20.891 c 0,-2.176 1.78,-3.956 3.957,-3.956 h 3.575 c 2.177,0 3.956,1.78 3.956,3.956 l 1.613,20.869 c 0.241,-0.058 0.489,-0.092 0.744,-0.092 h 1.92 c 1.742,0 3.165,1.424 3.165,3.164 L 0.158,-0.981 C 0.158,-0.639 0.102,-0.309 0,0" /></g><g
           transform="translate(3.1123,12.5869)"
           id="g56"><path
             id="path58"
             style="fill:#fff;fill-opacity:1;fill-rule:nonzero;stroke:none"
             d="M 0,0 C -2.516,0 -3.764,1.893 -2.771,4.206 L 9.246,32.207 c 0.992,2.313 2.617,2.313 3.609,0 L 24.871,4.206 C 25.863,1.893 24.617,0 22.1,0 Z" /></g></g></g></g></svg>