<?xml version="1.0" encoding="utf-8"?>
<!-- Generator: Adobe Illustrator 14.0.0, SVG Export Plug-In . SVG Version: 6.00 Build 43363)  -->
<!DOCTYPE svg PUBLIC "-//W3C//DTD SVG 1.1//EN" "http://www.w3.org/Graphics/SVG/1.1/DTD/svg11.dtd">
<svg version="1.1" id="Layer_1" xmlns="http://www.w3.org/2000/svg" xmlns:xlink="http://www.w3.org/1999/xlink" x="0px" y="0px"
	 width="49.417px" height="49.547px" viewBox="0 0 49.417 49.547" enable-background="new 0 0 49.417 49.547" xml:space="preserve">
<path fill="#FFFFFF" d="M45.749,48.462c-0.64,0-1.279-0.244-1.768-0.732l-42-42c-0.977-0.976-0.977-2.559,0-3.535
	c0.976-0.977,2.56-0.977,3.535,0l42,42c0.977,0.977,0.977,2.559,0,3.535C47.028,48.218,46.388,48.462,45.749,48.462L45.749,48.462z"
	/>
<path fill="#FFFFFF" d="M3.749,48.462c-0.64,0-1.28-0.244-1.768-0.732c-0.977-0.977-0.977-2.559,0-3.535l42-42
	c0.977-0.977,2.559-0.977,3.535,0c0.977,0.976,0.977,2.559,0,3.535l-42,42C5.028,48.218,4.388,48.462,3.749,48.462L3.749,48.462z"/>
</svg>
