<?xml version="1.0" encoding="UTF-8" standalone="no"?>
<svg
   xmlns:dc="http://purl.org/dc/elements/1.1/"
   xmlns:cc="http://creativecommons.org/ns#"
   xmlns:rdf="http://www.w3.org/1999/02/22-rdf-syntax-ns#"
   xmlns:svg="http://www.w3.org/2000/svg"
   xmlns="http://www.w3.org/2000/svg"
   viewBox="0 0 65.665466 65.666664"
   height="65.666664"
   width="65.665466"
   xml:space="preserve"
   id="svg2"
   version="1.1"><metadata
     id="metadata8"><rdf:RDF><cc:Work
         rdf:about=""><dc:format>image/svg+xml</dc:format><dc:type
           rdf:resource="http://purl.org/dc/dcmitype/StillImage" /></cc:Work></rdf:RDF></metadata><defs
     id="defs6"><clipPath
       id="clipPath18"
       clipPathUnits="userSpaceOnUse"><path
         id="path16"
         d="M 0,49.25 H 49.249 V 0 H 0 Z" /></clipPath></defs><g
     transform="matrix(1.3333333,0,0,-1.3333333,0,65.666667)"
     id="g10"><g
       id="g12"><g
         clip-path="url(#clipPath18)"
         id="g14"><g
           transform="translate(38.3399,12.6641)"
           id="g20"><path
             id="path22"
             style="fill:#fff;fill-opacity:1;fill-rule:nonzero;stroke:none"
             d="m 0,0 c 0,-1.096 -0.909,-1.982 -2.031,-1.982 h -23.416 c -1.123,0 -2.032,0.886 -2.032,1.982 v 23.689 c 0,1.094 0.909,1.983 2.032,1.983 H -2.031 C -0.909,25.672 0,24.783 0,23.689 Z m -13.715,36.586 c -13.599,0 -24.625,-11.025 -24.625,-24.625 0,-13.602 11.026,-24.625 24.625,-24.625 13.599,0 24.624,11.023 24.624,24.625 0,13.6 -11.025,24.625 -24.624,24.625" /></g><g
           transform="translate(29.378,27.9649)"
           id="g24"><path
             id="path26"
             style="fill:#fff;fill-opacity:1;fill-rule:nonzero;stroke:none"
             d="m 0,0 c -2.202,0 -3.189,-1.209 -3.741,-2.061 v -0.041 h -0.028 c 0.01,0.012 0.02,0.028 0.028,0.041 v 1.768 h -4.15 c 0.054,-1.17 0,-12.484 0,-12.484 h 4.15 v 6.972 c 0,0.375 0.027,0.744 0.136,1.012 0.301,0.744 0.985,1.52 2.13,1.52 1.503,0 2.103,-1.147 2.103,-2.825 v -6.679 h 4.15 v 7.158 C 4.778,-1.783 2.73,0 0,0" /></g><g
           transform="translate(17.1426,33.6934)"
           id="g28"><path
             id="path30"
             style="fill:#fff;fill-opacity:1;fill-rule:nonzero;stroke:none"
             d="m 0,0 c -1.419,0 -2.348,-0.934 -2.348,-2.158 0,-1.197 0.901,-2.158 2.293,-2.158 h 0.028 c 1.447,0 2.348,0.961 2.348,2.158 C 2.294,-0.934 1.42,0 0,0" /></g><path
           id="path32"
           style="fill:#fff;fill-opacity:1;fill-rule:nonzero;stroke:none"
           d="m 15.04,15.188 h 4.151 V 27.672 H 15.04 Z" /></g></g></g></svg>