<?xml version="1.0" encoding="UTF-8" standalone="no"?>
<svg
   xmlns:dc="http://purl.org/dc/elements/1.1/"
   xmlns:cc="http://creativecommons.org/ns#"
   xmlns:rdf="http://www.w3.org/1999/02/22-rdf-syntax-ns#"
   xmlns:svg="http://www.w3.org/2000/svg"
   xmlns="http://www.w3.org/2000/svg"
   viewBox="0 0 41.135468 38.845066"
   height="38.845066"
   width="41.135468"
   xml:space="preserve"
   id="svg2"
   version="1.1"><metadata
     id="metadata8"><rdf:RDF><cc:Work
         rdf:about=""><dc:format>image/svg+xml</dc:format><dc:type
           rdf:resource="http://purl.org/dc/dcmitype/StillImage" /></cc:Work></rdf:RDF></metadata><defs
     id="defs6"><clipPath
       id="clipPath18"
       clipPathUnits="userSpaceOnUse"><path
         id="path16"
         d="M 0,29.134 H 30.852 V 0 H 0 Z" /></clipPath></defs><g
     transform="matrix(1.3333333,0,0,-1.3333333,0,38.845067)"
     id="g10"><g
       id="g12"><g
         clip-path="url(#clipPath18)"
         id="g14"><g
           transform="translate(0.957)"
           id="g20"><path
             id="path22"
             style="fill:#ffffff;fill-opacity:1;fill-rule:nonzero;stroke:none"
             d="m 0,0 c -0.414,0 -0.747,0.336 -0.747,0.746 0,0.415 0.333,0.748 0.747,0.748 h 29.147 c 0.415,0 0.748,-0.333 0.748,-0.748 C 29.895,0.336 29.562,0 29.147,0 Z" /></g><g
           transform="translate(8.6689,3.3447)"
           id="g24"><path
             id="path26"
             style="fill:#ffffff;fill-opacity:1;fill-rule:nonzero;stroke:none"
             d="m 0,0 c -0.414,0 -0.747,0.333 -0.747,0.746 0,0.415 0.333,0.745 0.747,0.745 h 20.068 c 0.411,0 0.745,-0.33 0.745,-0.745 C 20.813,0.333 20.479,0 20.068,0 Z" /></g><g
           transform="translate(15.9111,6.5713)"
           id="g28"><path
             id="path30"
             style="fill:#ffffff;fill-opacity:1;fill-rule:nonzero;stroke:none"
             d="m 0,0 c -0.414,0 -0.747,0.333 -0.747,0.746 0,0.409 0.333,0.748 0.747,0.748 h 10.75 c 0.412,0 0.746,-0.339 0.746,-0.748 C 11.496,0.333 11.162,0 10.75,0 Z" /></g><g
           transform="translate(12.9004,8.3926)"
           id="g32"><path
             id="path34"
             style="fill:#ffffff;fill-opacity:1;fill-rule:nonzero;stroke:none"
             d="m 0,0 c 0.674,0.107 1.473,-0.003 2.298,-0.319 l -9.92,-4.437 -2.404,2.066 2.801,10.171 C -6.941,6.907 -6.784,6.326 -6.772,5.776 L 4.072,18.402 5.498,17.251 -5.488,4.461 c 1.144,0.173 2.055,0.063 3.104,-0.833 0.819,-0.701 0.952,-1.479 1.14,-2.392 l 10.643,12.389 1.425,-1.021 z m 12.875,12.688 -0.208,0.182 c -0.044,0.113 -0.114,0.218 -0.213,0.3 L 4.3,20.176 C 4.199,20.264 4.076,20.319 3.953,20.341 3.086,20.977 1.85,20.845 1.139,20.017 L -8.326,9 C -8.318,8.992 -8.311,8.98 -8.302,8.973 -8.357,8.901 -8.404,8.811 -8.43,8.717 l -4.444,-16.119 c -0.076,-0.278 0.015,-0.577 0.233,-0.765 0.138,-0.115 0.311,-0.182 0.489,-0.182 0.1,0 0.205,0.023 0.302,0.067 l 15.266,6.824 c 0.167,0.074 0.292,0.204 0.366,0.357 V -1.103 L 13.101,9.74 c 0.748,0.872 0.648,2.2 -0.226,2.948" /></g></g></g></g></svg>