<?xml version="1.0" encoding="UTF-8" standalone="no"?>
<svg
   xmlns:dc="http://purl.org/dc/elements/1.1/"
   xmlns:cc="http://creativecommons.org/ns#"
   xmlns:rdf="http://www.w3.org/1999/02/22-rdf-syntax-ns#"
   xmlns:svg="http://www.w3.org/2000/svg"
   xmlns="http://www.w3.org/2000/svg"
   viewBox="0 0 134.31599 90.108131"
   height="90.108131"
   width="134.31599"
   xml:space="preserve"
   id="svg2"
   version="1.1"><metadata
     id="metadata8"><rdf:RDF><cc:Work
         rdf:about=""><dc:format>image/svg+xml</dc:format><dc:type
           rdf:resource="http://purl.org/dc/dcmitype/StillImage" /></cc:Work></rdf:RDF></metadata><defs
     id="defs6"><clipPath
       id="clipPath18"
       clipPathUnits="userSpaceOnUse"><path
         id="path16"
         d="M 0,67.581 H 100.737 V 0 H 0 Z" /></clipPath></defs><g
     transform="matrix(1.3333333,0,0,-1.3333333,0,90.108133)"
     id="g10"><g
       id="g12"><g
         clip-path="url(#clipPath18)"
         id="g14"><g
           transform="translate(2.2939,48.4263)"
           id="g20"><path
             id="path22"
             style="fill:#fff;fill-opacity:1;fill-rule:nonzero;stroke:none"
             d="m 0,0 c -2.697,-0.538 -3.07,-2.282 -0.829,-3.876 l 12.006,-8.543 c 2.24,-1.595 6.171,-2.084 8.734,-1.089 l 68.826,26.72 c 2.563,0.996 2.738,0.642 0.387,-0.786 L 32.515,-21.965 c -2.35,-1.428 -2.44,-3.901 -0.2,-5.495 l 23.358,-16.62 c 2.241,-1.593 5.241,-0.974 6.668,1.376 l 35.463,58.452 c 1.426,2.351 0.387,3.834 -2.31,3.296 z" /></g><g
           transform="translate(37.1143,15.085)"
           id="g24"><path
             id="path26"
             style="fill:#fff;fill-opacity:1;fill-rule:nonzero;stroke:none"
             d="m 0,0 c 2.271,-1.551 4.442,-3.199 2.313,-4.939 l -12.028,-9.196 c -2.13,-1.74 -3.185,-1.021 -2.347,1.598 l 4.546,14.55 c 0.839,2.619 2.773,1.224 5.043,-0.326 z" /></g><g
           transform="translate(21.7656,0.3779)"
           id="g28"><path
             id="path30"
             style="fill:#fff;fill-opacity:1;fill-rule:nonzero;stroke:none"
             d="m 0,0 c -0.258,-0.038 -2.1,-0.539 -2.614,2.163 l -4.574,23.235 c -0.515,2.702 -0.505,5.269 -0.366,5.855 0,0 1.135,1.328 2.206,0.602 0.463,-0.313 0.766,-0.643 0.766,-0.643 0.34,-0.492 1.039,-3.104 1.555,-5.806 L 1.233,3.034 C 1.748,0.333 0.243,0.036 0,0" /></g></g></g></g></svg>