<?xml version="1.0" encoding="UTF-8" standalone="no"?>
<svg
   xmlns:dc="http://purl.org/dc/elements/1.1/"
   xmlns:cc="http://creativecommons.org/ns#"
   xmlns:rdf="http://www.w3.org/1999/02/22-rdf-syntax-ns#"
   xmlns:svg="http://www.w3.org/2000/svg"
   xmlns="http://www.w3.org/2000/svg"
   viewBox="0 0 206.804 158.05067"
   height="158.05067"
   width="206.804"
   xml:space="preserve"
   id="svg2"
   version="1.1"><metadata
     id="metadata8"><rdf:RDF><cc:Work
         rdf:about=""><dc:format>image/svg+xml</dc:format><dc:type
           rdf:resource="http://purl.org/dc/dcmitype/StillImage" /></cc:Work></rdf:RDF></metadata><defs
     id="defs6"><clipPath
       id="clipPath18"
       clipPathUnits="userSpaceOnUse"><path
         id="path16"
         d="M 0,118.538 H 155.103 V 0 H 0 Z" /></clipPath></defs><g
     transform="matrix(1.3333333,0,0,-1.3333333,0,158.05067)"
     id="g10"><g
       id="g12"><g
         clip-path="url(#clipPath18)"
         id="g14"><g
           transform="translate(57.5,54.4971)"
           id="g20"><path
             id="path22"
             style="fill:#fff;fill-opacity:1;fill-rule:nonzero;stroke:none"
             d="m 0,0 c -1.073,0 -2.11,0.576 -2.65,1.589 -0.78,1.462 -0.227,3.279 1.235,4.058 l 67.497,35.999 c 1.466,0.781 3.28,0.226 4.06,-1.236 0.779,-1.462 0.226,-3.279 -1.236,-4.058 L 1.409,0.354 C 0.959,0.114 0.476,0 0,0" /></g><g
           transform="translate(100.542,73.0874)"
           id="g24"><path
             id="path26"
             style="fill:#fff;fill-opacity:1;fill-rule:nonzero;stroke:none"
             d="m 0,0 c 1.905,-5.089 2.953,-10.594 2.953,-16.34 0,-25.777 -20.971,-46.747 -46.748,-46.747 -25.776,0 -46.747,20.97 -46.747,46.747 0,25.777 20.971,46.748 46.747,46.748 15.389,0 29.061,-7.477 37.584,-18.986 l 8.892,4.742 c -10.273,14.644 -27.27,24.244 -46.476,24.244 -31.29,0 -56.747,-25.457 -56.747,-56.748 0,-31.29 25.457,-56.747 56.747,-56.747 31.291,0 56.748,25.457 56.748,56.747 0,7.446 -1.456,14.554 -4.074,21.075 z" /></g><g
           transform="translate(83.0732,63.7705)"
           id="g28"><path
             id="path30"
             style="fill:#fff;fill-opacity:1;fill-rule:nonzero;stroke:none"
             d="m 0,0 c 0.598,-2.242 0.922,-4.595 0.922,-7.023 0,-15.024 -12.224,-27.248 -27.248,-27.248 -15.025,0 -27.248,12.224 -27.248,27.248 0,15.024 12.223,27.248 27.248,27.248 7.93,0 15.077,-3.407 20.06,-8.832 l 9.026,4.814 c -6.832,8.536 -17.327,14.018 -29.086,14.018 -20.539,0 -37.248,-16.709 -37.248,-37.248 0,-20.539 16.709,-37.248 37.248,-37.248 20.539,0 37.248,16.709 37.248,37.248 0,4.13 -0.686,8.102 -1.933,11.817 z" /></g><g
           transform="translate(60.5566,51.7622)"
           id="g32"><path
             id="path34"
             style="fill:#fff;fill-opacity:1;fill-rule:nonzero;stroke:none"
             d="m 0,0 c -0.941,-0.501 -1.997,-0.765 -3.057,-0.765 -2.407,0 -4.606,1.319 -5.738,3.442 -1.686,3.162 -0.485,7.107 2.676,8.794 L 4.54,17.155 c -2.376,1.633 -5.25,2.593 -8.35,2.593 -8.152,0 -14.763,-6.609 -14.763,-14.763 0,-8.153 6.611,-14.762 14.763,-14.762 8.153,0 14.764,6.609 14.764,14.762 0,0.282 -0.026,0.557 -0.042,0.835 z" /></g><g
           transform="translate(57.5,54.4971)"
           id="g36"><path
             id="path38"
             style="fill:#fff;fill-opacity:1;fill-rule:nonzero;stroke:none"
             d="m 0,0 c -1.073,0 -2.11,0.576 -2.65,1.589 -0.78,1.462 -0.227,3.279 1.235,4.058 l 67.497,35.999 c 1.466,0.781 3.28,0.226 4.06,-1.236 0.779,-1.462 0.226,-3.279 -1.236,-4.058 L 1.409,0.354 C 0.959,0.114 0.476,0 0,0" /></g><g
           transform="translate(119.4658,88.0728)"
           id="g40"><path
             id="path42"
             style="fill:#fff;fill-opacity:1;fill-rule:nonzero;stroke:none"
             d="m 0,0 11.298,-6.938 c 0.314,-0.275 0.582,-0.377 0.871,-0.525 1.083,-1.128 2.76,-1.349 4.219,-0.605 l 8.449,4.307 c 0.437,0.223 0.935,0.277 1.237,0.631 l 7.952,4.053 c 0.707,0.361 1.259,0.893 1.611,1.522 -0.269,0.152 -0.548,0.346 -0.81,0.576 l -12.589,8.081 c -0.747,0.657 -1.426,2.01 -1.519,3.001 l 0.879,14.947 c -0.044,0.465 -0.023,0.916 0.038,1.282 -0.82,0.218 -1.703,0.183 -2.49,-0.218 L 1.509,21.123 C 0.054,20.38 -0.603,18.614 -0.3,17.02 -0.298,17.007 -0.294,16.995 -0.292,16.982 -0.341,16.661 -0.354,16.26 -0.314,15.844 L -1.338,2.625 C -1.257,1.758 -0.654,0.577 0,0" /></g></g></g></g></svg>