<?xml version="1.0" encoding="UTF-8" standalone="no"?>
<svg
   xmlns:dc="http://purl.org/dc/elements/1.1/"
   xmlns:cc="http://creativecommons.org/ns#"
   xmlns:rdf="http://www.w3.org/1999/02/22-rdf-syntax-ns#"
   xmlns:svg="http://www.w3.org/2000/svg"
   xmlns="http://www.w3.org/2000/svg"
   viewBox="0 0 45.333332 45.333332"
   height="45.333332"
   width="45.333332"
   xml:space="preserve"
   id="svg2"
   version="1.1"><metadata
     id="metadata8"><rdf:RDF><cc:Work
         rdf:about=""><dc:format>image/svg+xml</dc:format><dc:type
           rdf:resource="http://purl.org/dc/dcmitype/StillImage" /></cc:Work></rdf:RDF></metadata><defs
     id="defs6"><clipPath
       id="clipPath18"
       clipPathUnits="userSpaceOnUse"><path
         id="path16"
         d="M 0,34 H 34 V 0 H 0 Z" /></clipPath></defs><g
     transform="matrix(1.3333333,0,0,-1.3333333,0,45.333333)"
     id="g10"><g
       id="g12"><g
         clip-path="url(#clipPath18)"
         id="g14"><g
           transform="translate(26,15.5)"
           id="g20"><path
             id="path22"
             style="fill:#00aa92;fill-opacity:1;fill-rule:nonzero;stroke:none"
             d="M 0,0 H -7.5 V -7.5 C -7.5,-8.329 -8.172,-9 -9,-9 c -0.828,0 -1.5,0.671 -1.5,1.5 V 0 H -18 c -0.828,0 -1.5,0.671 -1.5,1.5 0,0.829 0.672,1.5 1.5,1.5 h 7.5 v 7.5 c 0,0.829 0.672,1.5 1.5,1.5 0.828,0 1.5,-0.671 1.5,-1.5 V 3 H 0 C 0.828,3 1.5,2.329 1.5,1.5 1.5,0.671 0.828,0 0,0 m -9,18.5 c -9.389,0 -17,-7.611 -17,-17 0,-9.389 7.611,-17 17,-17 9.389,0 17,7.611 17,17 0,9.389 -7.611,17 -17,17" /></g></g></g></g></svg>