<?xml version="1.0" encoding="UTF-8" standalone="no"?>
<svg
   xmlns:dc="http://purl.org/dc/elements/1.1/"
   xmlns:cc="http://creativecommons.org/ns#"
   xmlns:rdf="http://www.w3.org/1999/02/22-rdf-syntax-ns#"
   xmlns:svg="http://www.w3.org/2000/svg"
   xmlns="http://www.w3.org/2000/svg"
   viewBox="0 0 23.865868 18.8848"
   height="18.8848"
   width="23.865868"
   xml:space="preserve"
   id="svg2"
   version="1.1"><metadata
     id="metadata8"><rdf:RDF><cc:Work
         rdf:about=""><dc:format>image/svg+xml</dc:format><dc:type
           rdf:resource="http://purl.org/dc/dcmitype/StillImage" /></cc:Work></rdf:RDF></metadata><defs
     id="defs6"><clipPath
       id="clipPath18"
       clipPathUnits="userSpaceOnUse"><path
         id="path16"
         d="M 0,14.164 H 17.899 V 0 H 0 Z" /></clipPath></defs><g
     transform="matrix(1.3333333,0,0,-1.3333333,0,18.8848)"
     id="g10"><g
       id="g12"><g
         clip-path="url(#clipPath18)"
         id="g14"><g
           transform="translate(16.9541,1.7446)"
           id="g20"><path
             id="path22"
             style="fill:#4d4d5d;fill-opacity:1;fill-rule:nonzero;stroke:none"
             d="m 0,0 h -16.083 c -0.479,0 -0.871,-0.392 -0.871,-0.874 0,-0.481 0.392,-0.871 0.871,-0.871 H 0 c 0.482,0 0.87,0.39 0.87,0.871 C 0.87,-0.392 0.482,0 0,0 m 0,3.936 h -16.083 c -0.479,0 -0.871,-0.391 -0.871,-0.872 0,-0.482 0.392,-0.871 0.871,-0.871 H 0 c 0.482,0 0.87,0.389 0.87,0.871 0,0.481 -0.388,0.872 -0.87,0.872 m 0,4.268 h -16.083 c -0.481,0 -0.871,-0.39 -0.871,-0.873 0,-0.481 0.39,-0.871 0.871,-0.871 L 0,6.46 c 0.482,0 0.87,0.39 0.87,0.871 0,0.483 -0.388,0.873 -0.87,0.873" /></g><g
           transform="translate(0.002,13.0674)"
           id="g24"><path
             id="path26"
             style="fill:#4d4d5d;fill-opacity:1;fill-rule:nonzero;stroke:none"
             d="m 0,0 v -12.204 c 0,-0.366 0.391,-0.661 0.873,-0.661 0.481,0 0.871,0.295 0.871,0.661 V 0 c 0,0.366 -0.39,0.66 -0.871,0.66 C 0.391,0.66 0,0.366 0,0" /></g><g
           transform="translate(4.2695,9.3965)"
           id="g28"><path
             id="path30"
             style="fill:#4d4d5d;fill-opacity:1;fill-rule:nonzero;stroke:none"
             d="m 0,0 v -8.722 c 0,-0.259 0.391,-0.472 0.873,-0.472 0.481,0 0.87,0.213 0.87,0.472 V 0 c 0,0.262 -0.389,0.472 -0.87,0.472 C 0.391,0.472 0,0.262 0,0" /></g><g
           transform="translate(8.2061,9.3965)"
           id="g32"><path
             id="path34"
             style="fill:#4d4d5d;fill-opacity:1;fill-rule:nonzero;stroke:none"
             d="m 0,0 v -8.722 c 0,-0.259 0.392,-0.472 0.874,-0.472 0.48,0 0.871,0.213 0.871,0.472 V 0 C 1.745,0.262 1.354,0.472 0.874,0.472 0.392,0.472 0,0.262 0,0" /></g><g
           transform="translate(12.1484,9.3965)"
           id="g36"><path
             id="path38"
             style="fill:#4d4d5d;fill-opacity:1;fill-rule:nonzero;stroke:none"
             d="m 0,0 v -8.722 c 0,-0.259 0.391,-0.472 0.873,-0.472 0.481,0 0.87,0.213 0.87,0.472 V 0 c 0,0.262 -0.389,0.472 -0.87,0.472 C 0.391,0.472 0,0.262 0,0" /></g><g
           transform="translate(16.085,12.6621)"
           id="g40"><path
             id="path42"
             style="fill:#4d4d5d;fill-opacity:1;fill-rule:nonzero;stroke:none"
             d="m 0,0 v -11.82 c 0,-0.352 0.392,-0.64 0.874,-0.64 0.48,0 0.871,0.288 0.871,0.64 V 0 C 1.745,0.354 1.354,0.639 0.874,0.639 0.392,0.639 0,0.354 0,0" /></g><g
           transform="translate(17.0293,14.1636)"
           id="g44"><path
             id="path46"
             style="fill:#4d4d5d;fill-opacity:1;fill-rule:nonzero;stroke:none"
             d="m 0,0 h -16.083 c -0.481,0 -0.871,-0.39 -0.871,-0.873 0,-0.481 0.39,-0.871 0.871,-0.871 H 0 c 0.482,0 0.87,0.39 0.87,0.871 C 0.87,-0.39 0.482,0 0,0" /></g></g></g></g></svg>