<?xml version="1.0" encoding="UTF-8" standalone="no"?>
<svg
   xmlns:dc="http://purl.org/dc/elements/1.1/"
   xmlns:cc="http://creativecommons.org/ns#"
   xmlns:rdf="http://www.w3.org/1999/02/22-rdf-syntax-ns#"
   xmlns:svg="http://www.w3.org/2000/svg"
   xmlns="http://www.w3.org/2000/svg"
   viewBox="0 0 45.0312 46.648399"
   height="46.648399"
   width="45.0312"
   xml:space="preserve"
   id="svg2"
   version="1.1"><metadata
     id="metadata8"><rdf:RDF><cc:Work
         rdf:about=""><dc:format>image/svg+xml</dc:format><dc:type
           rdf:resource="http://purl.org/dc/dcmitype/StillImage" /></cc:Work></rdf:RDF></metadata><defs
     id="defs6"><clipPath
       id="clipPath18"
       clipPathUnits="userSpaceOnUse"><path
         id="path16"
         d="M 0,34.986 H 33.773 V 0 H 0 Z" /></clipPath></defs><g
     transform="matrix(1.3333333,0,0,-1.3333333,0,46.6484)"
     id="g10"><g
       id="g12"><g
         clip-path="url(#clipPath18)"
         id="g14"><g
           transform="translate(33.7725,17.0771)"
           id="g20"><path
             id="path22"
             style="fill:#00aeef;fill-opacity:1;fill-rule:nonzero;stroke:none"
             d="m 0,0 c 0.031,-1.1 -0.588,-1.372 -1.376,-0.604 l -17.577,17.09 c -0.788,0.768 -0.533,1.396 0.566,1.398 l 15.869,0.025 c 1.1,0.002 2.027,-0.896 2.058,-1.996 z" /></g><g
           transform="translate(23.3223,13.625)"
           id="g24"><path
             id="path26"
             style="fill:#00aeef;fill-opacity:1;fill-rule:nonzero;stroke:none"
             d="m 0,0 v -8.125 c 0,-1.379 -1.121,-2.5 -2.5,-2.5 h -15.322 c -1.379,0 -2.5,1.121 -2.5,2.5 V 7.197 c 0,1.379 1.121,2.5 2.5,2.5 h 5.427 l 2.98,3 h -8.407 c -3.032,0 -5.5,-2.468 -5.5,-5.5 V -8.125 c 0,-3.032 2.468,-5.5 5.5,-5.5 H -2.5 c 3.032,0 5.5,2.468 5.5,5.5 V 3.021 Z" /></g><g
           transform="translate(18.375,12.1904)"
           id="g28"><path
             id="path30"
             style="fill:#00aeef;fill-opacity:1;fill-rule:nonzero;stroke:none"
             d="m 0,0 c -1.163,-1.171 -3.068,-1.175 -4.235,-0.008 l -3.274,3.274 c -1.167,1.167 -1.17,3.079 -0.007,4.25 l 8.972,9.034 c 1.163,1.171 3.069,1.174 4.235,0.008 l 3.274,-3.274 c 1.166,-1.166 1.17,-3.079 0.007,-4.25 z" /></g></g></g></g></svg>