<?xml version="1.0" encoding="UTF-8" standalone="no"?>
<svg
   xmlns:dc="http://purl.org/dc/elements/1.1/"
   xmlns:cc="http://creativecommons.org/ns#"
   xmlns:rdf="http://www.w3.org/1999/02/22-rdf-syntax-ns#"
   xmlns:svg="http://www.w3.org/2000/svg"
   xmlns="http://www.w3.org/2000/svg"
   viewBox="0 0 37.494801 38.902401"
   height="38.902401"
   width="37.494801"
   xml:space="preserve"
   id="svg2"
   version="1.1"><metadata
     id="metadata8"><rdf:RDF><cc:Work
         rdf:about=""><dc:format>image/svg+xml</dc:format><dc:type
           rdf:resource="http://purl.org/dc/dcmitype/StillImage" /></cc:Work></rdf:RDF></metadata><defs
     id="defs6"><clipPath
       id="clipPath18"
       clipPathUnits="userSpaceOnUse"><path
         id="path16"
         d="M 0,29.177 H 28.121 V 0 H 0 Z" /></clipPath></defs><g
     transform="matrix(1.3333333,0,0,-1.3333333,0,38.9024)"
     id="g10"><g
       id="g12"><g
         clip-path="url(#clipPath18)"
         id="g14"><g
           transform="translate(0.8564)"
           id="g20"><path
             id="path22"
             style="fill:#00aeef;fill-opacity:1;fill-rule:nonzero;stroke:none"
             d="m 0,0 c -0.414,0 -0.749,0.333 -0.749,0.745 0,0.41 0.335,0.746 0.749,0.746 h 26.52 c 0.411,0 0.745,-0.336 0.745,-0.746 C 27.265,0.333 26.931,0 26.52,0 Z" /></g><g
           transform="translate(12.8994,8.4365)"
           id="g24"><path
             id="path26"
             style="fill:#00aeef;fill-opacity:1;fill-rule:nonzero;stroke:none"
             d="m 0,0 c 0.674,0.107 1.473,-0.009 2.298,-0.322 l -9.919,-4.437 -2.404,2.069 2.802,10.169 c 0.285,-0.573 0.438,-1.156 0.45,-1.706 L 4.073,18.398 5.119,17.505 -5.87,4.717 c 1.141,0.174 2.439,-0.196 3.489,-1.092 0.815,-0.701 1.333,-1.604 1.523,-2.517 l 10.639,12.389 1.042,-0.893 z m 12.877,12.688 -0.211,0.179 c -0.044,0.113 -0.115,0.218 -0.21,0.303 L 4.301,20.176 C 4.197,20.264 4.079,20.319 3.955,20.341 3.087,20.977 1.851,20.842 1.14,20.014 L -8.325,8.997 C -8.317,8.991 -8.311,8.983 -8.302,8.973 -8.358,8.9 -8.402,8.813 -8.431,8.717 l -4.442,-16.119 c -0.077,-0.281 0.017,-0.58 0.232,-0.768 0.14,-0.115 0.314,-0.176 0.49,-0.176 0.101,0 0.206,0.02 0.303,0.064 l 15.263,6.824 c 0.167,0.074 0.293,0.2 0.368,0.354 0,-0.002 0.003,-0.002 0.003,-0.002 L 13.102,9.74 c 0.749,0.874 0.647,2.198 -0.225,2.948" /></g></g></g></g></svg>