<?xml version="1.0" encoding="UTF-8" standalone="no"?>
<svg
   xmlns:dc="http://purl.org/dc/elements/1.1/"
   xmlns:cc="http://creativecommons.org/ns#"
   xmlns:rdf="http://www.w3.org/1999/02/22-rdf-syntax-ns#"
   xmlns:svg="http://www.w3.org/2000/svg"
   xmlns="http://www.w3.org/2000/svg"
   viewBox="0 0 43.486935 51.126266"
   height="51.126266"
   width="43.486935"
   xml:space="preserve"
   id="svg2"
   version="1.1"><metadata
     id="metadata8"><rdf:RDF><cc:Work
         rdf:about=""><dc:format>image/svg+xml</dc:format><dc:type
           rdf:resource="http://purl.org/dc/dcmitype/StillImage" /></cc:Work></rdf:RDF></metadata><defs
     id="defs6"><clipPath
       id="clipPath18"
       clipPathUnits="userSpaceOnUse"><path
         id="path16"
         d="M 0,38.345 H 32.615 V 0 H 0 Z" /></clipPath></defs><g
     transform="matrix(1.3333333,0,0,-1.3333333,0,51.126267)"
     id="g10"><g
       id="g12"><g
         clip-path="url(#clipPath18)"
         id="g14"><g
           transform="translate(0.8594,24.3105)"
           id="g20"><path
             id="path22"
             style="fill:#00aeef;fill-opacity:1;fill-rule:nonzero;stroke:none"
             d="m 0,0 c 2.753,7.656 11.453,11.309 20.818,9.424 l 0.778,3.75 c 0.215,1.031 0.861,1.152 1.437,0.269 L 28.09,5.697 C 28.668,4.811 28.418,3.615 27.538,3.035 l -7.725,-5.098 c -0.881,-0.58 -1.425,-0.208 -1.211,0.821 L 19.37,2.455 C 10.784,4.768 3.071,2.98 0.346,-3.578 -0.223,-4.945 -0.53,-6.398 -0.604,-7.898 -1.073,-5.217 -0.908,-2.521 0,0" /></g><g
           transform="translate(31.7578,14.0313)"
           id="g24"><path
             id="path26"
             style="fill:#00aeef;fill-opacity:1;fill-rule:nonzero;stroke:none"
             d="m 0,0 c -2.754,-7.654 -11.455,-11.305 -20.818,-9.424 l -0.778,-3.746 c -0.216,-1.031 -0.862,-1.154 -1.438,-0.271 l -5.058,7.75 c -0.576,0.88 -0.328,2.078 0.553,2.66 l 7.725,5.097 c 0.879,0.58 1.425,0.209 1.21,-0.822 l -0.769,-3.699 C -10.786,-4.764 -3.072,-2.973 -0.347,3.584 0.221,4.947 0.528,6.398 0.602,7.9 1.072,5.219 0.906,2.525 0,0" /></g></g></g></g></svg>