<?xml version="1.0" encoding="UTF-8" standalone="no"?>
<svg
   xmlns:dc="http://purl.org/dc/elements/1.1/"
   xmlns:cc="http://creativecommons.org/ns#"
   xmlns:rdf="http://www.w3.org/1999/02/22-rdf-syntax-ns#"
   xmlns:svg="http://www.w3.org/2000/svg"
   xmlns="http://www.w3.org/2000/svg"
   viewBox="0 0 43.246132 43.244801"
   height="43.244801"
   width="43.246132"
   xml:space="preserve"
   id="svg2"
   version="1.1"><metadata
     id="metadata8"><rdf:RDF><cc:Work
         rdf:about=""><dc:format>image/svg+xml</dc:format><dc:type
           rdf:resource="http://purl.org/dc/dcmitype/StillImage" /></cc:Work></rdf:RDF></metadata><defs
     id="defs6"><clipPath
       id="clipPath18"
       clipPathUnits="userSpaceOnUse"><path
         id="path16"
         d="M 0,32.434 H 32.435 V 0 H 0 Z" /></clipPath></defs><g
     transform="matrix(1.3333333,0,0,-1.3333333,0,43.2448)"
     id="g10"><g
       id="g12"><g
         clip-path="url(#clipPath18)"
         id="g14"><g
           transform="translate(23.7412,9.6445)"
           id="g20"><path
             id="path22"
             style="fill:none;stroke:#ffffff;stroke-width:2;stroke-linecap:butt;stroke-linejoin:miter;stroke-miterlimit:4;stroke-dasharray:none;stroke-opacity:1"
             d="m 0,0 c 0,-0.529 -0.436,-0.965 -0.967,-0.965 h -13.115 c -0.531,0 -0.967,0.436 -0.967,0.965 v 13.299 c 0,0.529 0.436,0.965 0.967,0.965 H -0.967 C -0.436,14.264 0,13.828 0,13.299 Z" /></g><g
           transform="translate(21.4814,4.6953)"
           id="g24"><path
             id="path26"
             style="fill:#ffffff;fill-opacity:1;fill-rule:nonzero;stroke:none"
             d="m 0,0 c 0.638,0 0.752,-0.326 0.253,-0.725 l -4.609,-3.673 c -0.499,-0.397 -1.317,-0.397 -1.817,0 l -4.608,3.673 C -11.281,-0.326 -11.167,0 -10.528,0 Z" /></g><g
           transform="translate(10.9531,27.7383)"
           id="g28"><path
             id="path30"
             style="fill:#ffffff;fill-opacity:1;fill-rule:nonzero;stroke:none"
             d="m 0,0 c -0.639,0 -0.753,0.324 -0.253,0.723 l 4.608,3.673 c 0.5,0.399 1.318,0.399 1.817,0 L 10.781,0.723 C 11.28,0.324 11.166,0 10.528,0 Z" /></g><g
           transform="translate(27.7383,21.4805)"
           id="g32"><path
             id="path34"
             style="fill:#ffffff;fill-opacity:1;fill-rule:nonzero;stroke:none"
             d="m 0,0 c 0,0.639 0.325,0.754 0.723,0.254 l 3.674,-4.609 c 0.399,-0.5 0.399,-1.317 0,-1.817 L 0.723,-10.781 C 0.325,-11.281 0,-11.168 0,-10.527 Z" /></g><g
           transform="translate(4.6963,10.9531)"
           id="g36"><path
             id="path38"
             style="fill:#ffffff;fill-opacity:1;fill-rule:nonzero;stroke:none"
             d="m 0,0 c 0,-0.641 -0.325,-0.754 -0.724,-0.254 l -3.673,4.609 c -0.399,0.5 -0.399,1.317 0,1.817 l 3.673,4.609 C -0.325,11.281 0,11.166 0,10.527 Z" /></g></g></g></g></svg>