<?xml version="1.0" encoding="UTF-8" standalone="no"?>
<svg
   xmlns:dc="http://purl.org/dc/elements/1.1/"
   xmlns:cc="http://creativecommons.org/ns#"
   xmlns:rdf="http://www.w3.org/1999/02/22-rdf-syntax-ns#"
   xmlns:svg="http://www.w3.org/2000/svg"
   xmlns="http://www.w3.org/2000/svg"
   viewBox="0 0 230.98933 72.174271"
   height="72.174271"
   width="230.98933"
   xml:space="preserve"
   id="svg2"
   version="1.1"><metadata
     id="metadata8"><rdf:RDF><cc:Work
         rdf:about=""><dc:format>image/svg+xml</dc:format><dc:type
           rdf:resource="http://purl.org/dc/dcmitype/StillImage" /></cc:Work></rdf:RDF></metadata><defs
     id="defs6"><clipPath
       id="clipPath18"
       clipPathUnits="userSpaceOnUse"><path
         id="path16"
         d="M 0,54.131 H 173.242 V 0 H 0 Z" /></clipPath></defs><g
     transform="matrix(1.3333333,0,0,-1.3333333,0,72.174267)"
     id="g10"><g
       id="g12"><g
         clip-path="url(#clipPath18)"
         id="g14"><g
           transform="translate(172.8444,29.8863)"
           id="g20"><path
             id="path22"
             style="fill:#b2bccb;fill-opacity:1;fill-rule:nonzero;stroke:#b2bccb;"
             d="m 0,0 -7.396,18.644 c -0.254,0.639 -0.572,0.99 -0.885,1.424 -0.746,2.466 -3.043,4.046 -5.743,4.046 h -138 c -0.81,0 -1.582,0.294 -2.289,0 h -14.711 c -1.308,0 -2.516,-0.37 -3.504,-1.029 0.28,-0.424 0.547,-0.919 0.758,-1.452 l 8.437,-21.289 c 0.605,-1.524 0.589,-4.019 -0.016,-5.544 l -8.478,-21.289 c -0.283,-0.715 -0.652,-1.362 -1.017,-1.855 1.039,-0.932 2.365,-1.542 3.82,-1.542 h 155 c 2.693,0 4.976,2.104 5.726,4.671 0.006,0.02 0.011,0.041 0.017,0.061 0.313,0.435 0.631,1.015 0.885,1.654 L 0,-4.856 C 0.53,-3.521 0.53,-1.335 0,0" /></g></g></g></g></svg>